<svg xmlns="http://www.w3.org/2000/svg" width="51.76" height="55" viewBox="0 0 51.76 55">
  <g id="Grupo_108224" data-name="Grupo 108224" transform="translate(-774 -6839)">
    <g id="Grupo_108223" data-name="Grupo 108223">
      <g id="t1-ic2" transform="translate(774 6839)" opacity="0.75">
        <path id="Trazado_151799" data-name="Trazado 151799" d="M63.339,25.654h-1.3V11.709a.806.806,0,0,0-.83-.805.828.828,0,0,0-.781.839V25.653h-5.4a.806.806,0,0,0,0,1.611h8.308a1.888,1.888,0,1,1,0,3.777H46.879V27.265h4.392a.806.806,0,0,0,0-1.611H46.686a1.42,1.42,0,0,0-1.3.857h-5.7a1.344,1.344,0,0,0-1.251-.857H36.08a1.344,1.344,0,0,0-1.251.857H31.376v-.692a1.879,1.879,0,0,0-.911-1.608V22.16a3.438,3.438,0,0,0-.989-6.731H26.759V1.611H60.43V7.949a.806.806,0,0,0,.83.805.828.828,0,0,0,.781-.839V1.343A1.343,1.343,0,0,0,60.7,0H26.49a1.343,1.343,0,0,0-1.343,1.343V15.429H22.741a3.438,3.438,0,0,0-.989,6.731v2.051a1.879,1.879,0,0,0-.911,1.608v6.668a1.879,1.879,0,0,0,.911,1.608v2.051a3.438,3.438,0,0,0,.989,6.731h2.406v2.8h-6.3a1.882,1.882,0,0,0-1.88,1.88v1.335h-.013a1.882,1.882,0,0,0-1.88,1.88v2.889A1.344,1.344,0,0,0,16.421,55H60.7a1.343,1.343,0,0,0,1.343-1.343v-21h1.3a3.5,3.5,0,0,0,0-7ZM39.777,28.122h5.491v2.062H39.777Zm-3.429-.857h1.817v3.777H36.348Zm-4.972.857h3.361v2.062H31.376ZM20.914,18.867a1.829,1.829,0,0,1,1.827-1.827h6.735a1.827,1.827,0,1,1,0,3.654H22.741A1.829,1.829,0,0,1,20.914,18.867Zm1.807,13.888a.269.269,0,0,1-.269-.269V25.819a.269.269,0,0,1,.269-.269H29.5a.269.269,0,0,1,.269.269v6.668a.269.269,0,0,1-.269.269Zm6.133,1.611V36H23.363V34.367ZM23.363,23.939V22.306h5.491v1.634Zm-.622,17.327a1.827,1.827,0,0,1,0-3.654h6.735a1.827,1.827,0,1,1,0,3.654ZM35.527,53.389H16.689v-2.62a.269.269,0,0,1,.269-.269h4.987a.806.806,0,1,0,0-1.611H18.582V47.554a.269.269,0,0,1,.269-.269H33.366a.269.269,0,0,1,.269.269v1.334H25.7a.806.806,0,1,0,0,1.611h9.554a.269.269,0,0,1,.269.269Zm24.9,0H37.139v-2.62a1.882,1.882,0,0,0-1.88-1.88h-.013V47.554a1.882,1.882,0,0,0-1.88-1.88H26.759v-2.8h2.717a3.438,3.438,0,0,0,.989-6.731V34.095a1.879,1.879,0,0,0,.911-1.608V31.8h3.453a1.344,1.344,0,0,0,1.25.857h2.354a1.344,1.344,0,0,0,1.251-.857h5.7a1.42,1.42,0,0,0,1.3.857H60.43V53.389Z" transform="translate(-15.078 0)" fill="#78b62e"/>
        <path id="Trazado_151800" data-name="Trazado 151800" d="M202.872,54.95a8.343,8.343,0,1,0,8.343-8.343A8.353,8.353,0,0,0,202.872,54.95Zm15.075,0a6.732,6.732,0,1,1-6.732-6.732A6.74,6.74,0,0,1,217.947,54.95Z" transform="translate(-182.699 -41.6)" fill="#78b62e"/>
        <path id="Trazado_151801" data-name="Trazado 151801" d="M247.719,102.758a.806.806,0,0,0-1.139,1.139l2.478,2.478a.806.806,0,0,0,1.14,0l3.841-3.841A.806.806,0,0,0,252.9,101.4l-3.271,3.272Z" transform="translate(-221.5 -90.293)" fill="#78b62e"/>
        <path id="Trazado_151802" data-name="Trazado 151802" d="M243.681,327.875a.806.806,0,0,0,.806.806H259.3a.806.806,0,1,0,0-1.611H244.487A.806.806,0,0,0,243.681,327.875Z" transform="translate(-219.124 -291.935)" fill="#78b62e"/>
        <path id="Trazado_151803" data-name="Trazado 151803" d="M318.944,363.546h-7.639a.806.806,0,0,0,0,1.611h7.639a.806.806,0,0,0,0-1.611Z" transform="translate(-278.765 -324.493)" fill="#78b62e"/>
        <path id="Trazado_151804" data-name="Trazado 151804" d="M244.487,365.157h4.385a.806.806,0,0,0,0-1.611h-4.385a.806.806,0,0,0,0,1.611Z" transform="translate(-219.124 -324.493)" fill="#78b62e"/>
        <path id="Trazado_151805" data-name="Trazado 151805" d="M259.3,400.023H244.486a.806.806,0,0,0,0,1.611H259.3a.806.806,0,0,0,0-1.611Z" transform="translate(-219.123 -357.052)" fill="#78b62e"/>
        <path id="Trazado_151806" data-name="Trazado 151806" d="M350.185,436.5h-3.879a.806.806,0,0,0,0,1.611h3.879a.806.806,0,0,0,0-1.611Z" transform="translate(-310.005 -389.61)" fill="#78b62e"/>
        <path id="Trazado_151807" data-name="Trazado 151807" d="M252.954,436.5h-8.467a.806.806,0,0,0,0,1.611h8.467a.806.806,0,1,0,0-1.611Z" transform="translate(-219.124 -389.61)" fill="#78b62e"/>
      </g>
    </g>
  </g>
</svg>
