<svg id="t1-ic0" xmlns="http://www.w3.org/2000/svg" width="58.953" height="55" viewBox="0 0 58.953 55">
  <path id="Trazado_152556" data-name="Trazado 152556" d="M57.453,63.428l-7.311-7.311a1.152,1.152,0,0,0-1.629,0l-.183.183-2.477-2.477a11.048,11.048,0,0,0-6.566-15.315V34.943a1.151,1.151,0,1,0-2.3,0v3.078a11.062,11.062,0,1,0,0,22.016v4.83a1.256,1.256,0,0,1-1.255,1.255H3.558A1.256,1.256,0,0,1,2.3,64.867V20.724a1.256,1.256,0,0,1,1.255-1.255H35.73a1.256,1.256,0,0,1,1.255,1.255V24.8a1.151,1.151,0,0,0,2.3,0V20.724a3.562,3.562,0,0,0-3.558-3.558H3.558A3.562,3.562,0,0,0,0,20.724V64.867a3.562,3.562,0,0,0,3.558,3.558H35.73a3.562,3.562,0,0,0,3.558-3.558V59.549a10.985,10.985,0,0,0,1.305-.511l2.5,2.5-.206.206a1.166,1.166,0,0,0,0,1.629L50.2,70.683a5.13,5.13,0,0,0,7.255-7.255ZM43.217,53.823a8.758,8.758,0,1,1-1.136-10.987A8.817,8.817,0,0,1,43.217,53.823Zm-.6,3.983a11.209,11.209,0,0,0,1.989-1.972L46.7,57.928l-1.981,1.981ZM55.825,69.055a2.854,2.854,0,0,1-4,0l-6.5-6.5,4-4,6.5,6.5A2.83,2.83,0,0,1,55.825,69.055Z" transform="translate(0 -17.166)" fill="#78b62e"/>
  <path id="Trazado_152557" data-name="Trazado 152557" d="M62.627,89.766a1.155,1.155,0,0,0-1.155-1.155H54.995a1.155,1.155,0,0,0-1.155,1.155v6.477A1.155,1.155,0,0,0,54.995,97.4h6.477a1.155,1.155,0,0,0,1.155-1.155Zm-2.31,5.323H56.15V90.921h4.168Z" transform="translate(-47.622 -80.36)" fill="#78b62e"/>
  <path id="Trazado_152558" data-name="Trazado 152558" d="M62.627,202.856a1.155,1.155,0,0,0-1.155-1.155H54.995a1.155,1.155,0,0,0-1.155,1.155v6.477a1.155,1.155,0,0,0,1.155,1.155h6.477a1.155,1.155,0,0,0,1.155-1.155Zm-2.31,5.322H56.15v-4.168h4.168Z" transform="translate(-47.622 -180.464)" fill="#78b62e"/>
  <path id="Trazado_152559" data-name="Trazado 152559" d="M61.472,314.79H54.995a1.155,1.155,0,0,0-1.155,1.155v6.477a1.155,1.155,0,0,0,1.155,1.155h6.477a1.155,1.155,0,0,0,1.155-1.155v-6.477A1.155,1.155,0,0,0,61.472,314.79Zm-1.155,6.477H56.15V317.1h4.168Z" transform="translate(-47.622 -280.538)" fill="#78b62e"/>
  <path id="Trazado_152560" data-name="Trazado 152560" d="M180.224,89.766a1.155,1.155,0,0,0-1.155-1.155H167.5a1.155,1.155,0,0,0,0,2.31h11.565A1.155,1.155,0,0,0,180.224,89.766Z" transform="translate(-147.212 -80.36)" fill="#78b62e"/>
  <path id="Trazado_152561" data-name="Trazado 152561" d="M176.675,132.411a1.155,1.155,0,0,0-1.155-1.155H167.5a1.155,1.155,0,0,0,0,2.31h8.015A1.155,1.155,0,0,0,176.675,132.411Z" transform="translate(-147.207 -118.12)" fill="#78b62e"/>
  <path id="Trazado_152562" data-name="Trazado 152562" d="M173.476,203.251a1.155,1.155,0,0,0-1.155-1.155H167.5a1.155,1.155,0,0,0,0,2.31h4.817A1.155,1.155,0,0,0,173.476,203.251Z" transform="translate(-147.203 -180.804)" fill="#78b62e"/>
  <path id="Trazado_152563" data-name="Trazado 152563" d="M168.614,244.74H167.5a1.155,1.155,0,0,0,0,2.31h1.109a1.155,1.155,0,0,0,0-2.31Z" transform="translate(-147.199 -218.539)" fill="#78b62e"/>
  <path id="Trazado_152564" data-name="Trazado 152564" d="M167.5,317.1h1.109a1.155,1.155,0,1,0,0-2.31H167.5a1.155,1.155,0,0,0,0,2.31Z" transform="translate(-147.199 -280.524)" fill="#78b62e"/>
  <path id="Trazado_152565" data-name="Trazado 152565" d="M167.5,359.744h4.817a1.155,1.155,0,1,0,0-2.31H167.5a1.155,1.155,0,1,0,0,2.31Z" transform="translate(-147.203 -318.258)" fill="#78b62e"/>
  <path id="Trazado_152566" data-name="Trazado 152566" d="M265.011,265.859a1.155,1.155,0,1,0-1.633,1.633l2.755,2.755a1.155,1.155,0,0,0,1.633,0l5.63-5.629a1.155,1.155,0,0,0-1.633-1.633l-4.813,4.813Z" transform="translate(-232.77 -234.393)" fill="#78b62e"/>
  <path id="Trazado_152567" data-name="Trazado 152567" d="M323.438,118.391a1.154,1.154,0,1,0-.625,1.507A1.164,1.164,0,0,0,323.438,118.391Z" transform="translate(-284.236 -106.108)" fill="#78b62e"/>
</svg>
