<svg xmlns="http://www.w3.org/2000/svg" width="58.667" height="55" viewBox="0 0 58.667 55">
  <g id="Grupo_108225" data-name="Grupo 108225" transform="translate(-1185 -6839)">
    <g id="t1-ic3" transform="translate(1185 6839)" opacity="0.75">
      <path id="Trazado_152578" data-name="Trazado 152578" d="M152.168,106.08a1.146,1.146,0,0,0,1.62,0l4.125-4.125a1.146,1.146,0,0,0-1.621-1.621l-3.315,3.315-1.023-1.023a1.146,1.146,0,0,0-1.621,1.621Z" transform="translate(-132.812 -90.374)" fill="#78b62e"/>
      <path id="Trazado_152579" data-name="Trazado 152579" d="M152.168,166.08a1.146,1.146,0,0,0,1.62,0l4.125-4.125a1.146,1.146,0,0,0-1.621-1.621l-3.315,3.315-1.023-1.023a1.146,1.146,0,1,0-1.621,1.621Z" transform="translate(-132.812 -143.499)" fill="#78b62e"/>
      <path id="Trazado_152580" data-name="Trazado 152580" d="M152.168,226.08a1.146,1.146,0,0,0,1.62,0l4.125-4.125a1.146,1.146,0,0,0-1.621-1.621l-3.315,3.315-1.023-1.023a1.146,1.146,0,0,0-1.621,1.621Z" transform="translate(-132.812 -196.624)" fill="#78b62e"/>
      <path id="Trazado_152581" data-name="Trazado 152581" d="M152.168,286.08a1.146,1.146,0,0,0,1.62,0l4.125-4.125a1.146,1.146,0,0,0-1.621-1.621l-3.315,3.315-1.023-1.023a1.146,1.146,0,0,0-1.621,1.621Z" transform="translate(-132.812 -249.749)" fill="#78b62e"/>
      <path id="Trazado_152582" data-name="Trazado 152582" d="M227.146,138.292H240.9a1.146,1.146,0,0,0,0-2.292h-13.75a1.146,1.146,0,1,0,0,2.292Z" transform="translate(-200.104 -122.25)" fill="#78b62e"/>
      <path id="Trazado_152583" data-name="Trazado 152583" d="M227.146,198.292H240.9a1.146,1.146,0,0,0,0-2.292h-13.75a1.146,1.146,0,1,0,0,2.292Z" transform="translate(-200.104 -175.375)" fill="#78b62e"/>
      <path id="Trazado_152584" data-name="Trazado 152584" d="M227.146,258.292H240.9a1.146,1.146,0,0,0,0-2.292h-13.75a1.146,1.146,0,1,0,0,2.292Z" transform="translate(-200.104 -228.5)" fill="#78b62e"/>
      <path id="Trazado_152585" data-name="Trazado 152585" d="M227.146,318.292H240.9a1.146,1.146,0,0,0,0-2.292h-13.75a1.146,1.146,0,1,0,0,2.292Z" transform="translate(-200.104 -281.625)" fill="#78b62e"/>
      <circle id="Elipse_4852" data-name="Elipse 4852" cx="1.146" cy="1.146" r="1.146" transform="translate(28.188 52.708)" fill="#78b62e"/>
      <path id="Trazado_152586" data-name="Trazado 152586" d="M57.521,64.125H54.083V40.063a3.441,3.441,0,0,0-3.437-3.438H46.521V26.313a1.15,1.15,0,0,0-.336-.81l-9.167-9.167a1.16,1.16,0,0,0-.81-.336H13.292a1.146,1.146,0,0,0-1.146,1.146V36.625H8.021a3.441,3.441,0,0,0-3.438,3.438V64.125H1.146A1.146,1.146,0,0,0,0,65.271,5.736,5.736,0,0,0,5.729,71H24.177a1.146,1.146,0,1,0,0-2.292H5.729a3.443,3.443,0,0,1-3.241-2.293H56.179a3.443,3.443,0,0,1-3.241,2.293H34.49a1.146,1.146,0,1,0,0,2.292H52.937a5.736,5.736,0,0,0,5.729-5.729A1.146,1.146,0,0,0,57.521,64.125ZM37.354,19.912l5.255,5.255H37.354Zm-22.917-1.62H35.063v8.021a1.146,1.146,0,0,0,1.146,1.146h8.021V59.542H14.437ZM6.875,40.063a1.147,1.147,0,0,1,1.146-1.146h4.125V60.688a1.146,1.146,0,0,0,1.146,1.146H45.375a1.146,1.146,0,0,0,1.146-1.146V38.917h4.125a1.147,1.147,0,0,1,1.146,1.146V64.125H6.875Z" transform="translate(0 -16)" fill="#78b62e"/>
    </g>
  </g>
</svg>
