<svg xmlns="http://www.w3.org/2000/svg" width="1118" height="458.5" viewBox="0 0 1118 458.5">
  <g id="Grupo_108225" data-name="Grupo 108225" transform="translate(7652 2982)">
    <text id="Registro_sanitario_del_predio_ante_el_ICA." data-name="Registro sanitario del predio ante el ICA." transform="translate(-7564 -2944.5)" fill="#12263f" font-size="16" font-family="Roboto-Bold, Roboto" font-weight="700"><tspan x="0" y="17">Registro sanitario del predio ante el ICA.</tspan></text>
    <text id="Uso_de_medicamentos:_manejo_racional_de_medicamentos_y_trazabilidad." data-name="Uso de medicamentos: manejo racional de medicamentos y trazabilidad." transform="translate(-6986 -2944.5)" fill="#12263f" font-size="16" font-family="Roboto-Bold, Roboto" font-weight="700"><tspan x="0" y="17">Uso de medicamentos: manejo racional de medicamentos </tspan><tspan x="0" y="39">y trazabilidad.</tspan></text>
    <text id="Bioseguridad:_evitar_transmisión_de_patógenos." data-name="Bioseguridad: evitar transmisión de patógenos." transform="translate(-7564 -2579.5)" fill="#12263f" font-size="16" font-family="Roboto-Bold, Roboto" font-weight="700"><tspan x="0" y="17">Bioseguridad: evitar transmisión de patógenos.</tspan></text>
    <text id="Personal:_bienestar_laboral_y_capacitación." data-name="Personal: bienestar laboral y capacitación." transform="translate(-6986 -2579.5)" fill="#12263f" font-size="16" font-family="Roboto-Bold, Roboto" font-weight="700"><tspan x="0" y="17">Personal: bienestar laboral y capacitación.</tspan></text>
    <text id="Contar_con_instalaciones_apropiadas_para_la_especie_producida." data-name="Contar con instalaciones apropiadas para la especie producida." transform="translate(-7564 -2865.5)" fill="#12263f" font-size="16" font-family="Roboto-Bold, Roboto" font-weight="700"><tspan x="0" y="17">Contar con instalaciones apropiadas para la especie </tspan><tspan x="0" y="39">producida.</tspan></text>
    <text id="Raciones_acordes_con_necesidades_de_especie." data-name="Raciones acordes con necesidades de especie." transform="translate(-6986 -2854.5)" fill="#12263f" font-size="16" font-family="Roboto-Bold, Roboto" font-weight="700"><tspan x="0" y="17">Raciones acordes con necesidades de especie.</tspan></text>
    <text id="Plan_de_saneamiento:_limpieza_e_higiene_del_sistema." data-name="Plan de saneamiento: limpieza e higiene del sistema." transform="translate(-7564 -2764.5)" fill="#12263f" font-size="16" font-family="Roboto-Bold, Roboto" font-weight="700"><tspan x="0" y="17">Plan de saneamiento: limpieza e higiene del sistema.</tspan></text>
    <text id="Trazabilidad:_contar_con_documentación_de_procesos." data-name="Trazabilidad: contar con documentación de procesos." transform="translate(-6986 -2764.5)" fill="#12263f" font-size="16" font-family="Roboto-Bold, Roboto" font-weight="700"><tspan x="0" y="17">Trazabilidad: contar con documentación de procesos.</tspan></text>
    <text id="Sanidad_animal:_manejo_médico_quirúrgico_y_prevención_de_enfermedades." data-name="Sanidad animal: manejo médico quirúrgico y prevención de enfermedades." transform="translate(-7564 -2685.5)" fill="#12263f" font-size="16" font-family="Roboto-Bold, Roboto" font-weight="700"><tspan x="0" y="17">Sanidad animal: manejo médico quirúrgico y prevención </tspan><tspan x="0" y="39">de enfermedades.</tspan></text>
    <text id="Bienestar_animal:_protección_y_cuidado_de_los_animales." data-name="Bienestar animal: protección y cuidado de los animales." transform="translate(-6986 -2674.5)" fill="#12263f" font-size="16" font-family="Roboto-Bold, Roboto" font-weight="700"><tspan x="0" y="17">Bienestar animal: protección y cuidado de los animales.</tspan></text>
    <line id="Línea_208" data-name="Línea 208" x2="526.5" transform="translate(-7638.5 -2981)" fill="none" stroke="#afafaf" stroke-width="2"/>
    <line id="Línea_219" data-name="Línea 219" x2="526.5" transform="translate(-7060.5 -2981)" fill="none" stroke="#afafaf" stroke-width="2"/>
    <line id="Línea_212" data-name="Línea 212" x2="526.5" transform="translate(-7638.5 -2620.5)" fill="none" stroke="#afafaf" stroke-width="2"/>
    <line id="Línea_215" data-name="Línea 215" x2="526.5" transform="translate(-7060.5 -2620.5)" fill="none" stroke="#afafaf" stroke-width="2"/>
    <line id="Línea_209" data-name="Línea 209" x2="526.5" transform="translate(-7638.5 -2890.5)" fill="none" stroke="#afafaf" stroke-width="2"/>
    <line id="Línea_218" data-name="Línea 218" x2="526.5" transform="translate(-7060.5 -2890.5)" fill="none" stroke="#afafaf" stroke-width="2"/>
    <line id="Línea_213" data-name="Línea 213" x2="526.5" transform="translate(-7638.5 -2524.5)" fill="none" stroke="#afafaf" stroke-width="2"/>
    <line id="Línea_214" data-name="Línea 214" x2="526.5" transform="translate(-7060.5 -2524.5)" fill="none" stroke="#afafaf" stroke-width="2"/>
    <line id="Línea_210" data-name="Línea 210" x2="526.5" transform="translate(-7638.5 -2800.5)" fill="none" stroke="#afafaf" stroke-width="2"/>
    <line id="Línea_216" data-name="Línea 216" x2="526.5" transform="translate(-7060.5 -2800.5)" fill="none" stroke="#afafaf" stroke-width="2"/>
    <line id="Línea_211" data-name="Línea 211" x2="526.5" transform="translate(-7638.5 -2710.5)" fill="none" stroke="#afafaf" stroke-width="2"/>
    <line id="Línea_217" data-name="Línea 217" x2="526.5" transform="translate(-7060.5 -2710.5)" fill="none" stroke="#afafaf" stroke-width="2"/>
    <circle id="Elipse_4940" data-name="Elipse 4940" cx="30" cy="30" r="30" transform="translate(-7652 -2965.5)" fill="#3c6d9d"/>
    <circle id="Elipse_4949" data-name="Elipse 4949" cx="30" cy="30" r="30" transform="translate(-7074 -2965.5)" fill="#3c6d9d"/>
    <circle id="Elipse_4944" data-name="Elipse 4944" cx="30" cy="30" r="30" transform="translate(-7652 -2599.5)" fill="#3c6d9d"/>
    <circle id="Elipse_4945" data-name="Elipse 4945" cx="30" cy="30" r="30" transform="translate(-7074 -2599.5)" fill="#3c6d9d"/>
    <circle id="Elipse_4941" data-name="Elipse 4941" cx="30" cy="30" r="30" transform="translate(-7652 -2875.5)" fill="#3c6d9d"/>
    <circle id="Elipse_4947" data-name="Elipse 4947" cx="30" cy="30" r="30" transform="translate(-7074 -2875.5)" fill="#3c6d9d"/>
    <circle id="Elipse_4942" data-name="Elipse 4942" cx="30" cy="30" r="30" transform="translate(-7652 -2785.5)" fill="#3c6d9d"/>
    <circle id="Elipse_4948" data-name="Elipse 4948" cx="30" cy="30" r="30" transform="translate(-7074 -2785.5)" fill="#3c6d9d"/>
    <circle id="Elipse_4943" data-name="Elipse 4943" cx="30" cy="30" r="30" transform="translate(-7652 -2695.5)" fill="#3c6d9d"/>
    <circle id="Elipse_4946" data-name="Elipse 4946" cx="30" cy="30" r="30" transform="translate(-7074 -2695.5)" fill="#3c6d9d"/>
    <g id="Grupo_107561" data-name="Grupo 107561" transform="translate(-7643 -2955.5)">
      <path id="Trazado_152578" data-name="Trazado 152578" d="M151.577,104.422a.833.833,0,0,0,1.178,0l3-3a.833.833,0,0,0-1.179-1.179l-2.411,2.411-.744-.744a.833.833,0,1,0-1.179,1.179Z" transform="translate(-137.499 -92.999)" fill="#fff"/>
      <path id="Trazado_152579" data-name="Trazado 152579" d="M151.577,164.422a.833.833,0,0,0,1.178,0l3-3a.833.833,0,0,0-1.179-1.179l-2.411,2.411-.744-.744a.833.833,0,1,0-1.179,1.179Z" transform="translate(-137.499 -147.999)" fill="#fff"/>
      <path id="Trazado_152580" data-name="Trazado 152580" d="M151.577,224.422a.833.833,0,0,0,1.178,0l3-3a.833.833,0,0,0-1.179-1.179l-2.411,2.411-.744-.744a.833.833,0,0,0-1.179,1.179Z" transform="translate(-137.499 -202.999)" fill="#fff"/>
      <path id="Trazado_152581" data-name="Trazado 152581" d="M151.577,284.422a.833.833,0,0,0,1.178,0l3-3a.833.833,0,0,0-1.179-1.179l-2.411,2.411-.744-.744a.833.833,0,0,0-1.179,1.179Z" transform="translate(-137.499 -257.999)" fill="#fff"/>
      <path id="Trazado_152582" data-name="Trazado 152582" d="M226.833,137.667h10a.833.833,0,0,0,0-1.667h-10a.833.833,0,1,0,0,1.667Z" transform="translate(-207.167 -126)" fill="#fff"/>
      <path id="Trazado_152583" data-name="Trazado 152583" d="M226.833,197.667h10a.833.833,0,1,0,0-1.667h-10a.833.833,0,1,0,0,1.667Z" transform="translate(-207.167 -181)" fill="#fff"/>
      <path id="Trazado_152584" data-name="Trazado 152584" d="M226.833,257.667h10a.833.833,0,0,0,0-1.667h-10a.833.833,0,0,0,0,1.667Z" transform="translate(-207.167 -236)" fill="#fff"/>
      <path id="Trazado_152585" data-name="Trazado 152585" d="M226.833,317.667h10a.833.833,0,0,0,0-1.667h-10a.833.833,0,0,0,0,1.667Z" transform="translate(-207.167 -291)" fill="#fff"/>
      <circle id="Elipse_4852" data-name="Elipse 4852" cx="0.833" cy="0.833" r="0.833" transform="translate(20.5 38.333)" fill="#fff"/>
      <path id="Trazado_152586" data-name="Trazado 152586" d="M41.833,51h-2.5V33.5a2.5,2.5,0,0,0-2.5-2.5h-3V23.5a.836.836,0,0,0-.244-.589l-6.667-6.667A.843.843,0,0,0,26.333,16H9.667a.833.833,0,0,0-.833.833V31h-3a2.5,2.5,0,0,0-2.5,2.5V51H.833A.833.833,0,0,0,0,51.833,4.171,4.171,0,0,0,4.167,56H17.583a.833.833,0,1,0,0-1.667H4.167A2.5,2.5,0,0,1,1.81,52.666H40.857A2.5,2.5,0,0,1,38.5,54.333H25.083a.833.833,0,1,0,0,1.667H38.5a4.171,4.171,0,0,0,4.167-4.167A.833.833,0,0,0,41.833,51ZM27.167,18.845l3.822,3.821H27.167ZM10.5,17.667h15V23.5a.833.833,0,0,0,.833.833h5.833V47.667H10.5ZM5,33.5a.834.834,0,0,1,.833-.833h3V48.5a.833.833,0,0,0,.833.833H33a.833.833,0,0,0,.833-.833V32.667h3a.834.834,0,0,1,.833.833V51H5Z" transform="translate(0 -16)" fill="#fff"/>
    </g>
    <g id="_000000ff" data-name="#000000ff" transform="translate(-7644 -2589.5)">
      <path id="Trazado_184795" data-name="Trazado 184795" d="M10.049,32.624a12.2,12.2,0,0,1,7.589-9.136.643.643,0,0,1,.753.861c-.122.3-.457.409-.7.585a7.893,7.893,0,0,0-3.322,4.69,7.805,7.805,0,0,0,.434,5.054,13.168,13.168,0,0,1,14.455.009,7.911,7.911,0,0,0-3.11-9.881c-.239-.136-.514-.308-.538-.612a.645.645,0,0,1,.877-.68A12.2,12.2,0,0,1,33.4,39.194a12.424,12.424,0,0,1,2.568.621.643.643,0,0,1,.432.72.613.613,0,0,1-.767.5A14.1,14.1,0,0,0,32.42,40.4a.646.646,0,0,1-.532-.94,10.988,10.988,0,0,0-1.4-11.478,9.3,9.3,0,0,1,.643,4.65,9.187,9.187,0,0,1-8.466,8.055c0,.574,0,1.147,0,1.72a3.368,3.368,0,0,1,2.527,4.376L27.3,47.987a9.238,9.238,0,0,1,6.681-3.348,9.124,9.124,0,0,1,5.626,1.616,9.377,9.377,0,0,1,3.038,3.524,10.943,10.943,0,0,0-4.407-7.318.724.724,0,0,1-.391-.723.644.644,0,0,1,.919-.473,12.216,12.216,0,0,1,5.275,9.8v.678a13.267,13.267,0,0,1-.442,2.785c-.077.248-.117.543-.345.7a.647.647,0,0,1-.915-.161,1.023,1.023,0,0,1-.089-.69,7.885,7.885,0,0,0-7.057-8.424,13.057,13.057,0,0,1-1.332,5.5.646.646,0,0,1-1.029.115.682.682,0,0,1-.069-.8A11.8,11.8,0,0,0,33.9,45.933a8.556,8.556,0,0,0-1.3.192,10.641,10.641,0,0,1-2.563,6.482,10.774,10.774,0,0,1-3.418,2.63,12.461,12.461,0,0,0,.325,1.256,11.663,11.663,0,0,0,3.922-2.882c.2-.213.376-.519.7-.557a.647.647,0,0,1,.735.646c0,.287-.225.487-.4.689a13.427,13.427,0,0,1-4.4,3.284,7.886,7.886,0,0,0,7.68,3.985.65.65,0,0,1,.75.644.637.637,0,0,1-.414.59,12.17,12.17,0,0,1-9.86-1.129,12.441,12.441,0,0,1-3.642-3.306,12.183,12.183,0,0,1-13.5,4.437A.645.645,0,0,1,8.3,61.828a.831.831,0,0,1,.722-.16,7.841,7.841,0,0,0,4.925-1.241,8.036,8.036,0,0,0,2.585-2.753,13.26,13.26,0,0,1-5.555-4.8,13.112,13.112,0,0,1-2.131-6.916,7.864,7.864,0,0,0-4.77,2.267,7.973,7.973,0,0,0-2.287,4.915c-.074.526-.009,1.058-.051,1.584a.647.647,0,0,1-1.184.141A11.653,11.653,0,0,1,0,51.755v-.994c.019-.223.042-.444.06-.666a12.207,12.207,0,0,1,10.579-10.9A12.088,12.088,0,0,1,9.878,35.8a.643.643,0,1,1,1.282-.092,10.828,10.828,0,0,0,.926,3.588.839.839,0,0,1,.094.7.684.684,0,0,1-.652.412A10.884,10.884,0,0,0,1.393,49.787a9.322,9.322,0,0,1,4.285-4.258A9.177,9.177,0,0,1,16.74,47.986q1.053-.6,2.106-1.207A3.367,3.367,0,0,1,21.374,42.4c0-.574,0-1.147,0-1.72A9.187,9.187,0,0,1,13.517,28.06a10.9,10.9,0,0,0-2.176,4.652.685.685,0,0,1-.5.591.642.642,0,0,1-.788-.68m5.374,3.192a10.88,10.88,0,0,0,.781,1.017,10.748,10.748,0,0,1,4.27-1.621,10.575,10.575,0,0,1,7.37,1.635,8.737,8.737,0,0,0,.792-1.019,11.856,11.856,0,0,0-13.213-.012M17.2,37.743a7.851,7.851,0,0,0,9.662.012,9.3,9.3,0,0,0-9.662-.012m4.345,5.948a2.058,2.058,0,1,0,2.5,1.654,2.07,2.07,0,0,0-2.5-1.654M10.14,45.934A11.826,11.826,0,0,0,17.073,56.5a8.372,8.372,0,0,0,.342-1.264,10.764,10.764,0,0,1-3.54-2.775.643.643,0,1,1,1-.815,9.6,9.6,0,0,0,2.671,2.2,8,8,0,0,0-4.787-7.282,9.167,9.167,0,0,0,.606,2.527.679.679,0,0,1-.544,1.062.646.646,0,0,1-.592-.425,10.577,10.577,0,0,1-.791-3.605,8.207,8.207,0,0,0-1.294-.192M26.5,53.849a9.35,9.35,0,0,0,4.783-7.282A8,8,0,0,0,26.5,53.849m-9.006-4.806a9.213,9.213,0,0,1,.9,7.586A9.313,9.313,0,0,1,13.7,62.063a10.83,10.83,0,0,0,7.68-4.963.726.726,0,0,1,.724-.438c.308.026.48.3.625.541a10.737,10.737,0,0,0,7.589,4.843,9.177,9.177,0,0,1-3.769-13c-.632-.365-1.267-.724-1.9-1.09-.11-.12-.191.04-.266.1a3.33,3.33,0,0,1-3.143.893,3.492,3.492,0,0,1-1.754-1.055C18.828,48.286,18.157,48.657,17.493,49.044Z" transform="translate(0 -23.46)" fill="#fff"/>
    </g>
    <g id="_000000ff-2" data-name="#000000ff" transform="translate(-7065 -2865.5)">
      <path id="Trazado_184796" data-name="Trazado 184796" d="M5.7,17.7A1.263,1.263,0,0,1,7.276,17c.451.165.7.607,1.009.939a28.834,28.834,0,0,0,2.93,2.93.628.628,0,0,1-.019.98.662.662,0,0,1-.874-.093,31.818,31.818,0,0,1-3.439-3.524,17.7,17.7,0,0,0,1.331,4.215,13.5,13.5,0,0,0,4.044,5.107c.4-.532.825-1.043,1.234-1.567a6.584,6.584,0,0,1,1.783-1.724,13.865,13.865,0,0,1-2.223-.808.624.624,0,0,1,.534-1.129,12.058,12.058,0,0,0,5.239,1.118c1.925,0,3.849,0,5.774,0a12.033,12.033,0,0,0,7.953-3.406q1.315-1.287,2.507-2.691a1.225,1.225,0,0,1,1.579-.231,1.2,1.2,0,0,1,.564,1.241,16.747,16.747,0,0,1-4.831,9.337c1.531-.271,2.94-.97,4.432-1.377a2.579,2.579,0,0,1,2.511.9q1.522,1.919,3.037,3.843a2.308,2.308,0,0,1,.484,1.16v.359a2.159,2.159,0,0,1-1.194,1.727c-.876.4-1.7.909-2.606,1.237a8.277,8.277,0,0,1-5.988-.1,21.146,21.146,0,0,1-1.094,4.236c-.253.786-.489,1.576-.75,2.359a.624.624,0,1,1-1.177-.417c.317-1.025.645-2.045.966-3.069a17.2,17.2,0,0,0,.752-2.814A9.4,9.4,0,0,0,29.814,28.6q-.94-1.191-1.888-2.376A4.222,4.222,0,0,0,24.674,24.7q-3.259-.005-6.518,0A4.22,4.22,0,0,0,14.87,26.27c-.671.846-1.349,1.685-2.009,2.538a9.383,9.383,0,0,0-1.477,8.28c.973,3.116,1.966,6.227,2.943,9.342a3.526,3.526,0,0,1,4.026-1.184,8.252,8.252,0,0,0,5.178.31,11.392,11.392,0,0,1,1.813-.512A3.531,3.531,0,0,1,28.5,46.432c.208-.654.407-1.311.622-1.962a.624.624,0,0,1,1.193.366c-.337,1.129-.727,2.245-1.05,3.378.167.679.395,1.344.584,2.018a4.63,4.63,0,0,1,.353,2.084,2.553,2.553,0,0,1-2.268,2.112,3.856,3.856,0,0,1-1.132-.112,5.236,5.236,0,0,1-2.82,2.174,7.812,7.812,0,0,1-5.275-.051,5.165,5.165,0,0,1-2.684-2.124,3.209,3.209,0,0,1-1.527.048,2.561,2.561,0,0,1-1.9-2.219,3.811,3.811,0,0,1,.261-1.527c.228-.8.492-1.6.7-2.4-1.072-3.489-2.2-6.966-3.286-10.45a11.3,11.3,0,0,1-.49-2.322,8.3,8.3,0,0,1-5.49.269,14.585,14.585,0,0,1-2.481-1.106,4.417,4.417,0,0,1-1.161-.673A2.206,2.206,0,0,1,0,32.595v-.37A2.244,2.244,0,0,1,.452,31.1q1.511-1.921,3.028-3.837a2.584,2.584,0,0,1,1.477-.94,3.122,3.122,0,0,1,1.893.248,27.634,27.634,0,0,0,3.614,1.12,16.556,16.556,0,0,1-4.7-8.673A2.286,2.286,0,0,1,5.7,17.7m27.441,3.51a13.211,13.211,0,0,1-5.578,3.051,5.886,5.886,0,0,1,1.407,1.259q.812,1.015,1.617,2.036a13.019,13.019,0,0,0,1.754-1.626,15.789,15.789,0,0,0,3.611-7.7,38.724,38.724,0,0,1-2.811,2.977M4.487,28.017q-.769.965-1.529,1.938a5.945,5.945,0,0,1,1.473-1.07,4.532,4.532,0,0,1,2.881-.046c1.176.286,2.331.664,3.524.874q.173-.341.363-.673c-1.871-.092-3.57-.944-5.336-1.472a1.315,1.315,0,0,0-1.376.448m27.146,1.024c.125.222.247.445.362.673,1.211-.212,2.38-.6,3.572-.886a4.429,4.429,0,0,1,2.889.084,6.211,6.211,0,0,1,1.408,1.035c-.422-.551-.86-1.089-1.286-1.637a2.44,2.44,0,0,0-.539-.57,1.319,1.319,0,0,0-1.14-.152,21.992,21.992,0,0,1-5.267,1.454m-26.593.965a2.994,2.994,0,0,0-1,.674c-.863.764-1.736,1.517-2.6,2.285a4.28,4.28,0,0,0,.859.482A10.324,10.324,0,0,0,5.6,34.712,6.79,6.79,0,0,0,9.733,34.1a11.374,11.374,0,0,1,.6-3.2c-1.118-.208-2.2-.56-3.3-.837a3.524,3.524,0,0,0-2-.052m30.431.135c-.986.278-1.975.549-2.976.77a10.78,10.78,0,0,1,.6,3.179,7.42,7.42,0,0,0,1.777.6,7.146,7.146,0,0,0,4.2-.523c.715-.289,1.371-.7,2.071-1.023a2.188,2.188,0,0,0,.244-.177c-.784-.708-1.587-1.4-2.378-2.1a3.7,3.7,0,0,0-1.289-.889,4.181,4.181,0,0,0-2.248.158m-18.875,16.2a2.253,2.253,0,0,0-1.608,1.533c-.36,1.2-.712,2.4-1.069,3.6a1.288,1.288,0,0,0,1.552,1.663,29.108,29.108,0,0,1,11.555-.067,2,2,0,0,0,1.065.049,1.287,1.287,0,0,0,.844-1.569q-.538-1.841-1.089-3.679a2.248,2.248,0,0,0-2.076-1.6,5.886,5.886,0,0,0-1.758.445,9.449,9.449,0,0,1-5.944-.252,2.338,2.338,0,0,0-1.471-.131m.791,7.738a5.38,5.38,0,0,0,4.031,1.585,5.374,5.374,0,0,0,4.029-1.585A27.828,27.828,0,0,0,17.386,54.084Z" transform="translate(0 -16.924)" fill="#fff"/>
      <path id="Trazado_184797" data-name="Trazado 184797" d="M148.9,228.32a2.61,2.61,0,0,1,2.8,2.035c.07.356.165.827-.171,1.082a.625.625,0,0,1-1-.4,1.516,1.516,0,0,0-.505-1.158,1.908,1.908,0,0,0-1.131-.379A.631.631,0,0,1,148.9,228.32Z" transform="translate(-136.065 -210.614)" fill="#fff"/>
      <path id="Trazado_184798" data-name="Trazado 184798" d="M326.535,228.18c.34-.065.785-.1.995.238a.63.63,0,0,1-.533.971,1.414,1.414,0,0,0-1.39,1.323.677.677,0,0,1-.384.661.629.629,0,0,1-.869-.491A2.665,2.665,0,0,1,326.535,228.18Z" transform="translate(-297.215 -210.468)" fill="#fff"/>
      <path id="Trazado_184799" data-name="Trazado 184799" d="M209.18,395.288a.664.664,0,1,1-.318,1.071A.668.668,0,0,1,209.18,395.288Z" transform="translate(-191.243 -363.606)" fill="#fff"/>
      <path id="Trazado_184800" data-name="Trazado 184800" d="M288.014,395.273a.664.664,0,1,1-.282,1.127A.668.668,0,0,1,288.014,395.273Z" transform="translate(-263.471 -363.597)" fill="#fff"/>
    </g>
    <g id="_000000ff-3" data-name="#000000ff" transform="translate(-7058 -2687.5)">
      <path id="Trazado_184801" data-name="Trazado 184801" d="M106.565,0h.785a10.272,10.272,0,0,1,9.8,8.673,18.482,18.482,0,0,1,.124,2.926c0,3.925,0,7.85,0,11.776a10.283,10.283,0,0,1-1.54,5.347c.921.473,1.854.926,2.768,1.412a5,5,0,0,1,2.535,4.326c0,2.924.006,5.849,0,8.773a.632.632,0,0,1-.845.576.615.615,0,0,1-.436-.662q0-3.871,0-7.742a8.308,8.308,0,0,0-.087-1.711,3.7,3.7,0,0,0-1.37-2.16,7.361,7.361,0,0,0-1.265-.7c-.878-.425-1.748-.869-2.624-1.3q0,2.2,0,4.4a2.748,2.748,0,0,1,2.065,2.675q0,2.969,0,5.938A1.514,1.514,0,0,1,115.166,44h-.233a.66.66,0,0,1-.319-1.109c.155-.206.615-.094.573-.437q0-2.224,0-4.446c-.948,0-1.9,0-2.843,0q-.015,2.225,0,4.451c.008.287.4.166.56.314a.646.646,0,0,1-.118,1.13,1.443,1.443,0,0,1-1.727-1.366c-.009-2,0-4,0-6a2.745,2.745,0,0,1,2.066-2.6c0-1.678,0-3.356,0-5.034q-.22-.111-.437-.228c-.889,2.457-1.682,4.95-2.564,7.41a.649.649,0,0,1-1.207-.327c.088-.43.272-.833.4-1.251-1.513,0-3.025,0-4.537,0,.752,2.227,1.5,4.457,2.268,6.676.263-.749.513-1.5.767-2.252a.691.691,0,0,1,.467-.545c.455-.132.993.328.8.805-.445,1.345-.913,2.683-1.361,4.027a.835.835,0,0,1-.337.525.649.649,0,0,1-.944-.332q-2.507-7.364-5-14.737c-.162.076-.323.156-.484.236q0,4.534,0,9.069a2.19,2.19,0,0,1,1.494,1.9,2.141,2.141,0,1,1-4.128-.629,2.227,2.227,0,0,1,1.349-1.268q0-4.226,0-8.452-1.659.829-3.316,1.658a3.709,3.709,0,0,0-1.96,2.6,6.443,6.443,0,0,0-.069,1.28q0,4.042,0,8.086a.619.619,0,0,1-.436.667.632.632,0,0,1-.846-.573c-.01-2.867,0-5.735,0-8.6a5.016,5.016,0,0,1,2.6-4.535c.9-.464,1.806-.911,2.706-1.373a10.423,10.423,0,0,1-1.548-5.778q0-6.017,0-12.034c0-.489-.008-.979.032-1.467A10.12,10.12,0,0,1,98.562,4.5a.639.639,0,0,1,.926-.116.657.657,0,0,1,.1.889A8.95,8.95,0,0,0,98.182,8.92a16.814,16.814,0,0,0-.1,2.514V22.6a15.179,15.179,0,0,0,.052,1.642,8.844,8.844,0,0,0,1.365,3.89l.041.011c1.073-.518,2.134-1.058,3.2-1.588.361-.192.8-.479.768-.944,0-1.482,0-2.965,0-4.447a7.334,7.334,0,0,1-3.747-6c-.026-1.105,0-2.211-.005-3.316a.646.646,0,0,1,.663-.68,5.435,5.435,0,0,0,3-.868,7,7,0,0,0,2.6-3.587,1.09,1.09,0,0,1,.6-.709,1.077,1.077,0,0,1,1.431.545,7.854,7.854,0,0,0,1.664,2.636,7.724,7.724,0,0,0,3.849,2.1,1.074,1.074,0,0,1,.645.289c.193.22.142.533.15.8-.019,1.036.035,2.075-.038,3.108a7.36,7.36,0,0,1-3.725,5.686q0,2.224,0,4.446c-.03.429.37.7.692.895,1.076.573,2.185,1.082,3.264,1.65a8.934,8.934,0,0,0,1.444-5.218q0-6.142,0-12.285a10.95,10.95,0,0,0-.1-1.719,8.955,8.955,0,0,0-14.02-6.015.663.663,0,0,1-.86,0,.641.641,0,0,1,.047-1A10.309,10.309,0,0,1,106.565,0m-1.584,10.661a6.6,6.6,0,0,1-3.946,1.767c.013.981-.038,1.965.025,2.944a6.019,6.019,0,0,0,11.753,1.142,14.747,14.747,0,0,0,.251-4.025,10.175,10.175,0,0,1-1.621-.567,8.692,8.692,0,0,1-4.358-4.359,8.9,8.9,0,0,1-2.1,3.1m-.188,11.067c0,1.324,0,2.649,0,3.975a1.876,1.876,0,0,1-.318,1.033,4.447,4.447,0,0,1-1.879,1.335c.585,1.713,1.152,3.431,1.75,5.14,1.808-.012,3.616,0,5.424-.008.568-1.7,1.163-3.395,1.728-5.1-.339-.263-.791-.4-1.139-.668a2.171,2.171,0,0,1-1.043-1.679c-.013-1.343,0-2.686-.006-4.029a7.431,7.431,0,0,1-4.513,0m8.263,13.607a1.542,1.542,0,0,0-.72,1.388q1.428,0,2.858,0a1.524,1.524,0,0,0-.371-1.105,1.423,1.423,0,0,0-1.767-.282m-13.041,3.884a.855.855,0,1,0,1.112.549A.857.857,0,0,0,100.015,39.219Z" transform="translate(-93.033)" fill="#fff"/>
      <path id="Trazado_184802" data-name="Trazado 184802" d="M230.91,199.556a.6.6,0,0,1,.763.089,1.558,1.558,0,0,0,1.663.339c.284-.091.468-.339.723-.476a.645.645,0,0,1,.889.594c.009.354-.308.575-.56.765a2.821,2.821,0,0,1-3.7-.409A.634.634,0,0,1,230.91,199.556Z" transform="translate(-218.759 -182.314)" fill="#fff"/>
    </g>
    <g id="_000000ff-4" data-name="#000000ff" transform="translate(-7641 -2864.5)">
      <path id="Trazado_184803" data-name="Trazado 184803" d="M38.545,15.9a3.071,3.071,0,0,1,1.837.342q5.406,2.8,10.814,5.6a3.125,3.125,0,0,1,1.138.983q2.4,3.338,4.791,6.68a2.185,2.185,0,0,1-.384,3.079c-.812.591-1.633,1.17-2.448,1.758q0,6.259,0,12.519H53.18q0-6.225,0-12.45a.423.423,0,0,0-.09-.306q-2.56-3.567-5.115-7.138a1.469,1.469,0,0,0-.579-.386q-4.232-2.185-8.463-4.374-4.408,2.285-8.819,4.564c-.2.1-.294.312-.424.48q-2.458,3.433-4.919,6.863a.4.4,0,0,0-.085.3c0,.95.006,1.9,0,2.851a.555.555,0,1,1-1.108,0c-.007-.975,0-1.951,0-2.927-.83-.6-1.669-1.188-2.494-1.794a2.147,2.147,0,0,1-.444-2.883q2.443-3.419,4.894-6.83a3.2,3.2,0,0,1,1.256-1.047q5.218-2.7,10.431-5.4a3.72,3.72,0,0,1,1.329-.484m-.459,1.29q-5.45,2.817-10.9,5.637a2.01,2.01,0,0,0-.758.656Q24,26.874,21.569,30.265a1.027,1.027,0,0,0,.218,1.41c.732.539,1.48,1.058,2.214,1.6q2.452-3.413,4.9-6.829a1.592,1.592,0,0,1,.533-.578q4.464-2.3,8.922-4.615a1.19,1.19,0,0,1,.662-.223,2.836,2.836,0,0,1,.6.269q4.4,2.286,8.814,4.562a.906.906,0,0,1,.338.3q2.547,3.56,5.1,7.118c.678-.481,1.349-.972,2.029-1.45a1.336,1.336,0,0,0,.494-.526,1.055,1.055,0,0,0-.127-1.086L51.44,23.481a2.031,2.031,0,0,0-.769-.664Q45.246,20.01,39.82,17.2A1.887,1.887,0,0,0,38.086,17.186Z" transform="translate(-20.266 -15.871)" fill="#fff"/>
      <path id="Trazado_184804" data-name="Trazado 184804" d="M211.988,155.717a3.721,3.721,0,0,1,4.475,3.431c.022.581,0,1.162.01,1.743a2.757,2.757,0,0,1-.129,1.14,1.6,1.6,0,0,1-1.457.967c-1.449,0-2.9.006-4.35,0a1.593,1.593,0,0,1-1.506-1.544c0-.8-.018-1.593.011-2.388a3.74,3.74,0,0,1,2.945-3.347m.154,1.106a2.618,2.618,0,0,0-1.994,2.4c-.013.714-.006,1.429,0,2.143a.486.486,0,0,0,.537.516c1.4,0,2.806,0,4.207,0a.476.476,0,0,0,.469-.511c.006-.659,0-1.319,0-1.978a2.611,2.611,0,0,0-3.216-2.57Z" transform="translate(-194.083 -144.575)" fill="#fff"/>
      <path id="Trazado_184805" data-name="Trazado 184805" d="M67.791,276.449a1.9,1.9,0,0,1,1.833-1.853q7.756-.006,15.513,0a1.9,1.9,0,0,1,1.837,1.852q.008,7.274,0,14.548h4.652q0-1.774,0-3.548a.684.684,0,0,1,.137-.491.558.558,0,0,1,.836,0,.8.8,0,0,1,.143.581c-.009,1.346.007,2.691-.008,4.036a.567.567,0,0,1-.632.54q-14.727,0-29.455,0a.576.576,0,0,1-.625-.616q0-6.851,0-13.7a.557.557,0,1,1,1.111,0q.006,6.6,0,13.207h4.651q0-7.273,0-14.547m1.415-.579a.837.837,0,0,0-.306.736q0,7.195,0,14.39h16.96q0-7,0-13.993a3.68,3.68,0,0,0-.032-.724.776.776,0,0,0-.773-.571q-7.483,0-14.967,0A1.342,1.342,0,0,0,69.207,275.869Z" transform="translate(-58.716 -254.112)" fill="#fff"/>
      <path id="Trazado_184806" data-name="Trazado 184806" d="M183.842,303.131a1.308,1.308,0,0,1,.283-.026q5.068,0,10.137,0a.616.616,0,0,1,.563.215.564.564,0,0,1-.1.8q-2.323,1.994-4.65,3.982a6.893,6.893,0,0,1-.608.5.575.575,0,0,1-.682-.1q-2.369-2.032-4.741-4.059a4.6,4.6,0,0,1-.5-.449.568.568,0,0,1,.294-.853m1.664,1.089,3.694,3.162q1.846-1.579,3.691-3.16Q189.2,304.217,185.506,304.22Z" transform="translate(-170.531 -280.366)" fill="#fff"/>
      <path id="Trazado_184807" data-name="Trazado 184807" d="M163.811,323.821a.55.55,0,0,1,.572.122q2.494,2.128,4.982,4.264a.573.573,0,0,1-.025.907q-2.475,2.121-4.951,4.238a.569.569,0,0,1-.8-.017.633.633,0,0,1-.158-.51c0-2.824,0-5.648,0-8.472a.549.549,0,0,1,.375-.532m.736,1.729q0,3.1,0,6.2c1.207-1.035,2.421-2.062,3.621-3.1C166.96,327.616,165.758,326.578,164.547,325.55Z" transform="translate(-152.099 -299.412)" fill="#fff"/>
      <path id="Trazado_184808" data-name="Trazado 184808" d="M276.421,323.83a.563.563,0,0,1,.811.5c.006,2.826,0,5.651,0,8.477a.631.631,0,0,1-.169.517.573.573,0,0,1-.8-.007q-2.47-2.121-4.946-4.236a.565.565,0,0,1-.021-.888q2.025-1.741,4.056-3.474c.359-.293.69-.623,1.067-.893m-3.921,4.8q1.812,1.548,3.622,3.1,0-3.1,0-6.2Q274.312,327.082,272.5,328.631Z" transform="translate(-251.236 -299.393)" fill="#fff"/>
      <path id="Trazado_184809" data-name="Trazado 184809" d="M188.969,397.022a.591.591,0,0,1,.645.148q2.516,2.154,5.033,4.308a.626.626,0,0,1,.283.49.566.566,0,0,1-.606.573q-5.145,0-10.29,0a.57.57,0,0,1-.545-.81,2.265,2.265,0,0,1,.475-.461q2.263-1.936,4.523-3.872a2.942,2.942,0,0,1,.483-.376m-3.478,4.406q3.692,0,7.383,0-1.845-1.582-3.691-3.161Q187.339,399.85,185.492,401.429Z" transform="translate(-170.515 -366.809)" fill="#fff"/>
    </g>
    <g id="_000000ff-5" data-name="#000000ff" transform="translate(-7642 -2685.5)">
      <path id="Trazado_184810" data-name="Trazado 184810" d="M58.1,43.112a6.041,6.041,0,0,1,2.391-.455H72.389a6.005,6.005,0,0,1,6,5.75c.017.749,0,1.5.007,2.248a6.135,6.135,0,0,1,3.792,1.081,6.025,6.025,0,0,1,2.557,4.527q.627,9.994,1.25,19.987a6,6,0,0,1-4.857,6.3,10.732,10.732,0,0,1-2.089.108H52.8a6,6,0,0,1-6.009-6.309q.622-10.033,1.252-20.067a6.013,6.013,0,0,1,2.034-4.129A6.111,6.111,0,0,1,54.4,50.657,17,17,0,0,1,54.55,47.3,6.029,6.029,0,0,1,58.1,43.112M56.72,47.081a9.566,9.566,0,0,0-.325,3.575q1,0,2,0a7.816,7.816,0,0,1,.092-1.733,3.009,3.009,0,0,1,2.839-2.262q5.065-.008,10.131,0a3,3,0,0,1,2.735,1.92,5.583,5.583,0,0,1,.2,2.076q1,0,2,0c0-.688.006-1.377,0-2.065a4,4,0,0,0-4-3.932q-6,0-12,0a4.014,4.014,0,0,0-3.67,2.421m3.734,2.243a6.324,6.324,0,0,0-.059,1.333h12c-.007-.374.017-.749-.013-1.122a1,1,0,0,0-1.016-.876q-4.969-.006-9.94,0a1,1,0,0,0-.971.665M54.4,52.679c.04.511-.124,1.089.178,1.544a1,1,0,0,0,1.544.121c.426-.447.235-1.112.277-1.665h-2m4,0a7.531,7.531,0,0,1-.1,1.719,3,3,0,0,1-5.349.995,3.565,3.565,0,0,1-.554-2.387,4.022,4.022,0,0,0-2.353,3.372q-.629,9.935-1.244,19.87a4.141,4.141,0,0,0,.262,1.873A4.019,4.019,0,0,0,52.8,80.654q13.6,0,27.192,0a4,4,0,0,0,4-4.315q-.606-9.75-1.218-19.5a4.96,4.96,0,0,0-.271-1.569A4.047,4.047,0,0,0,80.394,53a4.3,4.3,0,0,1-.22,1.778,3,3,0,0,1-5.574-.037,5.471,5.471,0,0,1-.205-2.065h-16m18,0c.04.517-.126,1.106.191,1.563a1,1,0,0,0,1.544.088c.412-.449.222-1.1.263-1.651Z" transform="translate(-46.781 -42.657)" fill="#fff"/>
      <path id="Trazado_184811" data-name="Trazado 184811" d="M174.66,215.182a2,2,0,0,1,1.928-1.852q2.063-.008,4.125,0a2,2,0,0,1,1.931,1.851c.021.714,0,1.431.008,2.145.732.01,1.465-.018,2.2.014a2,2,0,0,1,1.8,1.963c0,1.37.008,2.741,0,4.111a2,2,0,0,1-1.812,1.9c-.727.028-1.454,0-2.181.011-.008.706.009,1.411-.008,2.117a2,2,0,0,1-1.3,1.759,3.236,3.236,0,0,1-1.189.126c-1.191-.006-2.384.007-3.575-.006a2,2,0,0,1-1.925-1.963c-.007-.677,0-1.354,0-2.031-.728-.012-1.457.017-2.184-.014a2,2,0,0,1-1.811-1.894c-.011-1.373,0-2.748,0-4.121a2,2,0,0,1,1.8-1.96c.73-.03,1.463,0,2.195-.013.007-.714-.011-1.429.008-2.143m1.993.144c0,1.333,0,2.667,0,4q-2,0-4,0,0,2,0,4c1.333,0,2.667,0,4,0,0,1.333,0,2.666,0,4,1.332,0,2.664,0,4,0q0-2,0-4c1.333,0,2.666,0,4,0,0-1.334,0-2.667,0-4q-2,0-4,0c0-1.333,0-2.667,0-4Z" transform="translate(-159.039 -197.326)" fill="#fff"/>
    </g>
    <g id="_000000ff-6" data-name="#000000ff" transform="translate(-7064 -2954.5)">
      <path id="Trazado_184812" data-name="Trazado 184812" d="M75.6,33.745a1.453,1.453,0,0,1,2.348-.429Q82.224,37.6,86.5,41.88a1.462,1.462,0,0,1,.377,1.518,1.415,1.415,0,0,1-1.094.952,1.45,1.45,0,0,1-1.282-.388c-.387-.378-.764-.767-1.15-1.146q-2.6,2.6-5.194,5.2c1.329,1.339,2.666,2.672,3.994,4.013A1.443,1.443,0,0,1,80.1,54.058c-.374-.367-.74-.741-1.113-1.109q-6.774,6.767-13.543,13.539a8.609,8.609,0,0,1-6.434,2.442,8.718,8.718,0,0,1-4.567-1.574q-2.049,2.059-4.107,4.109a1.441,1.441,0,0,1-2.368-1.547,2.2,2.2,0,0,1,.6-.764c1.283-1.283,2.573-2.559,3.853-3.844a8.6,8.6,0,0,1,.907-11.035q6.748-6.759,13.5-13.514c-.361-.373-.735-.731-1.1-1.1a1.442,1.442,0,0,1,2.04-2.036c1.334,1.332,2.661,2.671,3.994,4q2.6-2.6,5.2-5.209c-.36-.372-.735-.731-1.1-1.1a1.436,1.436,0,0,1-.268-1.57m-1.79,9.923q1.148,1.152,2.3,2.3,2.6-2.595,5.2-5.2-1.147-1.154-2.3-2.3-2.6,2.6-5.2,5.2M55.379,56.309a5.727,5.727,0,0,0-1.59,4.924,5.659,5.659,0,0,0,2.148,3.617A5.822,5.822,0,0,0,60.649,65.9a6.068,6.068,0,0,0,3.286-1.967c-.379-.388-.774-.76-1.145-1.155a1.441,1.441,0,0,1,2.033-2.03c.4.37.766.766,1.154,1.145q1.152-1.15,2.3-2.3c-.378-.388-.774-.76-1.145-1.154A1.441,1.441,0,0,1,69.162,56.4c.4.37.769.768,1.158,1.147q1.152-1.148,2.3-2.3c-.378-.389-.775-.76-1.146-1.156a1.441,1.441,0,0,1,2.032-2.031c.4.37.766.767,1.155,1.145q1.152-1.15,2.3-2.3-4.044-4.047-8.092-8.091Z" transform="translate(-47.871 -32.892)" fill="#fff"/>
    </g>
    <g id="_000000ff-7" data-name="#000000ff" transform="translate(-7642 -2775.5)">
      <path id="Trazado_184813" data-name="Trazado 184813" d="M68.309,32.326a2.076,2.076,0,0,1,1.341-.651,2.285,2.285,0,0,1,2.331,2.338,2.138,2.138,0,0,1-.692,1.379q-3.861,3.861-7.722,7.721h7.595a.716.716,0,0,1,.245,1.41c-.554.043-1.112,0-1.667.018q-1.387,11.072-2.769,22.145a.737.737,0,0,1-.8.7q-7.459,0-14.918,0a.723.723,0,0,1-.713-.7q-.371-2.952-.733-5.9A15.268,15.268,0,0,0,48.3,67.575a10.993,10.993,0,0,0,.543,2.965,1,1,0,0,1,.049.663.731.731,0,0,1-.75.466,19.816,19.816,0,0,1-4.551-.733.722.722,0,0,1-.57-.536,9.753,9.753,0,0,1,.045-3.819q-1.108,1.36-2.216,2.722a.72.72,0,0,1-.791.272A16.039,16.039,0,0,1,32,60.717a.735.735,0,0,1,.612-.868A26.792,26.792,0,0,0,40.728,55.9c1.492-1.007,2.9-2.133,4.433-3.082a6.241,6.241,0,0,1,3.512-1.131l-.9-7.143c-.557-.013-1.115.025-1.67-.018a.726.726,0,0,1-.36-1.2.864.864,0,0,1,.693-.213c3.692.005,7.383,0,11.075,0q5.406-5.386,10.8-10.789m.964,1.054Q59.839,42.819,50.4,52.252a4.213,4.213,0,0,1,1.078.928q9.379-9.371,18.753-18.747a.929.929,0,0,0,.3-.5.752.752,0,0,0-.806-.817.8.8,0,0,0-.457.261M49.213,44.541q.383,3.056.767,6.112,3.056-3.055,6.11-6.111-3.438,0-6.876,0m2.765,10.168a9.73,9.73,0,0,1-1.025,3.584c.286,2.558.625,5.112.938,7.667H65.624Q66.964,55.25,68.3,44.541H62.143q-5.082,5.086-10.165,10.169m-6.2-.589a5.228,5.228,0,0,0,.715,1.631,5.463,5.463,0,0,0,3.05,2.157,13.892,13.892,0,0,0,.941-2.514,1.655,1.655,0,0,0-.273-1.49,2.547,2.547,0,0,0-2.079-.77,6.039,6.039,0,0,0-2.353.986m-7.655,5.047a25.571,25.571,0,0,1-4.455,1.866,15.585,15.585,0,0,0,1.257,2.236q.724-.418,1.422-.881c2.543-1.707,4.946-3.612,7.321-5.541a.711.711,0,0,1,.91,1.092c-1.452,1.2-2.938,2.369-4.444,3.5a50.978,50.978,0,0,1-4.351,2.979,15.3,15.3,0,0,0,1.536,1.618q2.033-2.028,4.06-4.062a.9.9,0,0,1,.51-.307.749.749,0,0,1,.8.827.917.917,0,0,1-.3.491q-1.976,1.972-3.947,3.946a17.648,17.648,0,0,0,1.628,1.053q2.349-2.874,4.69-5.756c.177-.2.325-.481.61-.54a.74.74,0,0,1,.888.8,3.711,3.711,0,0,1-.429.8,10.419,10.419,0,0,0-1.49,6.364,20.925,20.925,0,0,0,2.9.52,12.88,12.88,0,0,1-.381-3.231,18.969,18.969,0,0,1,2.078-7.732A7.3,7.3,0,0,1,46.7,58.042a6.591,6.591,0,0,1-2.158-3.1A61.4,61.4,0,0,1,38.121,59.166Z" transform="translate(-31.983 -31.671)" fill="#fff"/>
      <path id="Trazado_184814" data-name="Trazado 184814" d="M90.041,215.962a.723.723,0,0,1,.8.355c.143.278.005.619.14.9.239.285.668.065.97.222a.741.741,0,0,1,.088,1.241c-.271.187-.619.065-.917.154-.337.183-.14.625-.245.923a.735.735,0,0,1-1.225.225c-.242-.266-.115-.648-.195-.965-.152-.334-.579-.172-.862-.242a.729.729,0,0,1-.29-1.241c.268-.242.655-.114.973-.2.3-.133.182-.506.223-.76A.657.657,0,0,1,90.041,215.962Z" transform="translate(-83.061 -199.5)" fill="#fff"/>
      <path id="Trazado_184815" data-name="Trazado 184815" d="M275.517,216.356a.685.685,0,0,1,.773-.476.7.7,0,0,1,.574.942c-.934,2.362-1.887,4.718-2.826,7.078a.734.734,0,0,1-.69.531c-2.8.009-5.6,0-8.4.005a1.019,1.019,0,0,1-.585-.117.745.745,0,0,1-.013-1.186,1.019,1.019,0,0,1,.6-.129q3.953,0,7.906,0Q274.183,219.678,275.517,216.356Z" transform="translate(-243.351 -199.428)" fill="#fff"/>
      <path id="Trazado_184816" data-name="Trazado 184816" d="M273.979,343.964a.723.723,0,0,1,.8.356c.141.28,0,.623.141.9.226.265.624.078.916.2a.737.737,0,0,1,.194,1.221c-.27.242-.656.1-.973.2-.337.186-.136.629-.245.928a.736.736,0,0,1-1.224.219c-.241-.266-.114-.65-.195-.966-.112-.279-.451-.2-.686-.226a.706.706,0,1,1,0-1.413c.23-.029.559.057.682-.206.068-.243.013-.5.072-.748A.669.669,0,0,1,273.979,343.964Z" transform="translate(-250.58 -316.078)" fill="#fff"/>
    </g>
    <g id="_000000ff-8" data-name="#000000ff" transform="translate(-7061 -2775.5)">
      <path id="Trazado_184817" data-name="Trazado 184817" d="M43.23,0h8.484a1.914,1.914,0,0,1,1.568,1.059,2.286,2.286,0,0,1,.205.952c1.873,0,3.746-.007,5.619,0a3.3,3.3,0,0,1,2.937,2,3.488,3.488,0,0,1,.265,1.449q0,3.625,0,7.25c.4-.87.793-1.747,1.2-2.615a1.639,1.639,0,0,1,1.532-.912,2.846,2.846,0,0,1,1.084.359,2.8,2.8,0,0,1,1.019.613,1.653,1.653,0,0,1,.262,1.813q-2.511,5.5-5.023,10.991a.841.841,0,0,0-.076.391q.008,6.6,0,13.208a3.452,3.452,0,0,1-.3,1.505A3.316,3.316,0,0,1,59.141,40H35.869a3.3,3.3,0,0,1-3.2-3.36q0-15.66,0-31.321a3.3,3.3,0,0,1,3.307-3.307q2.757,0,5.514,0a2.207,2.207,0,0,1,.209-.968A1.939,1.939,0,0,1,43.23,0m-.108,1.226a.713.713,0,0,0-.442.645c-.006.522-.01,1.045,0,1.566a.715.715,0,0,0,.723.67q4.063.007,8.124,0a.723.723,0,0,0,.768-.662c.014-.525.009-1.052,0-1.578a.721.721,0,0,0-.77-.7c-2.659,0-5.316,0-7.975,0a1.231,1.231,0,0,0-.434.055M36.546,3.183V29.919a5.4,5.4,0,0,1-.019.711.584.584,0,0,1-1.152-.159q-.008-13.6,0-27.21a2.145,2.145,0,0,0-1.527,2.052q0,15.469,0,30.938a2.994,2.994,0,0,0,.162,1.268,2.129,2.129,0,0,0,1.973,1.309q7.793,0,15.584,0c.1-.457.208-.912.31-1.369q-7.365.048-14.73.092a1.811,1.811,0,0,1-1.764-1.689c-.012-.992,0-1.984,0-2.976a.592.592,0,0,1,.52-.628.582.582,0,0,1,.645.556c.017.991-.007,1.983.011,2.973a.637.637,0,0,0,.675.593q7.454-.043,14.909-.093c.163-.713.318-1.428.482-2.141a10.75,10.75,0,0,1,.747-1.849q2.435-5.33,4.87-10.66a1.334,1.334,0,0,0,.2-.619c0-3.568,0-7.137,0-10.705a.739.739,0,0,1,.114-.48.587.587,0,0,1,.8-.143.609.609,0,0,1,.263.549q0,4.2,0,8.4c.487-1.056.964-2.117,1.453-3.173a.68.68,0,0,0,.079-.3q0-4.729,0-9.457a2.916,2.916,0,0,0-.145-1.172A2.161,2.161,0,0,0,59.6,3.26c-.005,1.518,0,3.036,0,4.554a.584.584,0,1,1-1.167,0c-.005-1.545,0-3.089,0-4.634H53.48a1.971,1.971,0,0,1-.823,1.762,1.915,1.915,0,0,1-1.124.335q-4.07,0-8.139,0A1.894,1.894,0,0,1,41.9,4.547a2.032,2.032,0,0,1-.4-1.364H36.546m28.019,7.427c-.188.376-.35.766-.53,1.146.6.273,1.2.552,1.807.821.161-.374.343-.739.5-1.113a.463.463,0,0,0-.206-.616c-.315-.159-.639-.3-.962-.441a.461.461,0,0,0-.612.2m-1.018,2.214-.329.723c.6.273,1.2.545,1.8.823.112-.241.223-.482.33-.725-.6-.275-1.2-.554-1.8-.821m-.818,1.791q-4.406,9.654-8.817,19.308c.6.275,1.2.543,1.8.823q4.412-9.654,8.822-19.309c-.6-.275-1.2-.554-1.8-.822m-3.064,14.3a1.42,1.42,0,0,0-.063.618q0,3.048,0,6.1a1.817,1.817,0,0,1-1.656,1.787c-.9.028-1.81.01-2.715.029-.339.463-.683.924-1.023,1.387q2.177,0,4.355,0a3.415,3.415,0,0,0,1.084-.1,2.125,2.125,0,0,0,1.395-1.395,3.47,3.47,0,0,0,.1-1.085q0-5.277,0-10.553c-.491,1.07-.977,2.143-1.47,3.213M56.8,35.188a6.287,6.287,0,0,1-.693,1.073c.559-.008,1.12,0,1.68-.014a.635.635,0,0,0,.642-.622c.01-1.335,0-2.67,0-4.005-.547,1.188-1.085,2.38-1.633,3.569m-3.188-.115c-.277,1.237-.557,2.475-.831,3.713q1.133-1.53,2.263-3.063C54.562,35.509,54.087,35.288,53.609,35.073Z" transform="translate(-32.673)" fill="#fff"/>
    </g>
    <g id="_000000ff-9" data-name="#000000ff" transform="translate(-7083.326 -2589.5)">
      <path id="Trazado_184820" data-name="Trazado 184820" d="M34.222,0h.05a5.672,5.672,0,0,1,1.372.271c.89.3,1.774.618,2.666.912a4.627,4.627,0,0,0,1.51.305A4.193,4.193,0,0,0,41,1.184C41.835.9,42.664.614,43.5.341A7.1,7.1,0,0,1,44.963,0h.555a2.835,2.835,0,0,1,1.374.518,2.688,2.688,0,0,1,1.1,2.137c.006,1.335,0,2.671,0,4.007a4.142,4.142,0,0,1,2.89,1.183,4.28,4.28,0,0,1,1.276,2.462,1.373,1.373,0,0,1-.308,1.176,1.078,1.078,0,0,1-.677.2,2.488,2.488,0,0,1-1.236,3.059A4.016,4.016,0,0,1,48,15a8.415,8.415,0,0,1-2.5,5.945c0,.607,0,1.213,0,1.82q2.759,1.107,5.517,2.214A19.468,19.468,0,0,1,53.4,26.027a9.119,9.119,0,0,1,4.148,5.09,9.212,9.212,0,0,1,.45,2.949c0,1.695,0,3.39,0,5.084a.847.847,0,0,1-.773.849h-.111a.86.86,0,0,1-.78-.932q0-1.956,0-3.913a12.687,12.687,0,0,0-.159-2.727,7.455,7.455,0,0,0-3.255-4.743,10.186,10.186,0,0,0-1.9-.909c-.729-.291-1.456-.587-2.186-.876,0,1.758,0,3.516,0,5.273a.47.47,0,0,0,.1.341c.7.92,1.4,1.837,2.083,2.764a1.225,1.225,0,0,1,.326.8c0,1.354,0,2.708,0,4.061a.865.865,0,0,1-.706.86h-.209a.852.852,0,0,1-.746-.852c-.008-1.228,0-2.456,0-3.684a.474.474,0,0,0-.117-.347q-1.032-1.354-2.051-2.716a1.261,1.261,0,0,1-.332-.755c0-2.138,0-4.277,0-6.416-.557-.216-1.109-.445-1.665-.662,0,2.359,0,4.719,0,7.078a.845.845,0,0,1-.907.853q-4.923,0-9.847,0a.845.845,0,0,1-.908-.852c-.006-2.36,0-4.72,0-7.08-.555.223-1.111.443-1.666.668,0,2.005.013,4.011,0,6.017a1.5,1.5,0,0,1-.21.969c-.683.9-1.358,1.814-2.044,2.716-.116.159-.28.315-.252.53,0,1.173,0,2.346,0,3.52A.9.9,0,0,1,28.926,40H28.72A.859.859,0,0,1,28,39.138q-.012-1.951,0-3.9a1.183,1.183,0,0,1,.161-.723q1.121-1.5,2.246-2.992a.483.483,0,0,0,.1-.346c-.005-1.757,0-3.514,0-5.272-.6.237-1.2.484-1.795.721a12.45,12.45,0,0,0-2.288,1.064A7.449,7.449,0,0,0,23,33.755c-.016,1.8,0,3.594-.009,5.39a.846.846,0,0,1-.774.855h-.109a.845.845,0,0,1-.777-.852c-.007-1.72,0-3.441,0-5.162a9.1,9.1,0,0,1,5.591-8.446c2.3-.929,4.608-1.846,6.909-2.774,0-.608,0-1.216,0-1.823A8.391,8.391,0,0,1,31.325,15a6.49,6.49,0,0,1-1.42-.077,2.5,2.5,0,0,1-1.724-1.5,2.565,2.565,0,0,1-.045-1.745,1.414,1.414,0,0,1-.664-.194.767.767,0,0,1-.305-.621,4.144,4.144,0,0,1,1.35-3.1,4.22,4.22,0,0,1,2.811-1.1c0-1.334,0-2.67,0-4A2.612,2.612,0,0,1,32.391.541,3.123,3.123,0,0,1,34.222,0m-.716,1.806A.933.933,0,0,0,33,2.655c-.006,1.337,0,2.674,0,4.011H46.327c0-1.336.006-2.671,0-4.006a1.014,1.014,0,0,0-.885-.982,4.086,4.086,0,0,0-1.6.3c-.665.229-1.332.452-2,.685a7.615,7.615,0,0,1-1.79.491,5.332,5.332,0,0,1-1.967-.274c-1.08-.333-2.141-.723-3.214-1.077a1.893,1.893,0,0,0-1.37,0M28.964,10q10.7.006,21.391,0a2.547,2.547,0,0,0-1.47-1.5,3,3,0,0,0-1.18-.166q-8.2,0-16.4,0A2.524,2.524,0,0,0,28.964,10m1,1.861A.837.837,0,0,0,29.92,13.1c.378.359.941.2,1.409.227-.005-.553,0-1.106,0-1.66-.452.034-.979-.12-1.363.191m3.029-.191q0,1.079,0,2.159a11.518,11.518,0,0,0,.159,2.619,6.666,6.666,0,0,0,13.173-1.372c0-1.135,0-2.271,0-3.406q-6.668,0-13.334,0m15,0c0,.555,0,1.11,0,1.666.454-.033.982.12,1.366-.195A.838.838,0,0,0,49.4,11.9c-.377-.36-.938-.193-1.4-.231m-12.5,10.543a6.58,6.58,0,0,0,.016.823c.316.393.666.76.992,1.145a4.166,4.166,0,0,0,6.166.161c.393-.427.772-.866,1.158-1.3v-.831a8.3,8.3,0,0,1-8.332,0m0,3.352q0,2.636,0,5.27c2.779,0,5.558.006,8.336,0,0-1.755,0-3.511,0-5.266a5.846,5.846,0,0,1-8.334,0Z" transform="translate(0)" fill="#fff"/>
    </g>
  </g>
</svg>
