<svg xmlns="http://www.w3.org/2000/svg" width="231.667" height="149.256" viewBox="0 0 231.667 149.256">
  <g id="t2-c2" transform="translate(-881 -936)">
    <path id="Trazado_188960" data-name="Trazado 188960" d="M30,0H223.208a38.458,38.458,0,0,1,38.458,38.458v110.8H68.458A38.458,38.458,0,0,1,30,110.8Z" transform="translate(851 936)" fill="#3c6d9d"/>
    <path id="Trazado_145971" data-name="Trazado 145971" d="M7.49,0A7.49,7.49,0,1,1,0,7.49,7.49,7.49,0,0,1,7.49,0Z" transform="translate(912.424 1051.868)" fill="#64b5f6" opacity="0.444" style="mix-blend-mode: multiply;isolation: isolate"/>
    <g id="Grupo_78276" data-name="Grupo 78276" transform="translate(1043.933 1022.385)" opacity="0.32">
      <g id="Grupo_53306" data-name="Grupo 53306" transform="translate(0 0)">
        <path id="Trazado_99200" data-name="Trazado 99200" d="M415.388,50.785a.588.588,0,1,1-.587-.561A.575.575,0,0,1,415.388,50.785Z" transform="translate(-413.756 -49.766)" fill="#fff"/>
        <path id="Trazado_99200_-_Contorno" data-name="Trazado 99200 - Contorno" d="M414.759,49.724a1.02,1.02,0,1,1-1.045,1.019A1.034,1.034,0,0,1,414.759,49.724Z" transform="translate(-413.714 -49.724)" fill="#fff"/>
        <path id="Trazado_99201" data-name="Trazado 99201" d="M423.834,50.785a.588.588,0,1,1-.587-.561A.574.574,0,0,1,423.834,50.785Z" transform="translate(-416.919 -49.766)" fill="#fff"/>
        <path id="Trazado_99201_-_Contorno" data-name="Trazado 99201 - Contorno" d="M423.205,49.724a1.02,1.02,0,1,1-1.045,1.019A1.033,1.033,0,0,1,423.205,49.724Z" transform="translate(-416.877 -49.724)" fill="#fff"/>
        <path id="Trazado_99202" data-name="Trazado 99202" d="M432.28,50.785a.588.588,0,1,1-.587-.561A.575.575,0,0,1,432.28,50.785Z" transform="translate(-420.082 -49.766)" fill="#fff"/>
        <path id="Trazado_99202_-_Contorno" data-name="Trazado 99202 - Contorno" d="M431.651,49.724a1.02,1.02,0,1,1-1.045,1.019A1.033,1.033,0,0,1,431.651,49.724Z" transform="translate(-420.039 -49.724)" fill="#fff"/>
        <path id="Trazado_99203" data-name="Trazado 99203" d="M440.727,50.785a.588.588,0,1,1-.587-.561A.575.575,0,0,1,440.727,50.785Z" transform="translate(-423.245 -49.766)" fill="#fff"/>
        <path id="Trazado_99203_-_Contorno" data-name="Trazado 99203 - Contorno" d="M440.1,49.724a1.02,1.02,0,1,1-1.045,1.019A1.034,1.034,0,0,1,440.1,49.724Z" transform="translate(-423.203 -49.724)" fill="#fff"/>
        <path id="Trazado_99204" data-name="Trazado 99204" d="M449.173,50.785a.588.588,0,1,1-.587-.561A.575.575,0,0,1,449.173,50.785Z" transform="translate(-426.407 -49.766)" fill="#fff"/>
        <path id="Trazado_99204_-_Contorno" data-name="Trazado 99204 - Contorno" d="M448.544,49.724a1.02,1.02,0,1,1-1.045,1.019A1.033,1.033,0,0,1,448.544,49.724Z" transform="translate(-426.365 -49.724)" fill="#fff"/>
        <path id="Trazado_99205" data-name="Trazado 99205" d="M457.619,50.785a.588.588,0,1,1-.587-.561A.574.574,0,0,1,457.619,50.785Z" transform="translate(-429.57 -49.766)" fill="#fff"/>
        <path id="Trazado_99205_-_Contorno" data-name="Trazado 99205 - Contorno" d="M456.99,49.724a1.02,1.02,0,1,1-1.045,1.019A1.033,1.033,0,0,1,456.99,49.724Z" transform="translate(-429.528 -49.724)" fill="#fff"/>
        <path id="Trazado_99206" data-name="Trazado 99206" d="M466.066,50.785a.588.588,0,1,1-.587-.561A.575.575,0,0,1,466.066,50.785Z" transform="translate(-432.733 -49.766)" fill="#fff"/>
        <path id="Trazado_99206_-_Contorno" data-name="Trazado 99206 - Contorno" d="M465.437,49.724a1.02,1.02,0,1,1-1.045,1.019A1.034,1.034,0,0,1,465.437,49.724Z" transform="translate(-432.691 -49.724)" fill="#fff"/>
        <path id="Trazado_99207" data-name="Trazado 99207" d="M474.512,50.785a.588.588,0,1,1-.587-.561A.575.575,0,0,1,474.512,50.785Z" transform="translate(-435.896 -49.766)" fill="#fff"/>
        <path id="Trazado_99207_-_Contorno" data-name="Trazado 99207 - Contorno" d="M473.883,49.724a1.02,1.02,0,1,1-1.045,1.019A1.033,1.033,0,0,1,473.883,49.724Z" transform="translate(-435.854 -49.724)" fill="#fff"/>
        <path id="Trazado_99208" data-name="Trazado 99208" d="M482.958,50.785a.588.588,0,1,1-.587-.561A.575.575,0,0,1,482.958,50.785Z" transform="translate(-439.058 -49.766)" fill="#fff"/>
        <path id="Trazado_99208_-_Contorno" data-name="Trazado 99208 - Contorno" d="M482.329,49.724a1.02,1.02,0,1,1-1.045,1.019A1.033,1.033,0,0,1,482.329,49.724Z" transform="translate(-439.016 -49.724)" fill="#fff"/>
        <path id="Trazado_99209" data-name="Trazado 99209" d="M491.405,50.785a.588.588,0,1,1-.587-.561A.575.575,0,0,1,491.405,50.785Z" transform="translate(-442.222 -49.766)" fill="#fff"/>
        <path id="Trazado_99209_-_Contorno" data-name="Trazado 99209 - Contorno" d="M490.776,49.724a1.02,1.02,0,1,1-1.045,1.019A1.034,1.034,0,0,1,490.776,49.724Z" transform="translate(-442.179 -49.724)" fill="#fff"/>
        <path id="Trazado_99210" data-name="Trazado 99210" d="M499.851,50.785a.588.588,0,1,1-.587-.561A.575.575,0,0,1,499.851,50.785Z" transform="translate(-445.384 -49.766)" fill="#fff"/>
        <path id="Trazado_99210_-_Contorno" data-name="Trazado 99210 - Contorno" d="M499.222,49.724a1.02,1.02,0,1,1-1.045,1.019A1.034,1.034,0,0,1,499.222,49.724Z" transform="translate(-445.342 -49.724)" fill="#fff"/>
      </g>
      <g id="Grupo_53307" data-name="Grupo 53307" transform="translate(0 4.491)">
        <path id="Trazado_99211" data-name="Trazado 99211" d="M415.388,58.293a.588.588,0,1,1-.587-.561A.575.575,0,0,1,415.388,58.293Z" transform="translate(-413.756 -57.274)" fill="#fff"/>
        <path id="Trazado_99211_-_Contorno" data-name="Trazado 99211 - Contorno" d="M414.759,57.232a1.02,1.02,0,1,1-1.045,1.019A1.034,1.034,0,0,1,414.759,57.232Z" transform="translate(-413.714 -57.232)" fill="#fff"/>
        <path id="Trazado_99212" data-name="Trazado 99212" d="M423.834,58.293a.588.588,0,1,1-.587-.561A.574.574,0,0,1,423.834,58.293Z" transform="translate(-416.919 -57.274)" fill="#fff"/>
        <path id="Trazado_99212_-_Contorno" data-name="Trazado 99212 - Contorno" d="M423.205,57.232a1.02,1.02,0,1,1-1.045,1.019A1.033,1.033,0,0,1,423.205,57.232Z" transform="translate(-416.877 -57.232)" fill="#fff"/>
        <path id="Trazado_99213" data-name="Trazado 99213" d="M432.28,58.293a.588.588,0,1,1-.587-.561A.574.574,0,0,1,432.28,58.293Z" transform="translate(-420.082 -57.274)" fill="#fff"/>
        <path id="Trazado_99213_-_Contorno" data-name="Trazado 99213 - Contorno" d="M431.651,57.232a1.02,1.02,0,1,1-1.045,1.019A1.033,1.033,0,0,1,431.651,57.232Z" transform="translate(-420.039 -57.232)" fill="#fff"/>
        <path id="Trazado_99214" data-name="Trazado 99214" d="M440.727,58.293a.588.588,0,1,1-.587-.561A.575.575,0,0,1,440.727,58.293Z" transform="translate(-423.245 -57.274)" fill="#fff"/>
        <path id="Trazado_99214_-_Contorno" data-name="Trazado 99214 - Contorno" d="M440.1,57.232a1.02,1.02,0,1,1-1.045,1.019A1.034,1.034,0,0,1,440.1,57.232Z" transform="translate(-423.203 -57.232)" fill="#fff"/>
        <path id="Trazado_99215" data-name="Trazado 99215" d="M449.173,58.293a.588.588,0,1,1-.587-.561A.575.575,0,0,1,449.173,58.293Z" transform="translate(-426.407 -57.274)" fill="#fff"/>
        <path id="Trazado_99215_-_Contorno" data-name="Trazado 99215 - Contorno" d="M448.544,57.232a1.02,1.02,0,1,1-1.045,1.019A1.033,1.033,0,0,1,448.544,57.232Z" transform="translate(-426.365 -57.232)" fill="#fff"/>
        <path id="Trazado_99216" data-name="Trazado 99216" d="M457.619,58.293a.588.588,0,1,1-.587-.561A.574.574,0,0,1,457.619,58.293Z" transform="translate(-429.57 -57.274)" fill="#fff"/>
        <path id="Trazado_99216_-_Contorno" data-name="Trazado 99216 - Contorno" d="M456.99,57.232a1.02,1.02,0,1,1-1.045,1.019A1.033,1.033,0,0,1,456.99,57.232Z" transform="translate(-429.528 -57.232)" fill="#fff"/>
        <path id="Trazado_99217" data-name="Trazado 99217" d="M466.066,58.293a.588.588,0,1,1-.587-.561A.575.575,0,0,1,466.066,58.293Z" transform="translate(-432.733 -57.274)" fill="#fff"/>
        <path id="Trazado_99217_-_Contorno" data-name="Trazado 99217 - Contorno" d="M465.437,57.232a1.02,1.02,0,1,1-1.045,1.019A1.034,1.034,0,0,1,465.437,57.232Z" transform="translate(-432.691 -57.232)" fill="#fff"/>
        <path id="Trazado_99218" data-name="Trazado 99218" d="M474.512,58.293a.588.588,0,1,1-.587-.561A.575.575,0,0,1,474.512,58.293Z" transform="translate(-435.896 -57.274)" fill="#fff"/>
        <path id="Trazado_99218_-_Contorno" data-name="Trazado 99218 - Contorno" d="M473.883,57.232a1.02,1.02,0,1,1-1.045,1.019A1.033,1.033,0,0,1,473.883,57.232Z" transform="translate(-435.854 -57.232)" fill="#fff"/>
        <path id="Trazado_99219" data-name="Trazado 99219" d="M482.958,58.293a.588.588,0,1,1-.587-.561A.575.575,0,0,1,482.958,58.293Z" transform="translate(-439.058 -57.274)" fill="#fff"/>
        <path id="Trazado_99219_-_Contorno" data-name="Trazado 99219 - Contorno" d="M482.329,57.232a1.02,1.02,0,1,1-1.045,1.019A1.033,1.033,0,0,1,482.329,57.232Z" transform="translate(-439.016 -57.232)" fill="#fff"/>
        <path id="Trazado_99220" data-name="Trazado 99220" d="M491.405,58.293a.588.588,0,1,1-.587-.561A.575.575,0,0,1,491.405,58.293Z" transform="translate(-442.222 -57.274)" fill="#fff"/>
        <path id="Trazado_99220_-_Contorno" data-name="Trazado 99220 - Contorno" d="M490.776,57.232a1.02,1.02,0,1,1-1.045,1.019A1.034,1.034,0,0,1,490.776,57.232Z" transform="translate(-442.179 -57.232)" fill="#fff"/>
        <path id="Trazado_99221" data-name="Trazado 99221" d="M499.851,58.293a.588.588,0,1,1-.587-.561A.575.575,0,0,1,499.851,58.293Z" transform="translate(-445.384 -57.274)" fill="#fff"/>
        <path id="Trazado_99221_-_Contorno" data-name="Trazado 99221 - Contorno" d="M499.222,57.232a1.02,1.02,0,1,1-1.045,1.019A1.034,1.034,0,0,1,499.222,57.232Z" transform="translate(-445.342 -57.232)" fill="#fff"/>
      </g>
      <g id="Grupo_53308" data-name="Grupo 53308" transform="translate(0 8.983)">
        <ellipse id="Elipse_3955" data-name="Elipse 3955" cx="0.587" cy="0.561" rx="0.587" ry="0.561" transform="translate(0.458 0.458)" fill="#fff"/>
        <path id="Elipse_3955_-_Contorno" data-name="Elipse 3955 - Contorno" d="M.545-.5A1.033,1.033,0,0,1,1.59.519,1.033,1.033,0,0,1,.545,1.539,1.033,1.033,0,0,1-.5.519,1.033,1.033,0,0,1,.545-.5Z" transform="translate(0.5 0.5)" fill="#fff"/>
        <path id="Trazado_99222" data-name="Trazado 99222" d="M423.834,65.8a.588.588,0,1,1-.587-.561A.575.575,0,0,1,423.834,65.8Z" transform="translate(-416.919 -64.782)" fill="#fff"/>
        <path id="Trazado_99222_-_Contorno" data-name="Trazado 99222 - Contorno" d="M423.205,64.74a1.02,1.02,0,1,1-1.045,1.019A1.033,1.033,0,0,1,423.205,64.74Z" transform="translate(-416.877 -64.74)" fill="#fff"/>
        <ellipse id="Elipse_3956" data-name="Elipse 3956" cx="0.587" cy="0.561" rx="0.587" ry="0.561" transform="translate(11.025 0.458)" fill="#fff"/>
        <path id="Elipse_3956_-_Contorno" data-name="Elipse 3956 - Contorno" d="M.545-.5A1.033,1.033,0,0,1,1.59.519,1.033,1.033,0,0,1,.545,1.539,1.033,1.033,0,0,1-.5.519,1.033,1.033,0,0,1,.545-.5Z" transform="translate(11.067 0.5)" fill="#fff"/>
        <path id="Trazado_99223" data-name="Trazado 99223" d="M440.727,65.8a.588.588,0,1,1-.587-.561A.575.575,0,0,1,440.727,65.8Z" transform="translate(-423.245 -64.782)" fill="#fff"/>
        <path id="Trazado_99223_-_Contorno" data-name="Trazado 99223 - Contorno" d="M440.1,64.74a1.02,1.02,0,1,1-1.045,1.019A1.034,1.034,0,0,1,440.1,64.74Z" transform="translate(-423.202 -64.74)" fill="#fff"/>
        <path id="Trazado_99224" data-name="Trazado 99224" d="M449.173,65.8a.588.588,0,1,1-.587-.561A.575.575,0,0,1,449.173,65.8Z" transform="translate(-426.407 -64.782)" fill="#fff"/>
        <path id="Trazado_99224_-_Contorno" data-name="Trazado 99224 - Contorno" d="M448.544,64.74a1.02,1.02,0,1,1-1.045,1.019A1.033,1.033,0,0,1,448.544,64.74Z" transform="translate(-426.365 -64.74)" fill="#fff"/>
        <ellipse id="Elipse_3957" data-name="Elipse 3957" cx="0.587" cy="0.561" rx="0.587" ry="0.561" transform="translate(26.875 0.458)" fill="#fff"/>
        <path id="Elipse_3957_-_Contorno" data-name="Elipse 3957 - Contorno" d="M.545-.5A1.033,1.033,0,0,1,1.59.519,1.033,1.033,0,0,1,.545,1.539,1.033,1.033,0,0,1-.5.519,1.033,1.033,0,0,1,.545-.5Z" transform="translate(26.918 0.5)" fill="#fff"/>
        <path id="Trazado_99225" data-name="Trazado 99225" d="M466.066,65.8a.588.588,0,1,1-.587-.561A.575.575,0,0,1,466.066,65.8Z" transform="translate(-432.733 -64.782)" fill="#fff"/>
        <path id="Trazado_99225_-_Contorno" data-name="Trazado 99225 - Contorno" d="M465.437,64.74a1.02,1.02,0,1,1-1.045,1.019A1.033,1.033,0,0,1,465.437,64.74Z" transform="translate(-432.691 -64.74)" fill="#fff"/>
        <ellipse id="Elipse_3958" data-name="Elipse 3958" cx="0.587" cy="0.561" rx="0.587" ry="0.561" transform="translate(37.442 0.458)" fill="#fff"/>
        <path id="Elipse_3958_-_Contorno" data-name="Elipse 3958 - Contorno" d="M.545-.5A1.033,1.033,0,0,1,1.59.519,1.033,1.033,0,0,1,.545,1.539,1.033,1.033,0,0,1-.5.519,1.033,1.033,0,0,1,.545-.5Z" transform="translate(37.485 0.5)" fill="#fff"/>
        <ellipse id="Elipse_3959" data-name="Elipse 3959" cx="0.587" cy="0.561" rx="0.587" ry="0.561" transform="translate(42.726 0.458)" fill="#fff"/>
        <path id="Elipse_3959_-_Contorno" data-name="Elipse 3959 - Contorno" d="M.545-.5A1.033,1.033,0,0,1,1.59.519,1.033,1.033,0,0,1,.545,1.539,1.033,1.033,0,0,1-.5.519,1.033,1.033,0,0,1,.545-.5Z" transform="translate(42.768 0.5)" fill="#fff"/>
        <path id="Trazado_99226" data-name="Trazado 99226" d="M491.405,65.8a.588.588,0,1,1-.587-.561A.575.575,0,0,1,491.405,65.8Z" transform="translate(-442.222 -64.782)" fill="#fff"/>
        <path id="Trazado_99226_-_Contorno" data-name="Trazado 99226 - Contorno" d="M490.776,64.74a1.02,1.02,0,1,1-1.045,1.019A1.034,1.034,0,0,1,490.776,64.74Z" transform="translate(-442.179 -64.74)" fill="#fff"/>
        <path id="Trazado_99227" data-name="Trazado 99227" d="M499.851,65.8a.588.588,0,1,1-.587-.561A.575.575,0,0,1,499.851,65.8Z" transform="translate(-445.384 -64.782)" fill="#fff"/>
        <path id="Trazado_99227_-_Contorno" data-name="Trazado 99227 - Contorno" d="M499.222,64.74a1.02,1.02,0,1,1-1.045,1.019A1.034,1.034,0,0,1,499.222,64.74Z" transform="translate(-445.342 -64.74)" fill="#fff"/>
      </g>
      <g id="Grupo_53309" data-name="Grupo 53309" transform="translate(0 13.474)">
        <ellipse id="Elipse_3960" data-name="Elipse 3960" cx="0.587" cy="0.561" rx="0.587" ry="0.561" transform="translate(0.458 0.458)" fill="#fff"/>
        <path id="Elipse_3960_-_Contorno" data-name="Elipse 3960 - Contorno" d="M.545-.5A1.033,1.033,0,0,1,1.59.519,1.033,1.033,0,0,1,.545,1.539,1.033,1.033,0,0,1-.5.519,1.033,1.033,0,0,1,.545-.5Z" transform="translate(0.5 0.5)" fill="#fff"/>
        <path id="Trazado_99228" data-name="Trazado 99228" d="M423.834,73.309a.588.588,0,1,1-.587-.562A.574.574,0,0,1,423.834,73.309Z" transform="translate(-416.919 -72.289)" fill="#fff"/>
        <path id="Trazado_99228_-_Contorno" data-name="Trazado 99228 - Contorno" d="M423.205,74.286a1.02,1.02,0,1,1,1.045-1.019A1.034,1.034,0,0,1,423.205,74.286Z" transform="translate(-416.877 -72.247)" fill="#fff"/>
        <ellipse id="Elipse_3961" data-name="Elipse 3961" cx="0.587" cy="0.561" rx="0.587" ry="0.561" transform="translate(11.025 0.458)" fill="#fff"/>
        <path id="Elipse_3961_-_Contorno" data-name="Elipse 3961 - Contorno" d="M.545-.5A1.033,1.033,0,0,1,1.59.519,1.033,1.033,0,0,1,.545,1.539,1.033,1.033,0,0,1-.5.519,1.033,1.033,0,0,1,.545-.5Z" transform="translate(11.067 0.5)" fill="#fff"/>
        <path id="Trazado_99229" data-name="Trazado 99229" d="M440.727,73.309a.588.588,0,1,1-.587-.562A.575.575,0,0,1,440.727,73.309Z" transform="translate(-423.245 -72.289)" fill="#fff"/>
        <path id="Trazado_99229_-_Contorno" data-name="Trazado 99229 - Contorno" d="M440.1,74.286a1.02,1.02,0,1,1,1.045-1.019A1.033,1.033,0,0,1,440.1,74.286Z" transform="translate(-423.202 -72.247)" fill="#fff"/>
        <path id="Trazado_99230" data-name="Trazado 99230" d="M449.173,73.309a.588.588,0,1,1-.587-.562A.574.574,0,0,1,449.173,73.309Z" transform="translate(-426.407 -72.289)" fill="#fff"/>
        <path id="Trazado_99230_-_Contorno" data-name="Trazado 99230 - Contorno" d="M448.544,74.286a1.02,1.02,0,1,1,1.045-1.019A1.034,1.034,0,0,1,448.544,74.286Z" transform="translate(-426.365 -72.247)" fill="#fff"/>
        <ellipse id="Elipse_3962" data-name="Elipse 3962" cx="0.587" cy="0.561" rx="0.587" ry="0.561" transform="translate(26.875 0.458)" fill="#fff"/>
        <path id="Elipse_3962_-_Contorno" data-name="Elipse 3962 - Contorno" d="M.545-.5A1.033,1.033,0,0,1,1.59.519,1.033,1.033,0,0,1,.545,1.539,1.033,1.033,0,0,1-.5.519,1.033,1.033,0,0,1,.545-.5Z" transform="translate(26.918 0.5)" fill="#fff"/>
        <path id="Trazado_99231" data-name="Trazado 99231" d="M466.066,73.309a.588.588,0,1,1-.587-.562A.575.575,0,0,1,466.066,73.309Z" transform="translate(-432.733 -72.289)" fill="#fff"/>
        <path id="Trazado_99231_-_Contorno" data-name="Trazado 99231 - Contorno" d="M465.437,74.286a1.02,1.02,0,1,1,1.045-1.019A1.033,1.033,0,0,1,465.437,74.286Z" transform="translate(-432.691 -72.247)" fill="#fff"/>
        <ellipse id="Elipse_3963" data-name="Elipse 3963" cx="0.587" cy="0.561" rx="0.587" ry="0.561" transform="translate(37.442 0.458)" fill="#fff"/>
        <path id="Elipse_3963_-_Contorno" data-name="Elipse 3963 - Contorno" d="M.545-.5A1.033,1.033,0,0,1,1.59.519,1.033,1.033,0,0,1,.545,1.539,1.033,1.033,0,0,1-.5.519,1.033,1.033,0,0,1,.545-.5Z" transform="translate(37.485 0.5)" fill="#fff"/>
        <ellipse id="Elipse_3964" data-name="Elipse 3964" cx="0.587" cy="0.561" rx="0.587" ry="0.561" transform="translate(42.726 0.458)" fill="#fff"/>
        <path id="Elipse_3964_-_Contorno" data-name="Elipse 3964 - Contorno" d="M.545-.5A1.033,1.033,0,0,1,1.59.519,1.033,1.033,0,0,1,.545,1.539,1.033,1.033,0,0,1-.5.519,1.033,1.033,0,0,1,.545-.5Z" transform="translate(42.768 0.5)" fill="#fff"/>
        <path id="Trazado_99232" data-name="Trazado 99232" d="M491.405,73.309a.588.588,0,1,1-.587-.562A.575.575,0,0,1,491.405,73.309Z" transform="translate(-442.222 -72.289)" fill="#fff"/>
        <path id="Trazado_99232_-_Contorno" data-name="Trazado 99232 - Contorno" d="M490.776,74.286a1.02,1.02,0,1,1,1.045-1.019A1.033,1.033,0,0,1,490.776,74.286Z" transform="translate(-442.179 -72.247)" fill="#fff"/>
        <path id="Trazado_99233" data-name="Trazado 99233" d="M499.851,73.309a.588.588,0,1,1-.587-.562A.575.575,0,0,1,499.851,73.309Z" transform="translate(-445.384 -72.289)" fill="#fff"/>
        <path id="Trazado_99233_-_Contorno" data-name="Trazado 99233 - Contorno" d="M499.222,74.286a1.02,1.02,0,1,1,1.045-1.019A1.033,1.033,0,0,1,499.222,74.286Z" transform="translate(-445.342 -72.247)" fill="#fff"/>
      </g>
      <g id="Grupo_53310" data-name="Grupo 53310" transform="translate(0 17.965)">
        <path id="Trazado_99234" data-name="Trazado 99234" d="M415.388,80.817a.588.588,0,1,1-.587-.562A.575.575,0,0,1,415.388,80.817Z" transform="translate(-413.756 -79.797)" fill="#fff"/>
        <path id="Trazado_99234_-_Contorno" data-name="Trazado 99234 - Contorno" d="M414.759,81.794a1.02,1.02,0,1,1,1.045-1.019A1.033,1.033,0,0,1,414.759,81.794Z" transform="translate(-413.714 -79.755)" fill="#fff"/>
        <path id="Trazado_99235" data-name="Trazado 99235" d="M423.834,80.817a.588.588,0,1,1-.587-.562A.574.574,0,0,1,423.834,80.817Z" transform="translate(-416.919 -79.797)" fill="#fff"/>
        <path id="Trazado_99235_-_Contorno" data-name="Trazado 99235 - Contorno" d="M423.205,81.794a1.02,1.02,0,1,1,1.045-1.019A1.033,1.033,0,0,1,423.205,81.794Z" transform="translate(-416.877 -79.755)" fill="#fff"/>
        <path id="Trazado_99236" data-name="Trazado 99236" d="M432.28,80.817a.588.588,0,1,1-.587-.562A.574.574,0,0,1,432.28,80.817Z" transform="translate(-420.082 -79.797)" fill="#fff"/>
        <path id="Trazado_99236_-_Contorno" data-name="Trazado 99236 - Contorno" d="M431.651,81.794a1.02,1.02,0,1,1,1.045-1.019A1.034,1.034,0,0,1,431.651,81.794Z" transform="translate(-420.039 -79.755)" fill="#fff"/>
        <path id="Trazado_99237" data-name="Trazado 99237" d="M440.727,80.817a.588.588,0,1,1-.587-.562A.575.575,0,0,1,440.727,80.817Z" transform="translate(-423.245 -79.797)" fill="#fff"/>
        <path id="Trazado_99237_-_Contorno" data-name="Trazado 99237 - Contorno" d="M440.1,81.794a1.02,1.02,0,1,1,1.045-1.019A1.033,1.033,0,0,1,440.1,81.794Z" transform="translate(-423.203 -79.755)" fill="#fff"/>
        <path id="Trazado_99238" data-name="Trazado 99238" d="M449.173,80.817a.588.588,0,1,1-.587-.562A.574.574,0,0,1,449.173,80.817Z" transform="translate(-426.407 -79.797)" fill="#fff"/>
        <path id="Trazado_99238_-_Contorno" data-name="Trazado 99238 - Contorno" d="M448.544,81.794a1.02,1.02,0,1,1,1.045-1.019A1.034,1.034,0,0,1,448.544,81.794Z" transform="translate(-426.365 -79.755)" fill="#fff"/>
        <path id="Trazado_99239" data-name="Trazado 99239" d="M457.619,80.817a.588.588,0,1,1-.587-.562A.574.574,0,0,1,457.619,80.817Z" transform="translate(-429.57 -79.797)" fill="#fff"/>
        <path id="Trazado_99239_-_Contorno" data-name="Trazado 99239 - Contorno" d="M456.99,81.794a1.02,1.02,0,1,1,1.045-1.019A1.034,1.034,0,0,1,456.99,81.794Z" transform="translate(-429.528 -79.755)" fill="#fff"/>
        <path id="Trazado_99240" data-name="Trazado 99240" d="M466.066,80.817a.588.588,0,1,1-.587-.562A.575.575,0,0,1,466.066,80.817Z" transform="translate(-432.733 -79.797)" fill="#fff"/>
        <path id="Trazado_99240_-_Contorno" data-name="Trazado 99240 - Contorno" d="M465.437,81.794a1.02,1.02,0,1,1,1.045-1.019A1.033,1.033,0,0,1,465.437,81.794Z" transform="translate(-432.691 -79.755)" fill="#fff"/>
        <path id="Trazado_99241" data-name="Trazado 99241" d="M474.512,80.817a.588.588,0,1,1-.587-.562A.574.574,0,0,1,474.512,80.817Z" transform="translate(-435.896 -79.797)" fill="#fff"/>
        <path id="Trazado_99241_-_Contorno" data-name="Trazado 99241 - Contorno" d="M473.883,81.794a1.02,1.02,0,1,1,1.045-1.019A1.033,1.033,0,0,1,473.883,81.794Z" transform="translate(-435.854 -79.755)" fill="#fff"/>
        <path id="Trazado_99242" data-name="Trazado 99242" d="M482.958,80.817a.588.588,0,1,1-.587-.562A.574.574,0,0,1,482.958,80.817Z" transform="translate(-439.058 -79.797)" fill="#fff"/>
        <path id="Trazado_99242_-_Contorno" data-name="Trazado 99242 - Contorno" d="M482.329,81.794a1.02,1.02,0,1,1,1.045-1.019A1.034,1.034,0,0,1,482.329,81.794Z" transform="translate(-439.016 -79.755)" fill="#fff"/>
        <path id="Trazado_99243" data-name="Trazado 99243" d="M491.405,80.817a.588.588,0,1,1-.587-.562A.575.575,0,0,1,491.405,80.817Z" transform="translate(-442.222 -79.797)" fill="#fff"/>
        <path id="Trazado_99243_-_Contorno" data-name="Trazado 99243 - Contorno" d="M490.776,81.794a1.02,1.02,0,1,1,1.045-1.019A1.033,1.033,0,0,1,490.776,81.794Z" transform="translate(-442.179 -79.755)" fill="#fff"/>
        <path id="Trazado_99244" data-name="Trazado 99244" d="M499.851,80.817a.588.588,0,1,1-.587-.562A.575.575,0,0,1,499.851,80.817Z" transform="translate(-445.384 -79.797)" fill="#fff"/>
        <path id="Trazado_99244_-_Contorno" data-name="Trazado 99244 - Contorno" d="M499.222,81.794a1.02,1.02,0,1,1,1.045-1.019A1.033,1.033,0,0,1,499.222,81.794Z" transform="translate(-445.342 -79.755)" fill="#fff"/>
      </g>
      <g id="Grupo_53311" data-name="Grupo 53311" transform="translate(0 22.456)">
        <ellipse id="Elipse_3965" data-name="Elipse 3965" cx="0.587" cy="0.561" rx="0.587" ry="0.561" transform="translate(0.458 0.458)" fill="#fff"/>
        <path id="Elipse_3965_-_Contorno" data-name="Elipse 3965 - Contorno" d="M.545-.5A1.033,1.033,0,0,1,1.59.519,1.033,1.033,0,0,1,.545,1.539,1.033,1.033,0,0,1-.5.519,1.033,1.033,0,0,1,.545-.5Z" transform="translate(0.5 0.5)" fill="#fff"/>
        <path id="Trazado_99245" data-name="Trazado 99245" d="M423.834,88.325a.588.588,0,1,1-.587-.562A.574.574,0,0,1,423.834,88.325Z" transform="translate(-416.919 -87.305)" fill="#fff"/>
        <path id="Trazado_99245_-_Contorno" data-name="Trazado 99245 - Contorno" d="M423.205,89.3a1.02,1.02,0,1,1,1.045-1.019A1.033,1.033,0,0,1,423.205,89.3Z" transform="translate(-416.877 -87.263)" fill="#fff"/>
        <ellipse id="Elipse_3966" data-name="Elipse 3966" cx="0.587" cy="0.561" rx="0.587" ry="0.561" transform="translate(11.025 0.458)" fill="#fff"/>
        <path id="Elipse_3966_-_Contorno" data-name="Elipse 3966 - Contorno" d="M.545-.5A1.033,1.033,0,0,1,1.59.519,1.033,1.033,0,0,1,.545,1.539,1.033,1.033,0,0,1-.5.519,1.033,1.033,0,0,1,.545-.5Z" transform="translate(11.067 0.5)" fill="#fff"/>
        <path id="Trazado_99246" data-name="Trazado 99246" d="M440.727,88.325a.588.588,0,1,1-.587-.562A.575.575,0,0,1,440.727,88.325Z" transform="translate(-423.245 -87.305)" fill="#fff"/>
        <path id="Trazado_99246_-_Contorno" data-name="Trazado 99246 - Contorno" d="M440.1,89.3a1.02,1.02,0,1,1,1.045-1.019A1.033,1.033,0,0,1,440.1,89.3Z" transform="translate(-423.202 -87.263)" fill="#fff"/>
        <path id="Trazado_99247" data-name="Trazado 99247" d="M449.173,88.325a.588.588,0,1,1-.587-.562A.574.574,0,0,1,449.173,88.325Z" transform="translate(-426.407 -87.305)" fill="#fff"/>
        <path id="Trazado_99247_-_Contorno" data-name="Trazado 99247 - Contorno" d="M448.544,89.3a1.02,1.02,0,1,1,1.045-1.019A1.034,1.034,0,0,1,448.544,89.3Z" transform="translate(-426.365 -87.263)" fill="#fff"/>
        <ellipse id="Elipse_3967" data-name="Elipse 3967" cx="0.587" cy="0.561" rx="0.587" ry="0.561" transform="translate(26.875 0.458)" fill="#fff"/>
        <path id="Elipse_3967_-_Contorno" data-name="Elipse 3967 - Contorno" d="M.545-.5A1.033,1.033,0,0,1,1.59.519,1.033,1.033,0,0,1,.545,1.539,1.033,1.033,0,0,1-.5.519,1.033,1.033,0,0,1,.545-.5Z" transform="translate(26.918 0.5)" fill="#fff"/>
        <path id="Trazado_99248" data-name="Trazado 99248" d="M466.066,88.325a.588.588,0,1,1-.587-.562A.575.575,0,0,1,466.066,88.325Z" transform="translate(-432.733 -87.305)" fill="#fff"/>
        <path id="Trazado_99248_-_Contorno" data-name="Trazado 99248 - Contorno" d="M465.437,89.3a1.02,1.02,0,1,1,1.045-1.019A1.033,1.033,0,0,1,465.437,89.3Z" transform="translate(-432.691 -87.263)" fill="#fff"/>
        <ellipse id="Elipse_3968" data-name="Elipse 3968" cx="0.587" cy="0.561" rx="0.587" ry="0.561" transform="translate(37.442 0.458)" fill="#fff"/>
        <path id="Elipse_3968_-_Contorno" data-name="Elipse 3968 - Contorno" d="M.545-.5A1.033,1.033,0,0,1,1.59.519,1.033,1.033,0,0,1,.545,1.539,1.033,1.033,0,0,1-.5.519,1.033,1.033,0,0,1,.545-.5Z" transform="translate(37.485 0.5)" fill="#fff"/>
        <ellipse id="Elipse_3969" data-name="Elipse 3969" cx="0.587" cy="0.561" rx="0.587" ry="0.561" transform="translate(42.726 0.458)" fill="#fff"/>
        <path id="Elipse_3969_-_Contorno" data-name="Elipse 3969 - Contorno" d="M.545-.5A1.033,1.033,0,0,1,1.59.519,1.033,1.033,0,0,1,.545,1.539,1.033,1.033,0,0,1-.5.519,1.033,1.033,0,0,1,.545-.5Z" transform="translate(42.768 0.5)" fill="#fff"/>
        <path id="Trazado_99249" data-name="Trazado 99249" d="M491.405,88.325a.588.588,0,1,1-.587-.562A.575.575,0,0,1,491.405,88.325Z" transform="translate(-442.222 -87.305)" fill="#fff"/>
        <path id="Trazado_99249_-_Contorno" data-name="Trazado 99249 - Contorno" d="M490.776,89.3a1.02,1.02,0,1,1,1.045-1.019A1.033,1.033,0,0,1,490.776,89.3Z" transform="translate(-442.179 -87.263)" fill="#fff"/>
        <path id="Trazado_99250" data-name="Trazado 99250" d="M499.851,88.325a.588.588,0,1,1-.587-.562A.575.575,0,0,1,499.851,88.325Z" transform="translate(-445.384 -87.305)" fill="#fff"/>
        <path id="Trazado_99250_-_Contorno" data-name="Trazado 99250 - Contorno" d="M499.222,89.3a1.02,1.02,0,1,1,1.045-1.019A1.033,1.033,0,0,1,499.222,89.3Z" transform="translate(-445.342 -87.263)" fill="#fff"/>
      </g>
      <g id="Grupo_53312" data-name="Grupo 53312" transform="translate(0 26.948)">
        <ellipse id="Elipse_3970" data-name="Elipse 3970" cx="0.587" cy="0.561" rx="0.587" ry="0.561" transform="translate(0.458 0.458)" fill="#fff"/>
        <path id="Elipse_3970_-_Contorno" data-name="Elipse 3970 - Contorno" d="M.545-.5A1.033,1.033,0,0,1,1.59.519,1.033,1.033,0,0,1,.545,1.539,1.033,1.033,0,0,1-.5.519,1.033,1.033,0,0,1,.545-.5Z" transform="translate(0.5 0.5)" fill="#fff"/>
        <path id="Trazado_99251" data-name="Trazado 99251" d="M423.834,95.832a.588.588,0,1,1-.587-.561A.574.574,0,0,1,423.834,95.832Z" transform="translate(-416.919 -94.813)" fill="#fff"/>
        <path id="Trazado_99251_-_Contorno" data-name="Trazado 99251 - Contorno" d="M423.205,94.771a1.02,1.02,0,1,1-1.045,1.019A1.033,1.033,0,0,1,423.205,94.771Z" transform="translate(-416.877 -94.771)" fill="#fff"/>
        <ellipse id="Elipse_3971" data-name="Elipse 3971" cx="0.587" cy="0.561" rx="0.587" ry="0.561" transform="translate(11.025 0.458)" fill="#fff"/>
        <path id="Elipse_3971_-_Contorno" data-name="Elipse 3971 - Contorno" d="M.545-.5A1.033,1.033,0,0,1,1.59.519,1.033,1.033,0,0,1,.545,1.539,1.033,1.033,0,0,1-.5.519,1.033,1.033,0,0,1,.545-.5Z" transform="translate(11.067 0.5)" fill="#fff"/>
        <path id="Trazado_99252" data-name="Trazado 99252" d="M440.727,95.832a.588.588,0,1,1-.587-.561A.575.575,0,0,1,440.727,95.832Z" transform="translate(-423.245 -94.813)" fill="#fff"/>
        <path id="Trazado_99252_-_Contorno" data-name="Trazado 99252 - Contorno" d="M440.1,94.771a1.02,1.02,0,1,1-1.045,1.019A1.034,1.034,0,0,1,440.1,94.771Z" transform="translate(-423.202 -94.771)" fill="#fff"/>
        <path id="Trazado_99253" data-name="Trazado 99253" d="M449.173,95.832a.588.588,0,1,1-.587-.561A.575.575,0,0,1,449.173,95.832Z" transform="translate(-426.407 -94.813)" fill="#fff"/>
        <path id="Trazado_99253_-_Contorno" data-name="Trazado 99253 - Contorno" d="M448.544,94.771A1.02,1.02,0,1,1,447.5,95.79,1.033,1.033,0,0,1,448.544,94.771Z" transform="translate(-426.365 -94.771)" fill="#fff"/>
        <ellipse id="Elipse_3972" data-name="Elipse 3972" cx="0.587" cy="0.561" rx="0.587" ry="0.561" transform="translate(26.875 0.458)" fill="#fff"/>
        <path id="Elipse_3972_-_Contorno" data-name="Elipse 3972 - Contorno" d="M.545-.5A1.033,1.033,0,0,1,1.59.519,1.033,1.033,0,0,1,.545,1.539,1.033,1.033,0,0,1-.5.519,1.033,1.033,0,0,1,.545-.5Z" transform="translate(26.918 0.5)" fill="#fff"/>
        <path id="Trazado_99254" data-name="Trazado 99254" d="M466.066,95.832a.588.588,0,1,1-.587-.561A.575.575,0,0,1,466.066,95.832Z" transform="translate(-432.733 -94.813)" fill="#fff"/>
        <path id="Trazado_99254_-_Contorno" data-name="Trazado 99254 - Contorno" d="M465.437,94.771a1.02,1.02,0,1,1-1.045,1.019A1.033,1.033,0,0,1,465.437,94.771Z" transform="translate(-432.691 -94.771)" fill="#fff"/>
        <ellipse id="Elipse_3973" data-name="Elipse 3973" cx="0.587" cy="0.561" rx="0.587" ry="0.561" transform="translate(37.442 0.458)" fill="#fff"/>
        <path id="Elipse_3973_-_Contorno" data-name="Elipse 3973 - Contorno" d="M.545-.5A1.033,1.033,0,0,1,1.59.519,1.033,1.033,0,0,1,.545,1.539,1.033,1.033,0,0,1-.5.519,1.033,1.033,0,0,1,.545-.5Z" transform="translate(37.485 0.5)" fill="#fff"/>
        <ellipse id="Elipse_3974" data-name="Elipse 3974" cx="0.587" cy="0.561" rx="0.587" ry="0.561" transform="translate(42.726 0.458)" fill="#fff"/>
        <path id="Elipse_3974_-_Contorno" data-name="Elipse 3974 - Contorno" d="M.545-.5A1.033,1.033,0,0,1,1.59.519,1.033,1.033,0,0,1,.545,1.539,1.033,1.033,0,0,1-.5.519,1.033,1.033,0,0,1,.545-.5Z" transform="translate(42.768 0.5)" fill="#fff"/>
        <path id="Trazado_99255" data-name="Trazado 99255" d="M491.405,95.832a.588.588,0,1,1-.587-.561A.575.575,0,0,1,491.405,95.832Z" transform="translate(-442.222 -94.813)" fill="#fff"/>
        <path id="Trazado_99255_-_Contorno" data-name="Trazado 99255 - Contorno" d="M490.776,94.771a1.02,1.02,0,1,1-1.045,1.019A1.034,1.034,0,0,1,490.776,94.771Z" transform="translate(-442.179 -94.771)" fill="#fff"/>
        <path id="Trazado_99256" data-name="Trazado 99256" d="M499.851,95.832a.588.588,0,1,1-.587-.561A.575.575,0,0,1,499.851,95.832Z" transform="translate(-445.384 -94.813)" fill="#fff"/>
        <path id="Trazado_99256_-_Contorno" data-name="Trazado 99256 - Contorno" d="M499.222,94.771a1.02,1.02,0,1,1-1.045,1.019A1.034,1.034,0,0,1,499.222,94.771Z" transform="translate(-445.342 -94.771)" fill="#fff"/>
      </g>
      <g id="Grupo_53313" data-name="Grupo 53313" transform="translate(0 31.439)">
        <path id="Trazado_99257" data-name="Trazado 99257" d="M415.388,103.34a.588.588,0,1,1-.587-.561A.575.575,0,0,1,415.388,103.34Z" transform="translate(-413.756 -102.321)" fill="#fff"/>
        <path id="Trazado_99257_-_Contorno" data-name="Trazado 99257 - Contorno" d="M414.759,102.279a1.02,1.02,0,1,1-1.045,1.019A1.034,1.034,0,0,1,414.759,102.279Z" transform="translate(-413.714 -102.279)" fill="#fff"/>
        <path id="Trazado_99258" data-name="Trazado 99258" d="M423.834,103.34a.588.588,0,1,1-.587-.561A.574.574,0,0,1,423.834,103.34Z" transform="translate(-416.919 -102.321)" fill="#fff"/>
        <path id="Trazado_99258_-_Contorno" data-name="Trazado 99258 - Contorno" d="M423.205,102.279a1.02,1.02,0,1,1-1.045,1.019A1.033,1.033,0,0,1,423.205,102.279Z" transform="translate(-416.877 -102.279)" fill="#fff"/>
        <path id="Trazado_99259" data-name="Trazado 99259" d="M432.28,103.34a.588.588,0,1,1-.587-.561A.575.575,0,0,1,432.28,103.34Z" transform="translate(-420.082 -102.321)" fill="#fff"/>
        <path id="Trazado_99259_-_Contorno" data-name="Trazado 99259 - Contorno" d="M431.651,102.279a1.02,1.02,0,1,1-1.045,1.019A1.033,1.033,0,0,1,431.651,102.279Z" transform="translate(-420.039 -102.279)" fill="#fff"/>
        <path id="Trazado_99260" data-name="Trazado 99260" d="M440.727,103.34a.588.588,0,1,1-.587-.561A.575.575,0,0,1,440.727,103.34Z" transform="translate(-423.245 -102.321)" fill="#fff"/>
        <path id="Trazado_99260_-_Contorno" data-name="Trazado 99260 - Contorno" d="M440.1,102.279a1.02,1.02,0,1,1-1.045,1.019A1.034,1.034,0,0,1,440.1,102.279Z" transform="translate(-423.203 -102.279)" fill="#fff"/>
        <path id="Trazado_99261" data-name="Trazado 99261" d="M449.173,103.34a.588.588,0,1,1-.587-.561A.575.575,0,0,1,449.173,103.34Z" transform="translate(-426.407 -102.321)" fill="#fff"/>
        <path id="Trazado_99261_-_Contorno" data-name="Trazado 99261 - Contorno" d="M448.544,102.279A1.02,1.02,0,1,1,447.5,103.3,1.033,1.033,0,0,1,448.544,102.279Z" transform="translate(-426.365 -102.279)" fill="#fff"/>
        <path id="Trazado_99262" data-name="Trazado 99262" d="M457.619,103.34a.588.588,0,1,1-.587-.561A.574.574,0,0,1,457.619,103.34Z" transform="translate(-429.57 -102.321)" fill="#fff"/>
        <path id="Trazado_99262_-_Contorno" data-name="Trazado 99262 - Contorno" d="M456.99,102.279a1.02,1.02,0,1,1-1.045,1.019A1.033,1.033,0,0,1,456.99,102.279Z" transform="translate(-429.528 -102.279)" fill="#fff"/>
        <path id="Trazado_99263" data-name="Trazado 99263" d="M466.066,103.34a.588.588,0,1,1-.587-.561A.575.575,0,0,1,466.066,103.34Z" transform="translate(-432.733 -102.321)" fill="#fff"/>
        <path id="Trazado_99263_-_Contorno" data-name="Trazado 99263 - Contorno" d="M465.437,102.279a1.02,1.02,0,1,1-1.045,1.019A1.033,1.033,0,0,1,465.437,102.279Z" transform="translate(-432.691 -102.279)" fill="#fff"/>
        <path id="Trazado_99264" data-name="Trazado 99264" d="M474.512,103.34a.588.588,0,1,1-.587-.561A.575.575,0,0,1,474.512,103.34Z" transform="translate(-435.896 -102.321)" fill="#fff"/>
        <path id="Trazado_99264_-_Contorno" data-name="Trazado 99264 - Contorno" d="M473.883,102.279a1.02,1.02,0,1,1-1.045,1.019A1.033,1.033,0,0,1,473.883,102.279Z" transform="translate(-435.854 -102.279)" fill="#fff"/>
        <path id="Trazado_99265" data-name="Trazado 99265" d="M482.958,103.34a.588.588,0,1,1-.587-.561A.575.575,0,0,1,482.958,103.34Z" transform="translate(-439.058 -102.321)" fill="#fff"/>
        <path id="Trazado_99265_-_Contorno" data-name="Trazado 99265 - Contorno" d="M482.329,102.279a1.02,1.02,0,1,1-1.045,1.019A1.033,1.033,0,0,1,482.329,102.279Z" transform="translate(-439.016 -102.279)" fill="#fff"/>
        <path id="Trazado_99266" data-name="Trazado 99266" d="M491.405,103.34a.588.588,0,1,1-.587-.561A.575.575,0,0,1,491.405,103.34Z" transform="translate(-442.222 -102.321)" fill="#fff"/>
        <path id="Trazado_99266_-_Contorno" data-name="Trazado 99266 - Contorno" d="M490.776,102.279a1.02,1.02,0,1,1-1.045,1.019A1.034,1.034,0,0,1,490.776,102.279Z" transform="translate(-442.179 -102.279)" fill="#fff"/>
        <path id="Trazado_99267" data-name="Trazado 99267" d="M499.851,103.34a.588.588,0,1,1-.587-.561A.575.575,0,0,1,499.851,103.34Z" transform="translate(-445.384 -102.321)" fill="#fff"/>
        <path id="Trazado_99267_-_Contorno" data-name="Trazado 99267 - Contorno" d="M499.222,102.279a1.02,1.02,0,1,1-1.045,1.019A1.034,1.034,0,0,1,499.222,102.279Z" transform="translate(-445.342 -102.279)" fill="#fff"/>
      </g>
      <g id="Grupo_53314" data-name="Grupo 53314" transform="translate(0 35.931)">
        <ellipse id="Elipse_3975" data-name="Elipse 3975" cx="0.587" cy="0.561" rx="0.587" ry="0.561" transform="translate(0.458 0.458)" fill="#fff"/>
        <path id="Elipse_3975_-_Contorno" data-name="Elipse 3975 - Contorno" d="M.545-.5A1.033,1.033,0,0,1,1.59.519,1.033,1.033,0,0,1,.545,1.539,1.033,1.033,0,0,1-.5.519,1.033,1.033,0,0,1,.545-.5Z" transform="translate(0.5 0.5)" fill="#fff"/>
        <path id="Trazado_99268" data-name="Trazado 99268" d="M423.834,110.848a.588.588,0,1,1-.587-.561A.575.575,0,0,1,423.834,110.848Z" transform="translate(-416.919 -109.829)" fill="#fff"/>
        <path id="Trazado_99268_-_Contorno" data-name="Trazado 99268 - Contorno" d="M423.205,109.787a1.02,1.02,0,1,1-1.045,1.019A1.033,1.033,0,0,1,423.205,109.787Z" transform="translate(-416.877 -109.787)" fill="#fff"/>
        <ellipse id="Elipse_3976" data-name="Elipse 3976" cx="0.587" cy="0.561" rx="0.587" ry="0.561" transform="translate(11.025 0.458)" fill="#fff"/>
        <path id="Elipse_3976_-_Contorno" data-name="Elipse 3976 - Contorno" d="M.545-.5A1.033,1.033,0,0,1,1.59.519,1.033,1.033,0,0,1,.545,1.539,1.033,1.033,0,0,1-.5.519,1.033,1.033,0,0,1,.545-.5Z" transform="translate(11.067 0.5)" fill="#fff"/>
        <path id="Trazado_99269" data-name="Trazado 99269" d="M440.727,110.848a.588.588,0,1,1-.587-.561A.575.575,0,0,1,440.727,110.848Z" transform="translate(-423.245 -109.829)" fill="#fff"/>
        <path id="Trazado_99269_-_Contorno" data-name="Trazado 99269 - Contorno" d="M440.1,109.787a1.02,1.02,0,1,1-1.045,1.019A1.034,1.034,0,0,1,440.1,109.787Z" transform="translate(-423.202 -109.787)" fill="#fff"/>
        <path id="Trazado_99270" data-name="Trazado 99270" d="M449.173,110.848a.588.588,0,1,1-.587-.561A.575.575,0,0,1,449.173,110.848Z" transform="translate(-426.407 -109.829)" fill="#fff"/>
        <path id="Trazado_99270_-_Contorno" data-name="Trazado 99270 - Contorno" d="M448.544,109.787a1.02,1.02,0,1,1-1.045,1.019A1.033,1.033,0,0,1,448.544,109.787Z" transform="translate(-426.365 -109.787)" fill="#fff"/>
        <ellipse id="Elipse_3977" data-name="Elipse 3977" cx="0.587" cy="0.561" rx="0.587" ry="0.561" transform="translate(26.875 0.458)" fill="#fff"/>
        <path id="Elipse_3977_-_Contorno" data-name="Elipse 3977 - Contorno" d="M.545-.5A1.033,1.033,0,0,1,1.59.519,1.033,1.033,0,0,1,.545,1.539,1.033,1.033,0,0,1-.5.519,1.033,1.033,0,0,1,.545-.5Z" transform="translate(26.918 0.5)" fill="#fff"/>
        <path id="Trazado_99271" data-name="Trazado 99271" d="M466.066,110.848a.588.588,0,1,1-.587-.561A.575.575,0,0,1,466.066,110.848Z" transform="translate(-432.733 -109.829)" fill="#fff"/>
        <path id="Trazado_99271_-_Contorno" data-name="Trazado 99271 - Contorno" d="M465.437,109.787a1.02,1.02,0,1,1-1.045,1.019A1.033,1.033,0,0,1,465.437,109.787Z" transform="translate(-432.691 -109.787)" fill="#fff"/>
        <ellipse id="Elipse_3978" data-name="Elipse 3978" cx="0.587" cy="0.561" rx="0.587" ry="0.561" transform="translate(37.442 0.458)" fill="#fff"/>
        <path id="Elipse_3978_-_Contorno" data-name="Elipse 3978 - Contorno" d="M.545-.5A1.033,1.033,0,0,1,1.59.519,1.033,1.033,0,0,1,.545,1.539,1.033,1.033,0,0,1-.5.519,1.033,1.033,0,0,1,.545-.5Z" transform="translate(37.485 0.5)" fill="#fff"/>
        <ellipse id="Elipse_3979" data-name="Elipse 3979" cx="0.587" cy="0.561" rx="0.587" ry="0.561" transform="translate(42.726 0.458)" fill="#fff"/>
        <path id="Elipse_3979_-_Contorno" data-name="Elipse 3979 - Contorno" d="M.545-.5A1.033,1.033,0,0,1,1.59.519,1.033,1.033,0,0,1,.545,1.539,1.033,1.033,0,0,1-.5.519,1.033,1.033,0,0,1,.545-.5Z" transform="translate(42.768 0.5)" fill="#fff"/>
        <path id="Trazado_99272" data-name="Trazado 99272" d="M491.405,110.848a.588.588,0,1,1-.587-.561A.575.575,0,0,1,491.405,110.848Z" transform="translate(-442.222 -109.829)" fill="#fff"/>
        <path id="Trazado_99272_-_Contorno" data-name="Trazado 99272 - Contorno" d="M490.776,109.787a1.02,1.02,0,1,1-1.045,1.019A1.034,1.034,0,0,1,490.776,109.787Z" transform="translate(-442.179 -109.787)" fill="#fff"/>
        <path id="Trazado_99273" data-name="Trazado 99273" d="M499.851,110.848a.588.588,0,1,1-.587-.561A.575.575,0,0,1,499.851,110.848Z" transform="translate(-445.384 -109.829)" fill="#fff"/>
        <path id="Trazado_99273_-_Contorno" data-name="Trazado 99273 - Contorno" d="M499.222,109.787a1.02,1.02,0,1,1-1.045,1.019A1.034,1.034,0,0,1,499.222,109.787Z" transform="translate(-445.342 -109.787)" fill="#fff"/>
      </g>
      <g id="Grupo_53315" data-name="Grupo 53315" transform="translate(0 40.421)">
        <path id="Trazado_99274" data-name="Trazado 99274" d="M415.388,118.356a.588.588,0,1,1-.587-.562A.575.575,0,0,1,415.388,118.356Z" transform="translate(-413.756 -117.336)" fill="#fff"/>
        <path id="Trazado_99274_-_Contorno" data-name="Trazado 99274 - Contorno" d="M414.759,119.333a1.02,1.02,0,1,1,1.045-1.02A1.033,1.033,0,0,1,414.759,119.333Z" transform="translate(-413.714 -117.294)" fill="#fff"/>
        <path id="Trazado_99275" data-name="Trazado 99275" d="M423.834,118.356a.588.588,0,1,1-.587-.562A.575.575,0,0,1,423.834,118.356Z" transform="translate(-416.919 -117.336)" fill="#fff"/>
        <path id="Trazado_99275_-_Contorno" data-name="Trazado 99275 - Contorno" d="M423.205,119.333a1.02,1.02,0,1,1,1.045-1.02A1.034,1.034,0,0,1,423.205,119.333Z" transform="translate(-416.877 -117.294)" fill="#fff"/>
        <path id="Trazado_99276" data-name="Trazado 99276" d="M432.28,118.356a.588.588,0,1,1-.587-.562A.575.575,0,0,1,432.28,118.356Z" transform="translate(-420.082 -117.336)" fill="#fff"/>
        <path id="Trazado_99276_-_Contorno" data-name="Trazado 99276 - Contorno" d="M431.651,119.333a1.02,1.02,0,1,1,1.045-1.02A1.034,1.034,0,0,1,431.651,119.333Z" transform="translate(-420.039 -117.294)" fill="#fff"/>
        <path id="Trazado_99277" data-name="Trazado 99277" d="M440.727,118.356a.588.588,0,1,1-.587-.562A.575.575,0,0,1,440.727,118.356Z" transform="translate(-423.245 -117.336)" fill="#fff"/>
        <path id="Trazado_99277_-_Contorno" data-name="Trazado 99277 - Contorno" d="M440.1,119.333a1.02,1.02,0,1,1,1.045-1.02A1.033,1.033,0,0,1,440.1,119.333Z" transform="translate(-423.203 -117.294)" fill="#fff"/>
        <path id="Trazado_99278" data-name="Trazado 99278" d="M449.173,118.356a.588.588,0,1,1-.587-.562A.575.575,0,0,1,449.173,118.356Z" transform="translate(-426.407 -117.336)" fill="#fff"/>
        <path id="Trazado_99278_-_Contorno" data-name="Trazado 99278 - Contorno" d="M448.544,119.333a1.02,1.02,0,1,1,1.045-1.02A1.034,1.034,0,0,1,448.544,119.333Z" transform="translate(-426.365 -117.294)" fill="#fff"/>
        <path id="Trazado_99279" data-name="Trazado 99279" d="M457.619,118.356a.588.588,0,1,1-.587-.562A.575.575,0,0,1,457.619,118.356Z" transform="translate(-429.57 -117.336)" fill="#fff"/>
        <path id="Trazado_99279_-_Contorno" data-name="Trazado 99279 - Contorno" d="M456.99,119.333a1.02,1.02,0,1,1,1.045-1.02A1.034,1.034,0,0,1,456.99,119.333Z" transform="translate(-429.528 -117.294)" fill="#fff"/>
        <path id="Trazado_99280" data-name="Trazado 99280" d="M466.066,118.356a.588.588,0,1,1-.587-.562A.575.575,0,0,1,466.066,118.356Z" transform="translate(-432.733 -117.336)" fill="#fff"/>
        <path id="Trazado_99280_-_Contorno" data-name="Trazado 99280 - Contorno" d="M465.437,119.333a1.02,1.02,0,1,1,1.045-1.02A1.034,1.034,0,0,1,465.437,119.333Z" transform="translate(-432.691 -117.294)" fill="#fff"/>
        <path id="Trazado_99281" data-name="Trazado 99281" d="M474.512,118.356a.588.588,0,1,1-.587-.562A.575.575,0,0,1,474.512,118.356Z" transform="translate(-435.896 -117.336)" fill="#fff"/>
        <path id="Trazado_99281_-_Contorno" data-name="Trazado 99281 - Contorno" d="M473.883,119.333a1.02,1.02,0,1,1,1.045-1.02A1.034,1.034,0,0,1,473.883,119.333Z" transform="translate(-435.854 -117.294)" fill="#fff"/>
        <path id="Trazado_99282" data-name="Trazado 99282" d="M482.958,118.356a.588.588,0,1,1-.587-.562A.575.575,0,0,1,482.958,118.356Z" transform="translate(-439.058 -117.336)" fill="#fff"/>
        <path id="Trazado_99282_-_Contorno" data-name="Trazado 99282 - Contorno" d="M482.329,119.333a1.02,1.02,0,1,1,1.045-1.02A1.034,1.034,0,0,1,482.329,119.333Z" transform="translate(-439.016 -117.294)" fill="#fff"/>
        <path id="Trazado_99283" data-name="Trazado 99283" d="M491.405,118.356a.588.588,0,1,1-.587-.562A.575.575,0,0,1,491.405,118.356Z" transform="translate(-442.222 -117.336)" fill="#fff"/>
        <path id="Trazado_99283_-_Contorno" data-name="Trazado 99283 - Contorno" d="M490.776,119.333a1.02,1.02,0,1,1,1.045-1.02A1.033,1.033,0,0,1,490.776,119.333Z" transform="translate(-442.179 -117.294)" fill="#fff"/>
        <path id="Trazado_99284" data-name="Trazado 99284" d="M499.851,118.356a.588.588,0,1,1-.587-.562A.575.575,0,0,1,499.851,118.356Z" transform="translate(-445.384 -117.336)" fill="#fff"/>
        <path id="Trazado_99284_-_Contorno" data-name="Trazado 99284 - Contorno" d="M499.222,119.333a1.02,1.02,0,1,1,1.045-1.02A1.033,1.033,0,0,1,499.222,119.333Z" transform="translate(-445.342 -117.294)" fill="#fff"/>
      </g>
      <g id="Grupo_53316" data-name="Grupo 53316" transform="translate(0 44.913)">
        <ellipse id="Elipse_3980" data-name="Elipse 3980" cx="0.587" cy="0.561" rx="0.587" ry="0.561" transform="translate(0.458 0.458)" fill="#fff"/>
        <path id="Elipse_3980_-_Contorno" data-name="Elipse 3980 - Contorno" d="M.545-.5A1.033,1.033,0,0,1,1.59.519,1.033,1.033,0,0,1,.545,1.539,1.033,1.033,0,0,1-.5.519,1.033,1.033,0,0,1,.545-.5Z" transform="translate(0.5 0.5)" fill="#fff"/>
        <path id="Trazado_99285" data-name="Trazado 99285" d="M423.834,125.864a.588.588,0,1,1-.587-.562A.574.574,0,0,1,423.834,125.864Z" transform="translate(-416.919 -124.844)" fill="#fff"/>
        <path id="Trazado_99285_-_Contorno" data-name="Trazado 99285 - Contorno" d="M423.205,126.841a1.02,1.02,0,1,1,1.045-1.019A1.034,1.034,0,0,1,423.205,126.841Z" transform="translate(-416.877 -124.802)" fill="#fff"/>
        <ellipse id="Elipse_3981" data-name="Elipse 3981" cx="0.587" cy="0.561" rx="0.587" ry="0.561" transform="translate(11.025 0.458)" fill="#fff"/>
        <path id="Elipse_3981_-_Contorno" data-name="Elipse 3981 - Contorno" d="M.545-.5A1.033,1.033,0,0,1,1.59.519,1.033,1.033,0,0,1,.545,1.539,1.033,1.033,0,0,1-.5.519,1.033,1.033,0,0,1,.545-.5Z" transform="translate(11.067 0.5)" fill="#fff"/>
        <path id="Trazado_99286" data-name="Trazado 99286" d="M440.727,125.864a.588.588,0,1,1-.587-.562A.575.575,0,0,1,440.727,125.864Z" transform="translate(-423.245 -124.844)" fill="#fff"/>
        <path id="Trazado_99286_-_Contorno" data-name="Trazado 99286 - Contorno" d="M440.1,126.841a1.02,1.02,0,1,1,1.045-1.019A1.033,1.033,0,0,1,440.1,126.841Z" transform="translate(-423.202 -124.802)" fill="#fff"/>
        <path id="Trazado_99287" data-name="Trazado 99287" d="M449.173,125.864a.588.588,0,1,1-.587-.562A.574.574,0,0,1,449.173,125.864Z" transform="translate(-426.407 -124.844)" fill="#fff"/>
        <path id="Trazado_99287_-_Contorno" data-name="Trazado 99287 - Contorno" d="M448.544,126.841a1.02,1.02,0,1,1,1.045-1.019A1.034,1.034,0,0,1,448.544,126.841Z" transform="translate(-426.365 -124.802)" fill="#fff"/>
        <ellipse id="Elipse_3982" data-name="Elipse 3982" cx="0.587" cy="0.561" rx="0.587" ry="0.561" transform="translate(26.875 0.458)" fill="#fff"/>
        <path id="Elipse_3982_-_Contorno" data-name="Elipse 3982 - Contorno" d="M.545-.5A1.033,1.033,0,0,1,1.59.519,1.033,1.033,0,0,1,.545,1.539,1.033,1.033,0,0,1-.5.519,1.033,1.033,0,0,1,.545-.5Z" transform="translate(26.918 0.5)" fill="#fff"/>
        <path id="Trazado_99288" data-name="Trazado 99288" d="M466.066,125.864a.588.588,0,1,1-.587-.562A.575.575,0,0,1,466.066,125.864Z" transform="translate(-432.733 -124.844)" fill="#fff"/>
        <path id="Trazado_99288_-_Contorno" data-name="Trazado 99288 - Contorno" d="M465.437,126.841a1.02,1.02,0,1,1,1.045-1.019A1.033,1.033,0,0,1,465.437,126.841Z" transform="translate(-432.691 -124.802)" fill="#fff"/>
        <ellipse id="Elipse_3983" data-name="Elipse 3983" cx="0.587" cy="0.561" rx="0.587" ry="0.561" transform="translate(37.442 0.458)" fill="#fff"/>
        <path id="Elipse_3983_-_Contorno" data-name="Elipse 3983 - Contorno" d="M.545-.5A1.033,1.033,0,0,1,1.59.519,1.033,1.033,0,0,1,.545,1.539,1.033,1.033,0,0,1-.5.519,1.033,1.033,0,0,1,.545-.5Z" transform="translate(37.485 0.5)" fill="#fff"/>
        <ellipse id="Elipse_3984" data-name="Elipse 3984" cx="0.587" cy="0.561" rx="0.587" ry="0.561" transform="translate(42.726 0.458)" fill="#fff"/>
        <path id="Elipse_3984_-_Contorno" data-name="Elipse 3984 - Contorno" d="M.545-.5A1.033,1.033,0,0,1,1.59.519,1.033,1.033,0,0,1,.545,1.539,1.033,1.033,0,0,1-.5.519,1.033,1.033,0,0,1,.545-.5Z" transform="translate(42.768 0.5)" fill="#fff"/>
        <path id="Trazado_99289" data-name="Trazado 99289" d="M491.405,125.864a.588.588,0,1,1-.587-.562A.575.575,0,0,1,491.405,125.864Z" transform="translate(-442.222 -124.844)" fill="#fff"/>
        <path id="Trazado_99289_-_Contorno" data-name="Trazado 99289 - Contorno" d="M490.776,126.841a1.02,1.02,0,1,1,1.045-1.019A1.033,1.033,0,0,1,490.776,126.841Z" transform="translate(-442.179 -124.802)" fill="#fff"/>
        <path id="Trazado_99290" data-name="Trazado 99290" d="M499.851,125.864a.588.588,0,1,1-.587-.562A.575.575,0,0,1,499.851,125.864Z" transform="translate(-445.384 -124.844)" fill="#fff"/>
        <path id="Trazado_99290_-_Contorno" data-name="Trazado 99290 - Contorno" d="M499.222,126.841a1.02,1.02,0,1,1,1.045-1.019A1.033,1.033,0,0,1,499.222,126.841Z" transform="translate(-445.342 -124.802)" fill="#fff"/>
      </g>
      <g id="Grupo_53317" data-name="Grupo 53317" transform="translate(0 49.405)">
        <ellipse id="Elipse_3985" data-name="Elipse 3985" cx="0.587" cy="0.561" rx="0.587" ry="0.561" transform="translate(0.458 0.458)" fill="#fff"/>
        <path id="Elipse_3985_-_Contorno" data-name="Elipse 3985 - Contorno" d="M.545-.5A1.033,1.033,0,0,1,1.59.519,1.033,1.033,0,0,1,.545,1.539,1.033,1.033,0,0,1-.5.519,1.033,1.033,0,0,1,.545-.5Z" transform="translate(0.5 0.5)" fill="#fff"/>
        <path id="Trazado_99291" data-name="Trazado 99291" d="M423.834,133.372a.588.588,0,1,1-.587-.562A.574.574,0,0,1,423.834,133.372Z" transform="translate(-416.919 -132.352)" fill="#fff"/>
        <path id="Trazado_99291_-_Contorno" data-name="Trazado 99291 - Contorno" d="M423.205,134.349a1.02,1.02,0,1,1,1.045-1.019A1.034,1.034,0,0,1,423.205,134.349Z" transform="translate(-416.877 -132.31)" fill="#fff"/>
        <ellipse id="Elipse_3986" data-name="Elipse 3986" cx="0.587" cy="0.561" rx="0.587" ry="0.561" transform="translate(11.025 0.458)" fill="#fff"/>
        <path id="Elipse_3986_-_Contorno" data-name="Elipse 3986 - Contorno" d="M.545-.5A1.033,1.033,0,0,1,1.59.519,1.033,1.033,0,0,1,.545,1.539,1.033,1.033,0,0,1-.5.519,1.033,1.033,0,0,1,.545-.5Z" transform="translate(11.067 0.5)" fill="#fff"/>
        <path id="Trazado_99292" data-name="Trazado 99292" d="M440.727,133.372a.588.588,0,1,1-.587-.562A.575.575,0,0,1,440.727,133.372Z" transform="translate(-423.245 -132.352)" fill="#fff"/>
        <path id="Trazado_99292_-_Contorno" data-name="Trazado 99292 - Contorno" d="M440.1,134.349a1.02,1.02,0,1,1,1.045-1.019A1.033,1.033,0,0,1,440.1,134.349Z" transform="translate(-423.202 -132.31)" fill="#fff"/>
        <path id="Trazado_99293" data-name="Trazado 99293" d="M449.173,133.372a.588.588,0,1,1-.587-.562A.574.574,0,0,1,449.173,133.372Z" transform="translate(-426.407 -132.352)" fill="#fff"/>
        <path id="Trazado_99293_-_Contorno" data-name="Trazado 99293 - Contorno" d="M448.544,134.349a1.02,1.02,0,1,1,1.045-1.019A1.034,1.034,0,0,1,448.544,134.349Z" transform="translate(-426.365 -132.31)" fill="#fff"/>
        <ellipse id="Elipse_3987" data-name="Elipse 3987" cx="0.587" cy="0.561" rx="0.587" ry="0.561" transform="translate(26.875 0.458)" fill="#fff"/>
        <path id="Elipse_3987_-_Contorno" data-name="Elipse 3987 - Contorno" d="M.545-.5A1.033,1.033,0,0,1,1.59.519,1.033,1.033,0,0,1,.545,1.539,1.033,1.033,0,0,1-.5.519,1.033,1.033,0,0,1,.545-.5Z" transform="translate(26.918 0.5)" fill="#fff"/>
        <path id="Trazado_99294" data-name="Trazado 99294" d="M466.066,133.372a.588.588,0,1,1-.587-.562A.575.575,0,0,1,466.066,133.372Z" transform="translate(-432.733 -132.352)" fill="#fff"/>
        <path id="Trazado_99294_-_Contorno" data-name="Trazado 99294 - Contorno" d="M465.437,134.349a1.02,1.02,0,1,1,1.045-1.019A1.033,1.033,0,0,1,465.437,134.349Z" transform="translate(-432.691 -132.31)" fill="#fff"/>
        <ellipse id="Elipse_3988" data-name="Elipse 3988" cx="0.587" cy="0.561" rx="0.587" ry="0.561" transform="translate(37.442 0.458)" fill="#fff"/>
        <path id="Elipse_3988_-_Contorno" data-name="Elipse 3988 - Contorno" d="M.545-.5A1.033,1.033,0,0,1,1.59.519,1.033,1.033,0,0,1,.545,1.539,1.033,1.033,0,0,1-.5.519,1.033,1.033,0,0,1,.545-.5Z" transform="translate(37.485 0.5)" fill="#fff"/>
        <ellipse id="Elipse_3989" data-name="Elipse 3989" cx="0.587" cy="0.561" rx="0.587" ry="0.561" transform="translate(42.726 0.458)" fill="#fff"/>
        <path id="Elipse_3989_-_Contorno" data-name="Elipse 3989 - Contorno" d="M.545-.5A1.033,1.033,0,0,1,1.59.519,1.033,1.033,0,0,1,.545,1.539,1.033,1.033,0,0,1-.5.519,1.033,1.033,0,0,1,.545-.5Z" transform="translate(42.768 0.5)" fill="#fff"/>
        <path id="Trazado_99295" data-name="Trazado 99295" d="M491.405,133.372a.588.588,0,1,1-.587-.562A.575.575,0,0,1,491.405,133.372Z" transform="translate(-442.222 -132.352)" fill="#fff"/>
        <path id="Trazado_99295_-_Contorno" data-name="Trazado 99295 - Contorno" d="M490.776,134.349a1.02,1.02,0,1,1,1.045-1.019A1.033,1.033,0,0,1,490.776,134.349Z" transform="translate(-442.179 -132.31)" fill="#fff"/>
        <path id="Trazado_99296" data-name="Trazado 99296" d="M499.851,133.372a.588.588,0,1,1-.587-.562A.575.575,0,0,1,499.851,133.372Z" transform="translate(-445.384 -132.352)" fill="#fff"/>
        <path id="Trazado_99296_-_Contorno" data-name="Trazado 99296 - Contorno" d="M499.222,134.349a1.02,1.02,0,1,1,1.045-1.019A1.033,1.033,0,0,1,499.222,134.349Z" transform="translate(-445.342 -132.31)" fill="#fff"/>
      </g>
    </g>
    <path id="Lnea_138" data-name="Lnea 138" d="M-.456,92.878l0-4.972H.457l0,4.972Zm-.006-12.3,0-7.325H.45l0,7.325ZM-.469,65.929l0-7.325H.443l0,7.325ZM-.476,51.278l0-7.325H.436l0,7.325ZM-.483,36.627l0-7.325H.43l0,7.325ZM-.49,21.976l0-7.325H.423l0,7.325ZM-.5,7.326-.5,0H.416l0,7.325Z" transform="translate(890.657 946.53)" fill="#3c6d9d" style="mix-blend-mode: multiply;isolation: isolate"/>
    <g id="_000000ff" data-name="#000000ff" transform="translate(955 968.857)">
      <path id="Trazado_188961" data-name="Trazado 188961" d="M8.388,12.43A6.768,6.768,0,0,1,14.707,8q25.521-.01,51.041,0a9.453,9.453,0,0,1,9.593,9.433q.013,12.518,0,25.037,3.807,3.81,7.616,7.616a1.441,1.441,0,0,1-.17,2.23c-1.246,1.231-2.477,2.477-3.719,3.712a1.389,1.389,0,0,1-1.369.429,2.456,2.456,0,0,1-1.016-.738q-.561.558-1.118,1.12,7.73,7.736,15.466,15.468a1.368,1.368,0,0,1,.079,1.987c-1.12,1.132-2.245,2.262-3.38,3.379a1.342,1.342,0,0,1-1.881-.008q-5.262-5.237-10.5-10.5-.01,6.793,0,13.586c1.352.008,2.707-.015,4.057.008a1.366,1.366,0,0,1,1.332,1.5c-.044,1.6.18,3.271-.4,4.807a6.765,6.765,0,0,1-4.7,4.256,11.827,11.827,0,0,1-2.986.207H25.656a6.794,6.794,0,0,1-6.693-5.1,11.776,11.776,0,0,1-.207-2.989V26.86c-3.151-.007-6.3.012-9.453-.008a1.329,1.329,0,0,1-1.317-1.319c-.02-2.983,0-5.964-.008-8.946a11.4,11.4,0,0,1,.411-4.157m2.294,2.132c-.024,3.2,0,6.4-.01,9.6h8.084c0-3.035,0-6.068,0-9.1a4.452,4.452,0,0,0-.365-1.991,4.036,4.036,0,0,0-7.712,1.491m9.394-3.872a6.83,6.83,0,0,1,1.373,4.044q.01,35.032.005,70.063a4.037,4.037,0,0,0,7.661,1.78c.746-1.494.253-3.212.465-4.8a1.372,1.372,0,0,1,1.469-1.021h41.6V64.468c-.787-.785-1.568-1.575-2.358-2.355q-.561.558-1.117,1.118a2.133,2.133,0,0,1,.766,1.187,1.413,1.413,0,0,1-.461,1.2L65.605,69.5a1.368,1.368,0,0,1-1.984.084q-4.689-4.666-9.356-9.349a1.436,1.436,0,0,1,.167-2.24c1.245-1.233,2.477-2.476,3.717-3.712a1.377,1.377,0,0,1,1.2-.458,2.143,2.143,0,0,1,1.177.77q3.762-3.754,7.517-7.515a1.911,1.911,0,0,1-.785-1.352,1.754,1.754,0,0,1,.726-1.287c1.246-1.231,2.472-2.481,3.72-3.71a1.811,1.811,0,0,1,.941-.428q0-11.437,0-22.873a6.753,6.753,0,0,0-6.905-6.733q-22.833,0-45.665,0m50.44,35.033q3.759,3.764,7.523,7.525c.717-.707,1.425-1.425,2.139-2.136q-3.764-3.764-7.528-7.525c-.711.711-1.425,1.421-2.134,2.136M62.432,56.5q2.41,2.42,4.829,4.832,3.767-3.762,7.527-7.527-2.418-2.415-4.832-4.829L62.432,56.5m-5.389,2.7q3.759,3.764,7.523,7.525c.717-.707,1.423-1.423,2.137-2.134q-3.757-3.769-7.527-7.527c-.711.711-1.425,1.421-2.134,2.136M72.2,60.205q7.3,7.3,14.6,14.6.733-.73,1.464-1.462-7.3-7.3-14.6-14.6-.733.73-1.46,1.46M32.229,83.449A7.724,7.724,0,0,1,30.88,88.82c14.317.042,28.635.005,42.952.02a4.083,4.083,0,0,0,3.842-2.378,6.756,6.756,0,0,0,.364-3.013Z" transform="translate(-7.972 -7.996)" fill="#fff"/>
      <path id="Trazado_188962" data-name="Trazado 188962" d="M112,56h44.463v2.695H112Z" transform="translate(-94.48 -47.915)" fill="#fff"/>
      <path id="Trazado_188963" data-name="Trazado 188963" d="M112,88h44.463v2.695H112Z" transform="translate(-94.48 -74.526)" fill="#fff"/>
      <path id="Trazado_188964" data-name="Trazado 188964" d="M112,120h44.463v2.695H112Z" transform="translate(-94.48 -101.136)" fill="#fff"/>
      <path id="Trazado_188965" data-name="Trazado 188965" d="M112,152h44.463v2.695H112Z" transform="translate(-94.48 -127.747)" fill="#fff"/>
      <path id="Trazado_188966" data-name="Trazado 188966" d="M112,184h44.463v2.695H112Z" transform="translate(-94.48 -154.357)" fill="#fff"/>
      <path id="Trazado_188967" data-name="Trazado 188967" d="M112,216h39.074v2.695H112Z" transform="translate(-94.48 -180.968)" fill="#fff"/>
      <path id="Trazado_188968" data-name="Trazado 188968" d="M112,248h36.379v2.695H112Z" transform="translate(-94.48 -207.578)" fill="#fff"/>
      <path id="Trazado_188969" data-name="Trazado 188969" d="M114.37,280.132a12.16,12.16,0,1,1-6.809,3.431,12.124,12.124,0,0,1,6.809-3.431m.34,2.681a9.431,9.431,0,1,0,6.991,1.718A9.462,9.462,0,0,0,114.71,282.813Z" transform="translate(-87.832 -234.193)" fill="#fff"/>
      <path id="Trazado_188970" data-name="Trazado 188970" d="M141.5,312.145a6.739,6.739,0,1,1-4.531,3.181,6.734,6.734,0,0,1,4.531-3.181m.317,2.685a4.078,4.078,0,0,0-2.739,2.264,4.035,4.035,0,1,0,2.739-2.264Z" transform="translate(-114.462 -260.823)" fill="#fff"/>
      <path id="Trazado_188971" data-name="Trazado 188971" d="M269.711,384.507a1.343,1.343,0,0,1,2.048-.008,1.987,1.987,0,0,1,.355,1.213,2.693,2.693,0,0,0,2.663,2.351c1.8.01,3.592,0,5.389,0v2.695c-1.856-.008-3.714.015-5.57-.012a5.527,5.527,0,0,1-4.4-2.508,8.979,8.979,0,0,1-6.2,2.523c0-.9,0-1.794,0-2.691a6.334,6.334,0,0,0,4.143-1.6A10.862,10.862,0,0,0,269.711,384.507Z" transform="translate(-220.878 -320.697)" fill="#fff"/>
    </g>
  </g>
</svg>
