<svg xmlns="http://www.w3.org/2000/svg" width="231.667" height="149.256" viewBox="0 0 231.667 149.256">
  <g id="t2-c4" transform="translate(4228 9707.966)">
    <g id="Grupo_107976" data-name="Grupo 107976" transform="translate(-5109 -10643.966)">
      <path id="Trazado_188960" data-name="Trazado 188960" d="M30,0H223.208a38.458,38.458,0,0,1,38.458,38.458v110.8H68.458A38.458,38.458,0,0,1,30,110.8Z" transform="translate(851 936)" fill="#3c6d9d"/>
      <path id="Trazado_145971" data-name="Trazado 145971" d="M7.49,0A7.49,7.49,0,1,1,0,7.49,7.49,7.49,0,0,1,7.49,0Z" transform="translate(912.424 1051.868)" fill="#64b5f6" opacity="0.444" style="mix-blend-mode: multiply;isolation: isolate"/>
      <g id="Grupo_78276" data-name="Grupo 78276" transform="translate(1043.933 1022.385)" opacity="0.32">
        <g id="Grupo_53306" data-name="Grupo 53306" transform="translate(0 0)">
          <path id="Trazado_99200" data-name="Trazado 99200" d="M415.388,50.785a.588.588,0,1,1-.587-.561A.575.575,0,0,1,415.388,50.785Z" transform="translate(-413.756 -49.766)" fill="#fff"/>
          <path id="Trazado_99200_-_Contorno" data-name="Trazado 99200 - Contorno" d="M414.759,49.724a1.02,1.02,0,1,1-1.045,1.019A1.034,1.034,0,0,1,414.759,49.724Z" transform="translate(-413.714 -49.724)" fill="#fff"/>
          <path id="Trazado_99201" data-name="Trazado 99201" d="M423.834,50.785a.588.588,0,1,1-.587-.561A.574.574,0,0,1,423.834,50.785Z" transform="translate(-416.919 -49.766)" fill="#fff"/>
          <path id="Trazado_99201_-_Contorno" data-name="Trazado 99201 - Contorno" d="M423.205,49.724a1.02,1.02,0,1,1-1.045,1.019A1.033,1.033,0,0,1,423.205,49.724Z" transform="translate(-416.877 -49.724)" fill="#fff"/>
          <path id="Trazado_99202" data-name="Trazado 99202" d="M432.28,50.785a.588.588,0,1,1-.587-.561A.575.575,0,0,1,432.28,50.785Z" transform="translate(-420.082 -49.766)" fill="#fff"/>
          <path id="Trazado_99202_-_Contorno" data-name="Trazado 99202 - Contorno" d="M431.651,49.724a1.02,1.02,0,1,1-1.045,1.019A1.033,1.033,0,0,1,431.651,49.724Z" transform="translate(-420.039 -49.724)" fill="#fff"/>
          <path id="Trazado_99203" data-name="Trazado 99203" d="M440.727,50.785a.588.588,0,1,1-.587-.561A.575.575,0,0,1,440.727,50.785Z" transform="translate(-423.245 -49.766)" fill="#fff"/>
          <path id="Trazado_99203_-_Contorno" data-name="Trazado 99203 - Contorno" d="M440.1,49.724a1.02,1.02,0,1,1-1.045,1.019A1.034,1.034,0,0,1,440.1,49.724Z" transform="translate(-423.203 -49.724)" fill="#fff"/>
          <path id="Trazado_99204" data-name="Trazado 99204" d="M449.173,50.785a.588.588,0,1,1-.587-.561A.575.575,0,0,1,449.173,50.785Z" transform="translate(-426.407 -49.766)" fill="#fff"/>
          <path id="Trazado_99204_-_Contorno" data-name="Trazado 99204 - Contorno" d="M448.544,49.724a1.02,1.02,0,1,1-1.045,1.019A1.033,1.033,0,0,1,448.544,49.724Z" transform="translate(-426.365 -49.724)" fill="#fff"/>
          <path id="Trazado_99205" data-name="Trazado 99205" d="M457.619,50.785a.588.588,0,1,1-.587-.561A.574.574,0,0,1,457.619,50.785Z" transform="translate(-429.57 -49.766)" fill="#fff"/>
          <path id="Trazado_99205_-_Contorno" data-name="Trazado 99205 - Contorno" d="M456.99,49.724a1.02,1.02,0,1,1-1.045,1.019A1.033,1.033,0,0,1,456.99,49.724Z" transform="translate(-429.528 -49.724)" fill="#fff"/>
          <path id="Trazado_99206" data-name="Trazado 99206" d="M466.066,50.785a.588.588,0,1,1-.587-.561A.575.575,0,0,1,466.066,50.785Z" transform="translate(-432.733 -49.766)" fill="#fff"/>
          <path id="Trazado_99206_-_Contorno" data-name="Trazado 99206 - Contorno" d="M465.437,49.724a1.02,1.02,0,1,1-1.045,1.019A1.034,1.034,0,0,1,465.437,49.724Z" transform="translate(-432.691 -49.724)" fill="#fff"/>
          <path id="Trazado_99207" data-name="Trazado 99207" d="M474.512,50.785a.588.588,0,1,1-.587-.561A.575.575,0,0,1,474.512,50.785Z" transform="translate(-435.896 -49.766)" fill="#fff"/>
          <path id="Trazado_99207_-_Contorno" data-name="Trazado 99207 - Contorno" d="M473.883,49.724a1.02,1.02,0,1,1-1.045,1.019A1.033,1.033,0,0,1,473.883,49.724Z" transform="translate(-435.854 -49.724)" fill="#fff"/>
          <path id="Trazado_99208" data-name="Trazado 99208" d="M482.958,50.785a.588.588,0,1,1-.587-.561A.575.575,0,0,1,482.958,50.785Z" transform="translate(-439.058 -49.766)" fill="#fff"/>
          <path id="Trazado_99208_-_Contorno" data-name="Trazado 99208 - Contorno" d="M482.329,49.724a1.02,1.02,0,1,1-1.045,1.019A1.033,1.033,0,0,1,482.329,49.724Z" transform="translate(-439.016 -49.724)" fill="#fff"/>
          <path id="Trazado_99209" data-name="Trazado 99209" d="M491.405,50.785a.588.588,0,1,1-.587-.561A.575.575,0,0,1,491.405,50.785Z" transform="translate(-442.222 -49.766)" fill="#fff"/>
          <path id="Trazado_99209_-_Contorno" data-name="Trazado 99209 - Contorno" d="M490.776,49.724a1.02,1.02,0,1,1-1.045,1.019A1.034,1.034,0,0,1,490.776,49.724Z" transform="translate(-442.179 -49.724)" fill="#fff"/>
          <path id="Trazado_99210" data-name="Trazado 99210" d="M499.851,50.785a.588.588,0,1,1-.587-.561A.575.575,0,0,1,499.851,50.785Z" transform="translate(-445.384 -49.766)" fill="#fff"/>
          <path id="Trazado_99210_-_Contorno" data-name="Trazado 99210 - Contorno" d="M499.222,49.724a1.02,1.02,0,1,1-1.045,1.019A1.034,1.034,0,0,1,499.222,49.724Z" transform="translate(-445.342 -49.724)" fill="#fff"/>
        </g>
        <g id="Grupo_53307" data-name="Grupo 53307" transform="translate(0 4.491)">
          <path id="Trazado_99211" data-name="Trazado 99211" d="M415.388,58.293a.588.588,0,1,1-.587-.561A.575.575,0,0,1,415.388,58.293Z" transform="translate(-413.756 -57.274)" fill="#fff"/>
          <path id="Trazado_99211_-_Contorno" data-name="Trazado 99211 - Contorno" d="M414.759,57.232a1.02,1.02,0,1,1-1.045,1.019A1.034,1.034,0,0,1,414.759,57.232Z" transform="translate(-413.714 -57.232)" fill="#fff"/>
          <path id="Trazado_99212" data-name="Trazado 99212" d="M423.834,58.293a.588.588,0,1,1-.587-.561A.574.574,0,0,1,423.834,58.293Z" transform="translate(-416.919 -57.274)" fill="#fff"/>
          <path id="Trazado_99212_-_Contorno" data-name="Trazado 99212 - Contorno" d="M423.205,57.232a1.02,1.02,0,1,1-1.045,1.019A1.033,1.033,0,0,1,423.205,57.232Z" transform="translate(-416.877 -57.232)" fill="#fff"/>
          <path id="Trazado_99213" data-name="Trazado 99213" d="M432.28,58.293a.588.588,0,1,1-.587-.561A.574.574,0,0,1,432.28,58.293Z" transform="translate(-420.082 -57.274)" fill="#fff"/>
          <path id="Trazado_99213_-_Contorno" data-name="Trazado 99213 - Contorno" d="M431.651,57.232a1.02,1.02,0,1,1-1.045,1.019A1.033,1.033,0,0,1,431.651,57.232Z" transform="translate(-420.039 -57.232)" fill="#fff"/>
          <path id="Trazado_99214" data-name="Trazado 99214" d="M440.727,58.293a.588.588,0,1,1-.587-.561A.575.575,0,0,1,440.727,58.293Z" transform="translate(-423.245 -57.274)" fill="#fff"/>
          <path id="Trazado_99214_-_Contorno" data-name="Trazado 99214 - Contorno" d="M440.1,57.232a1.02,1.02,0,1,1-1.045,1.019A1.034,1.034,0,0,1,440.1,57.232Z" transform="translate(-423.203 -57.232)" fill="#fff"/>
          <path id="Trazado_99215" data-name="Trazado 99215" d="M449.173,58.293a.588.588,0,1,1-.587-.561A.575.575,0,0,1,449.173,58.293Z" transform="translate(-426.407 -57.274)" fill="#fff"/>
          <path id="Trazado_99215_-_Contorno" data-name="Trazado 99215 - Contorno" d="M448.544,57.232a1.02,1.02,0,1,1-1.045,1.019A1.033,1.033,0,0,1,448.544,57.232Z" transform="translate(-426.365 -57.232)" fill="#fff"/>
          <path id="Trazado_99216" data-name="Trazado 99216" d="M457.619,58.293a.588.588,0,1,1-.587-.561A.574.574,0,0,1,457.619,58.293Z" transform="translate(-429.57 -57.274)" fill="#fff"/>
          <path id="Trazado_99216_-_Contorno" data-name="Trazado 99216 - Contorno" d="M456.99,57.232a1.02,1.02,0,1,1-1.045,1.019A1.033,1.033,0,0,1,456.99,57.232Z" transform="translate(-429.528 -57.232)" fill="#fff"/>
          <path id="Trazado_99217" data-name="Trazado 99217" d="M466.066,58.293a.588.588,0,1,1-.587-.561A.575.575,0,0,1,466.066,58.293Z" transform="translate(-432.733 -57.274)" fill="#fff"/>
          <path id="Trazado_99217_-_Contorno" data-name="Trazado 99217 - Contorno" d="M465.437,57.232a1.02,1.02,0,1,1-1.045,1.019A1.034,1.034,0,0,1,465.437,57.232Z" transform="translate(-432.691 -57.232)" fill="#fff"/>
          <path id="Trazado_99218" data-name="Trazado 99218" d="M474.512,58.293a.588.588,0,1,1-.587-.561A.575.575,0,0,1,474.512,58.293Z" transform="translate(-435.896 -57.274)" fill="#fff"/>
          <path id="Trazado_99218_-_Contorno" data-name="Trazado 99218 - Contorno" d="M473.883,57.232a1.02,1.02,0,1,1-1.045,1.019A1.033,1.033,0,0,1,473.883,57.232Z" transform="translate(-435.854 -57.232)" fill="#fff"/>
          <path id="Trazado_99219" data-name="Trazado 99219" d="M482.958,58.293a.588.588,0,1,1-.587-.561A.575.575,0,0,1,482.958,58.293Z" transform="translate(-439.058 -57.274)" fill="#fff"/>
          <path id="Trazado_99219_-_Contorno" data-name="Trazado 99219 - Contorno" d="M482.329,57.232a1.02,1.02,0,1,1-1.045,1.019A1.033,1.033,0,0,1,482.329,57.232Z" transform="translate(-439.016 -57.232)" fill="#fff"/>
          <path id="Trazado_99220" data-name="Trazado 99220" d="M491.405,58.293a.588.588,0,1,1-.587-.561A.575.575,0,0,1,491.405,58.293Z" transform="translate(-442.222 -57.274)" fill="#fff"/>
          <path id="Trazado_99220_-_Contorno" data-name="Trazado 99220 - Contorno" d="M490.776,57.232a1.02,1.02,0,1,1-1.045,1.019A1.034,1.034,0,0,1,490.776,57.232Z" transform="translate(-442.179 -57.232)" fill="#fff"/>
          <path id="Trazado_99221" data-name="Trazado 99221" d="M499.851,58.293a.588.588,0,1,1-.587-.561A.575.575,0,0,1,499.851,58.293Z" transform="translate(-445.384 -57.274)" fill="#fff"/>
          <path id="Trazado_99221_-_Contorno" data-name="Trazado 99221 - Contorno" d="M499.222,57.232a1.02,1.02,0,1,1-1.045,1.019A1.034,1.034,0,0,1,499.222,57.232Z" transform="translate(-445.342 -57.232)" fill="#fff"/>
        </g>
        <g id="Grupo_53308" data-name="Grupo 53308" transform="translate(0 8.983)">
          <ellipse id="Elipse_3955" data-name="Elipse 3955" cx="0.587" cy="0.561" rx="0.587" ry="0.561" transform="translate(0.458 0.458)" fill="#fff"/>
          <path id="Elipse_3955_-_Contorno" data-name="Elipse 3955 - Contorno" d="M.545-.5A1.033,1.033,0,0,1,1.59.519,1.033,1.033,0,0,1,.545,1.539,1.033,1.033,0,0,1-.5.519,1.033,1.033,0,0,1,.545-.5Z" transform="translate(0.5 0.5)" fill="#fff"/>
          <path id="Trazado_99222" data-name="Trazado 99222" d="M423.834,65.8a.588.588,0,1,1-.587-.561A.575.575,0,0,1,423.834,65.8Z" transform="translate(-416.919 -64.782)" fill="#fff"/>
          <path id="Trazado_99222_-_Contorno" data-name="Trazado 99222 - Contorno" d="M423.205,64.74a1.02,1.02,0,1,1-1.045,1.019A1.033,1.033,0,0,1,423.205,64.74Z" transform="translate(-416.877 -64.74)" fill="#fff"/>
          <ellipse id="Elipse_3956" data-name="Elipse 3956" cx="0.587" cy="0.561" rx="0.587" ry="0.561" transform="translate(11.025 0.458)" fill="#fff"/>
          <path id="Elipse_3956_-_Contorno" data-name="Elipse 3956 - Contorno" d="M.545-.5A1.033,1.033,0,0,1,1.59.519,1.033,1.033,0,0,1,.545,1.539,1.033,1.033,0,0,1-.5.519,1.033,1.033,0,0,1,.545-.5Z" transform="translate(11.067 0.5)" fill="#fff"/>
          <path id="Trazado_99223" data-name="Trazado 99223" d="M440.727,65.8a.588.588,0,1,1-.587-.561A.575.575,0,0,1,440.727,65.8Z" transform="translate(-423.245 -64.782)" fill="#fff"/>
          <path id="Trazado_99223_-_Contorno" data-name="Trazado 99223 - Contorno" d="M440.1,64.74a1.02,1.02,0,1,1-1.045,1.019A1.034,1.034,0,0,1,440.1,64.74Z" transform="translate(-423.202 -64.74)" fill="#fff"/>
          <path id="Trazado_99224" data-name="Trazado 99224" d="M449.173,65.8a.588.588,0,1,1-.587-.561A.575.575,0,0,1,449.173,65.8Z" transform="translate(-426.407 -64.782)" fill="#fff"/>
          <path id="Trazado_99224_-_Contorno" data-name="Trazado 99224 - Contorno" d="M448.544,64.74a1.02,1.02,0,1,1-1.045,1.019A1.033,1.033,0,0,1,448.544,64.74Z" transform="translate(-426.365 -64.74)" fill="#fff"/>
          <ellipse id="Elipse_3957" data-name="Elipse 3957" cx="0.587" cy="0.561" rx="0.587" ry="0.561" transform="translate(26.875 0.458)" fill="#fff"/>
          <path id="Elipse_3957_-_Contorno" data-name="Elipse 3957 - Contorno" d="M.545-.5A1.033,1.033,0,0,1,1.59.519,1.033,1.033,0,0,1,.545,1.539,1.033,1.033,0,0,1-.5.519,1.033,1.033,0,0,1,.545-.5Z" transform="translate(26.918 0.5)" fill="#fff"/>
          <path id="Trazado_99225" data-name="Trazado 99225" d="M466.066,65.8a.588.588,0,1,1-.587-.561A.575.575,0,0,1,466.066,65.8Z" transform="translate(-432.733 -64.782)" fill="#fff"/>
          <path id="Trazado_99225_-_Contorno" data-name="Trazado 99225 - Contorno" d="M465.437,64.74a1.02,1.02,0,1,1-1.045,1.019A1.033,1.033,0,0,1,465.437,64.74Z" transform="translate(-432.691 -64.74)" fill="#fff"/>
          <ellipse id="Elipse_3958" data-name="Elipse 3958" cx="0.587" cy="0.561" rx="0.587" ry="0.561" transform="translate(37.442 0.458)" fill="#fff"/>
          <path id="Elipse_3958_-_Contorno" data-name="Elipse 3958 - Contorno" d="M.545-.5A1.033,1.033,0,0,1,1.59.519,1.033,1.033,0,0,1,.545,1.539,1.033,1.033,0,0,1-.5.519,1.033,1.033,0,0,1,.545-.5Z" transform="translate(37.485 0.5)" fill="#fff"/>
          <ellipse id="Elipse_3959" data-name="Elipse 3959" cx="0.587" cy="0.561" rx="0.587" ry="0.561" transform="translate(42.726 0.458)" fill="#fff"/>
          <path id="Elipse_3959_-_Contorno" data-name="Elipse 3959 - Contorno" d="M.545-.5A1.033,1.033,0,0,1,1.59.519,1.033,1.033,0,0,1,.545,1.539,1.033,1.033,0,0,1-.5.519,1.033,1.033,0,0,1,.545-.5Z" transform="translate(42.768 0.5)" fill="#fff"/>
          <path id="Trazado_99226" data-name="Trazado 99226" d="M491.405,65.8a.588.588,0,1,1-.587-.561A.575.575,0,0,1,491.405,65.8Z" transform="translate(-442.222 -64.782)" fill="#fff"/>
          <path id="Trazado_99226_-_Contorno" data-name="Trazado 99226 - Contorno" d="M490.776,64.74a1.02,1.02,0,1,1-1.045,1.019A1.034,1.034,0,0,1,490.776,64.74Z" transform="translate(-442.179 -64.74)" fill="#fff"/>
          <path id="Trazado_99227" data-name="Trazado 99227" d="M499.851,65.8a.588.588,0,1,1-.587-.561A.575.575,0,0,1,499.851,65.8Z" transform="translate(-445.384 -64.782)" fill="#fff"/>
          <path id="Trazado_99227_-_Contorno" data-name="Trazado 99227 - Contorno" d="M499.222,64.74a1.02,1.02,0,1,1-1.045,1.019A1.034,1.034,0,0,1,499.222,64.74Z" transform="translate(-445.342 -64.74)" fill="#fff"/>
        </g>
        <g id="Grupo_53309" data-name="Grupo 53309" transform="translate(0 13.474)">
          <ellipse id="Elipse_3960" data-name="Elipse 3960" cx="0.587" cy="0.561" rx="0.587" ry="0.561" transform="translate(0.458 0.458)" fill="#fff"/>
          <path id="Elipse_3960_-_Contorno" data-name="Elipse 3960 - Contorno" d="M.545-.5A1.033,1.033,0,0,1,1.59.519,1.033,1.033,0,0,1,.545,1.539,1.033,1.033,0,0,1-.5.519,1.033,1.033,0,0,1,.545-.5Z" transform="translate(0.5 0.5)" fill="#fff"/>
          <path id="Trazado_99228" data-name="Trazado 99228" d="M423.834,73.309a.588.588,0,1,1-.587-.562A.574.574,0,0,1,423.834,73.309Z" transform="translate(-416.919 -72.289)" fill="#fff"/>
          <path id="Trazado_99228_-_Contorno" data-name="Trazado 99228 - Contorno" d="M423.205,74.286a1.02,1.02,0,1,1,1.045-1.019A1.034,1.034,0,0,1,423.205,74.286Z" transform="translate(-416.877 -72.247)" fill="#fff"/>
          <ellipse id="Elipse_3961" data-name="Elipse 3961" cx="0.587" cy="0.561" rx="0.587" ry="0.561" transform="translate(11.025 0.458)" fill="#fff"/>
          <path id="Elipse_3961_-_Contorno" data-name="Elipse 3961 - Contorno" d="M.545-.5A1.033,1.033,0,0,1,1.59.519,1.033,1.033,0,0,1,.545,1.539,1.033,1.033,0,0,1-.5.519,1.033,1.033,0,0,1,.545-.5Z" transform="translate(11.067 0.5)" fill="#fff"/>
          <path id="Trazado_99229" data-name="Trazado 99229" d="M440.727,73.309a.588.588,0,1,1-.587-.562A.575.575,0,0,1,440.727,73.309Z" transform="translate(-423.245 -72.289)" fill="#fff"/>
          <path id="Trazado_99229_-_Contorno" data-name="Trazado 99229 - Contorno" d="M440.1,74.286a1.02,1.02,0,1,1,1.045-1.019A1.033,1.033,0,0,1,440.1,74.286Z" transform="translate(-423.202 -72.247)" fill="#fff"/>
          <path id="Trazado_99230" data-name="Trazado 99230" d="M449.173,73.309a.588.588,0,1,1-.587-.562A.574.574,0,0,1,449.173,73.309Z" transform="translate(-426.407 -72.289)" fill="#fff"/>
          <path id="Trazado_99230_-_Contorno" data-name="Trazado 99230 - Contorno" d="M448.544,74.286a1.02,1.02,0,1,1,1.045-1.019A1.034,1.034,0,0,1,448.544,74.286Z" transform="translate(-426.365 -72.247)" fill="#fff"/>
          <ellipse id="Elipse_3962" data-name="Elipse 3962" cx="0.587" cy="0.561" rx="0.587" ry="0.561" transform="translate(26.875 0.458)" fill="#fff"/>
          <path id="Elipse_3962_-_Contorno" data-name="Elipse 3962 - Contorno" d="M.545-.5A1.033,1.033,0,0,1,1.59.519,1.033,1.033,0,0,1,.545,1.539,1.033,1.033,0,0,1-.5.519,1.033,1.033,0,0,1,.545-.5Z" transform="translate(26.918 0.5)" fill="#fff"/>
          <path id="Trazado_99231" data-name="Trazado 99231" d="M466.066,73.309a.588.588,0,1,1-.587-.562A.575.575,0,0,1,466.066,73.309Z" transform="translate(-432.733 -72.289)" fill="#fff"/>
          <path id="Trazado_99231_-_Contorno" data-name="Trazado 99231 - Contorno" d="M465.437,74.286a1.02,1.02,0,1,1,1.045-1.019A1.033,1.033,0,0,1,465.437,74.286Z" transform="translate(-432.691 -72.247)" fill="#fff"/>
          <ellipse id="Elipse_3963" data-name="Elipse 3963" cx="0.587" cy="0.561" rx="0.587" ry="0.561" transform="translate(37.442 0.458)" fill="#fff"/>
          <path id="Elipse_3963_-_Contorno" data-name="Elipse 3963 - Contorno" d="M.545-.5A1.033,1.033,0,0,1,1.59.519,1.033,1.033,0,0,1,.545,1.539,1.033,1.033,0,0,1-.5.519,1.033,1.033,0,0,1,.545-.5Z" transform="translate(37.485 0.5)" fill="#fff"/>
          <ellipse id="Elipse_3964" data-name="Elipse 3964" cx="0.587" cy="0.561" rx="0.587" ry="0.561" transform="translate(42.726 0.458)" fill="#fff"/>
          <path id="Elipse_3964_-_Contorno" data-name="Elipse 3964 - Contorno" d="M.545-.5A1.033,1.033,0,0,1,1.59.519,1.033,1.033,0,0,1,.545,1.539,1.033,1.033,0,0,1-.5.519,1.033,1.033,0,0,1,.545-.5Z" transform="translate(42.768 0.5)" fill="#fff"/>
          <path id="Trazado_99232" data-name="Trazado 99232" d="M491.405,73.309a.588.588,0,1,1-.587-.562A.575.575,0,0,1,491.405,73.309Z" transform="translate(-442.222 -72.289)" fill="#fff"/>
          <path id="Trazado_99232_-_Contorno" data-name="Trazado 99232 - Contorno" d="M490.776,74.286a1.02,1.02,0,1,1,1.045-1.019A1.033,1.033,0,0,1,490.776,74.286Z" transform="translate(-442.179 -72.247)" fill="#fff"/>
          <path id="Trazado_99233" data-name="Trazado 99233" d="M499.851,73.309a.588.588,0,1,1-.587-.562A.575.575,0,0,1,499.851,73.309Z" transform="translate(-445.384 -72.289)" fill="#fff"/>
          <path id="Trazado_99233_-_Contorno" data-name="Trazado 99233 - Contorno" d="M499.222,74.286a1.02,1.02,0,1,1,1.045-1.019A1.033,1.033,0,0,1,499.222,74.286Z" transform="translate(-445.342 -72.247)" fill="#fff"/>
        </g>
        <g id="Grupo_53310" data-name="Grupo 53310" transform="translate(0 17.965)">
          <path id="Trazado_99234" data-name="Trazado 99234" d="M415.388,80.817a.588.588,0,1,1-.587-.562A.575.575,0,0,1,415.388,80.817Z" transform="translate(-413.756 -79.797)" fill="#fff"/>
          <path id="Trazado_99234_-_Contorno" data-name="Trazado 99234 - Contorno" d="M414.759,81.794a1.02,1.02,0,1,1,1.045-1.019A1.033,1.033,0,0,1,414.759,81.794Z" transform="translate(-413.714 -79.755)" fill="#fff"/>
          <path id="Trazado_99235" data-name="Trazado 99235" d="M423.834,80.817a.588.588,0,1,1-.587-.562A.574.574,0,0,1,423.834,80.817Z" transform="translate(-416.919 -79.797)" fill="#fff"/>
          <path id="Trazado_99235_-_Contorno" data-name="Trazado 99235 - Contorno" d="M423.205,81.794a1.02,1.02,0,1,1,1.045-1.019A1.033,1.033,0,0,1,423.205,81.794Z" transform="translate(-416.877 -79.755)" fill="#fff"/>
          <path id="Trazado_99236" data-name="Trazado 99236" d="M432.28,80.817a.588.588,0,1,1-.587-.562A.574.574,0,0,1,432.28,80.817Z" transform="translate(-420.082 -79.797)" fill="#fff"/>
          <path id="Trazado_99236_-_Contorno" data-name="Trazado 99236 - Contorno" d="M431.651,81.794a1.02,1.02,0,1,1,1.045-1.019A1.034,1.034,0,0,1,431.651,81.794Z" transform="translate(-420.039 -79.755)" fill="#fff"/>
          <path id="Trazado_99237" data-name="Trazado 99237" d="M440.727,80.817a.588.588,0,1,1-.587-.562A.575.575,0,0,1,440.727,80.817Z" transform="translate(-423.245 -79.797)" fill="#fff"/>
          <path id="Trazado_99237_-_Contorno" data-name="Trazado 99237 - Contorno" d="M440.1,81.794a1.02,1.02,0,1,1,1.045-1.019A1.033,1.033,0,0,1,440.1,81.794Z" transform="translate(-423.203 -79.755)" fill="#fff"/>
          <path id="Trazado_99238" data-name="Trazado 99238" d="M449.173,80.817a.588.588,0,1,1-.587-.562A.574.574,0,0,1,449.173,80.817Z" transform="translate(-426.407 -79.797)" fill="#fff"/>
          <path id="Trazado_99238_-_Contorno" data-name="Trazado 99238 - Contorno" d="M448.544,81.794a1.02,1.02,0,1,1,1.045-1.019A1.034,1.034,0,0,1,448.544,81.794Z" transform="translate(-426.365 -79.755)" fill="#fff"/>
          <path id="Trazado_99239" data-name="Trazado 99239" d="M457.619,80.817a.588.588,0,1,1-.587-.562A.574.574,0,0,1,457.619,80.817Z" transform="translate(-429.57 -79.797)" fill="#fff"/>
          <path id="Trazado_99239_-_Contorno" data-name="Trazado 99239 - Contorno" d="M456.99,81.794a1.02,1.02,0,1,1,1.045-1.019A1.034,1.034,0,0,1,456.99,81.794Z" transform="translate(-429.528 -79.755)" fill="#fff"/>
          <path id="Trazado_99240" data-name="Trazado 99240" d="M466.066,80.817a.588.588,0,1,1-.587-.562A.575.575,0,0,1,466.066,80.817Z" transform="translate(-432.733 -79.797)" fill="#fff"/>
          <path id="Trazado_99240_-_Contorno" data-name="Trazado 99240 - Contorno" d="M465.437,81.794a1.02,1.02,0,1,1,1.045-1.019A1.033,1.033,0,0,1,465.437,81.794Z" transform="translate(-432.691 -79.755)" fill="#fff"/>
          <path id="Trazado_99241" data-name="Trazado 99241" d="M474.512,80.817a.588.588,0,1,1-.587-.562A.574.574,0,0,1,474.512,80.817Z" transform="translate(-435.896 -79.797)" fill="#fff"/>
          <path id="Trazado_99241_-_Contorno" data-name="Trazado 99241 - Contorno" d="M473.883,81.794a1.02,1.02,0,1,1,1.045-1.019A1.033,1.033,0,0,1,473.883,81.794Z" transform="translate(-435.854 -79.755)" fill="#fff"/>
          <path id="Trazado_99242" data-name="Trazado 99242" d="M482.958,80.817a.588.588,0,1,1-.587-.562A.574.574,0,0,1,482.958,80.817Z" transform="translate(-439.058 -79.797)" fill="#fff"/>
          <path id="Trazado_99242_-_Contorno" data-name="Trazado 99242 - Contorno" d="M482.329,81.794a1.02,1.02,0,1,1,1.045-1.019A1.034,1.034,0,0,1,482.329,81.794Z" transform="translate(-439.016 -79.755)" fill="#fff"/>
          <path id="Trazado_99243" data-name="Trazado 99243" d="M491.405,80.817a.588.588,0,1,1-.587-.562A.575.575,0,0,1,491.405,80.817Z" transform="translate(-442.222 -79.797)" fill="#fff"/>
          <path id="Trazado_99243_-_Contorno" data-name="Trazado 99243 - Contorno" d="M490.776,81.794a1.02,1.02,0,1,1,1.045-1.019A1.033,1.033,0,0,1,490.776,81.794Z" transform="translate(-442.179 -79.755)" fill="#fff"/>
          <path id="Trazado_99244" data-name="Trazado 99244" d="M499.851,80.817a.588.588,0,1,1-.587-.562A.575.575,0,0,1,499.851,80.817Z" transform="translate(-445.384 -79.797)" fill="#fff"/>
          <path id="Trazado_99244_-_Contorno" data-name="Trazado 99244 - Contorno" d="M499.222,81.794a1.02,1.02,0,1,1,1.045-1.019A1.033,1.033,0,0,1,499.222,81.794Z" transform="translate(-445.342 -79.755)" fill="#fff"/>
        </g>
        <g id="Grupo_53311" data-name="Grupo 53311" transform="translate(0 22.456)">
          <ellipse id="Elipse_3965" data-name="Elipse 3965" cx="0.587" cy="0.561" rx="0.587" ry="0.561" transform="translate(0.458 0.458)" fill="#fff"/>
          <path id="Elipse_3965_-_Contorno" data-name="Elipse 3965 - Contorno" d="M.545-.5A1.033,1.033,0,0,1,1.59.519,1.033,1.033,0,0,1,.545,1.539,1.033,1.033,0,0,1-.5.519,1.033,1.033,0,0,1,.545-.5Z" transform="translate(0.5 0.5)" fill="#fff"/>
          <path id="Trazado_99245" data-name="Trazado 99245" d="M423.834,88.325a.588.588,0,1,1-.587-.562A.574.574,0,0,1,423.834,88.325Z" transform="translate(-416.919 -87.305)" fill="#fff"/>
          <path id="Trazado_99245_-_Contorno" data-name="Trazado 99245 - Contorno" d="M423.205,89.3a1.02,1.02,0,1,1,1.045-1.019A1.033,1.033,0,0,1,423.205,89.3Z" transform="translate(-416.877 -87.263)" fill="#fff"/>
          <ellipse id="Elipse_3966" data-name="Elipse 3966" cx="0.587" cy="0.561" rx="0.587" ry="0.561" transform="translate(11.025 0.458)" fill="#fff"/>
          <path id="Elipse_3966_-_Contorno" data-name="Elipse 3966 - Contorno" d="M.545-.5A1.033,1.033,0,0,1,1.59.519,1.033,1.033,0,0,1,.545,1.539,1.033,1.033,0,0,1-.5.519,1.033,1.033,0,0,1,.545-.5Z" transform="translate(11.067 0.5)" fill="#fff"/>
          <path id="Trazado_99246" data-name="Trazado 99246" d="M440.727,88.325a.588.588,0,1,1-.587-.562A.575.575,0,0,1,440.727,88.325Z" transform="translate(-423.245 -87.305)" fill="#fff"/>
          <path id="Trazado_99246_-_Contorno" data-name="Trazado 99246 - Contorno" d="M440.1,89.3a1.02,1.02,0,1,1,1.045-1.019A1.033,1.033,0,0,1,440.1,89.3Z" transform="translate(-423.202 -87.263)" fill="#fff"/>
          <path id="Trazado_99247" data-name="Trazado 99247" d="M449.173,88.325a.588.588,0,1,1-.587-.562A.574.574,0,0,1,449.173,88.325Z" transform="translate(-426.407 -87.305)" fill="#fff"/>
          <path id="Trazado_99247_-_Contorno" data-name="Trazado 99247 - Contorno" d="M448.544,89.3a1.02,1.02,0,1,1,1.045-1.019A1.034,1.034,0,0,1,448.544,89.3Z" transform="translate(-426.365 -87.263)" fill="#fff"/>
          <ellipse id="Elipse_3967" data-name="Elipse 3967" cx="0.587" cy="0.561" rx="0.587" ry="0.561" transform="translate(26.875 0.458)" fill="#fff"/>
          <path id="Elipse_3967_-_Contorno" data-name="Elipse 3967 - Contorno" d="M.545-.5A1.033,1.033,0,0,1,1.59.519,1.033,1.033,0,0,1,.545,1.539,1.033,1.033,0,0,1-.5.519,1.033,1.033,0,0,1,.545-.5Z" transform="translate(26.918 0.5)" fill="#fff"/>
          <path id="Trazado_99248" data-name="Trazado 99248" d="M466.066,88.325a.588.588,0,1,1-.587-.562A.575.575,0,0,1,466.066,88.325Z" transform="translate(-432.733 -87.305)" fill="#fff"/>
          <path id="Trazado_99248_-_Contorno" data-name="Trazado 99248 - Contorno" d="M465.437,89.3a1.02,1.02,0,1,1,1.045-1.019A1.033,1.033,0,0,1,465.437,89.3Z" transform="translate(-432.691 -87.263)" fill="#fff"/>
          <ellipse id="Elipse_3968" data-name="Elipse 3968" cx="0.587" cy="0.561" rx="0.587" ry="0.561" transform="translate(37.442 0.458)" fill="#fff"/>
          <path id="Elipse_3968_-_Contorno" data-name="Elipse 3968 - Contorno" d="M.545-.5A1.033,1.033,0,0,1,1.59.519,1.033,1.033,0,0,1,.545,1.539,1.033,1.033,0,0,1-.5.519,1.033,1.033,0,0,1,.545-.5Z" transform="translate(37.485 0.5)" fill="#fff"/>
          <ellipse id="Elipse_3969" data-name="Elipse 3969" cx="0.587" cy="0.561" rx="0.587" ry="0.561" transform="translate(42.726 0.458)" fill="#fff"/>
          <path id="Elipse_3969_-_Contorno" data-name="Elipse 3969 - Contorno" d="M.545-.5A1.033,1.033,0,0,1,1.59.519,1.033,1.033,0,0,1,.545,1.539,1.033,1.033,0,0,1-.5.519,1.033,1.033,0,0,1,.545-.5Z" transform="translate(42.768 0.5)" fill="#fff"/>
          <path id="Trazado_99249" data-name="Trazado 99249" d="M491.405,88.325a.588.588,0,1,1-.587-.562A.575.575,0,0,1,491.405,88.325Z" transform="translate(-442.222 -87.305)" fill="#fff"/>
          <path id="Trazado_99249_-_Contorno" data-name="Trazado 99249 - Contorno" d="M490.776,89.3a1.02,1.02,0,1,1,1.045-1.019A1.033,1.033,0,0,1,490.776,89.3Z" transform="translate(-442.179 -87.263)" fill="#fff"/>
          <path id="Trazado_99250" data-name="Trazado 99250" d="M499.851,88.325a.588.588,0,1,1-.587-.562A.575.575,0,0,1,499.851,88.325Z" transform="translate(-445.384 -87.305)" fill="#fff"/>
          <path id="Trazado_99250_-_Contorno" data-name="Trazado 99250 - Contorno" d="M499.222,89.3a1.02,1.02,0,1,1,1.045-1.019A1.033,1.033,0,0,1,499.222,89.3Z" transform="translate(-445.342 -87.263)" fill="#fff"/>
        </g>
        <g id="Grupo_53312" data-name="Grupo 53312" transform="translate(0 26.948)">
          <ellipse id="Elipse_3970" data-name="Elipse 3970" cx="0.587" cy="0.561" rx="0.587" ry="0.561" transform="translate(0.458 0.458)" fill="#fff"/>
          <path id="Elipse_3970_-_Contorno" data-name="Elipse 3970 - Contorno" d="M.545-.5A1.033,1.033,0,0,1,1.59.519,1.033,1.033,0,0,1,.545,1.539,1.033,1.033,0,0,1-.5.519,1.033,1.033,0,0,1,.545-.5Z" transform="translate(0.5 0.5)" fill="#fff"/>
          <path id="Trazado_99251" data-name="Trazado 99251" d="M423.834,95.832a.588.588,0,1,1-.587-.561A.574.574,0,0,1,423.834,95.832Z" transform="translate(-416.919 -94.813)" fill="#fff"/>
          <path id="Trazado_99251_-_Contorno" data-name="Trazado 99251 - Contorno" d="M423.205,94.771a1.02,1.02,0,1,1-1.045,1.019A1.033,1.033,0,0,1,423.205,94.771Z" transform="translate(-416.877 -94.771)" fill="#fff"/>
          <ellipse id="Elipse_3971" data-name="Elipse 3971" cx="0.587" cy="0.561" rx="0.587" ry="0.561" transform="translate(11.025 0.458)" fill="#fff"/>
          <path id="Elipse_3971_-_Contorno" data-name="Elipse 3971 - Contorno" d="M.545-.5A1.033,1.033,0,0,1,1.59.519,1.033,1.033,0,0,1,.545,1.539,1.033,1.033,0,0,1-.5.519,1.033,1.033,0,0,1,.545-.5Z" transform="translate(11.067 0.5)" fill="#fff"/>
          <path id="Trazado_99252" data-name="Trazado 99252" d="M440.727,95.832a.588.588,0,1,1-.587-.561A.575.575,0,0,1,440.727,95.832Z" transform="translate(-423.245 -94.813)" fill="#fff"/>
          <path id="Trazado_99252_-_Contorno" data-name="Trazado 99252 - Contorno" d="M440.1,94.771a1.02,1.02,0,1,1-1.045,1.019A1.034,1.034,0,0,1,440.1,94.771Z" transform="translate(-423.202 -94.771)" fill="#fff"/>
          <path id="Trazado_99253" data-name="Trazado 99253" d="M449.173,95.832a.588.588,0,1,1-.587-.561A.575.575,0,0,1,449.173,95.832Z" transform="translate(-426.407 -94.813)" fill="#fff"/>
          <path id="Trazado_99253_-_Contorno" data-name="Trazado 99253 - Contorno" d="M448.544,94.771A1.02,1.02,0,1,1,447.5,95.79,1.033,1.033,0,0,1,448.544,94.771Z" transform="translate(-426.365 -94.771)" fill="#fff"/>
          <ellipse id="Elipse_3972" data-name="Elipse 3972" cx="0.587" cy="0.561" rx="0.587" ry="0.561" transform="translate(26.875 0.458)" fill="#fff"/>
          <path id="Elipse_3972_-_Contorno" data-name="Elipse 3972 - Contorno" d="M.545-.5A1.033,1.033,0,0,1,1.59.519,1.033,1.033,0,0,1,.545,1.539,1.033,1.033,0,0,1-.5.519,1.033,1.033,0,0,1,.545-.5Z" transform="translate(26.918 0.5)" fill="#fff"/>
          <path id="Trazado_99254" data-name="Trazado 99254" d="M466.066,95.832a.588.588,0,1,1-.587-.561A.575.575,0,0,1,466.066,95.832Z" transform="translate(-432.733 -94.813)" fill="#fff"/>
          <path id="Trazado_99254_-_Contorno" data-name="Trazado 99254 - Contorno" d="M465.437,94.771a1.02,1.02,0,1,1-1.045,1.019A1.033,1.033,0,0,1,465.437,94.771Z" transform="translate(-432.691 -94.771)" fill="#fff"/>
          <ellipse id="Elipse_3973" data-name="Elipse 3973" cx="0.587" cy="0.561" rx="0.587" ry="0.561" transform="translate(37.442 0.458)" fill="#fff"/>
          <path id="Elipse_3973_-_Contorno" data-name="Elipse 3973 - Contorno" d="M.545-.5A1.033,1.033,0,0,1,1.59.519,1.033,1.033,0,0,1,.545,1.539,1.033,1.033,0,0,1-.5.519,1.033,1.033,0,0,1,.545-.5Z" transform="translate(37.485 0.5)" fill="#fff"/>
          <ellipse id="Elipse_3974" data-name="Elipse 3974" cx="0.587" cy="0.561" rx="0.587" ry="0.561" transform="translate(42.726 0.458)" fill="#fff"/>
          <path id="Elipse_3974_-_Contorno" data-name="Elipse 3974 - Contorno" d="M.545-.5A1.033,1.033,0,0,1,1.59.519,1.033,1.033,0,0,1,.545,1.539,1.033,1.033,0,0,1-.5.519,1.033,1.033,0,0,1,.545-.5Z" transform="translate(42.768 0.5)" fill="#fff"/>
          <path id="Trazado_99255" data-name="Trazado 99255" d="M491.405,95.832a.588.588,0,1,1-.587-.561A.575.575,0,0,1,491.405,95.832Z" transform="translate(-442.222 -94.813)" fill="#fff"/>
          <path id="Trazado_99255_-_Contorno" data-name="Trazado 99255 - Contorno" d="M490.776,94.771a1.02,1.02,0,1,1-1.045,1.019A1.034,1.034,0,0,1,490.776,94.771Z" transform="translate(-442.179 -94.771)" fill="#fff"/>
          <path id="Trazado_99256" data-name="Trazado 99256" d="M499.851,95.832a.588.588,0,1,1-.587-.561A.575.575,0,0,1,499.851,95.832Z" transform="translate(-445.384 -94.813)" fill="#fff"/>
          <path id="Trazado_99256_-_Contorno" data-name="Trazado 99256 - Contorno" d="M499.222,94.771a1.02,1.02,0,1,1-1.045,1.019A1.034,1.034,0,0,1,499.222,94.771Z" transform="translate(-445.342 -94.771)" fill="#fff"/>
        </g>
        <g id="Grupo_53313" data-name="Grupo 53313" transform="translate(0 31.439)">
          <path id="Trazado_99257" data-name="Trazado 99257" d="M415.388,103.34a.588.588,0,1,1-.587-.561A.575.575,0,0,1,415.388,103.34Z" transform="translate(-413.756 -102.321)" fill="#fff"/>
          <path id="Trazado_99257_-_Contorno" data-name="Trazado 99257 - Contorno" d="M414.759,102.279a1.02,1.02,0,1,1-1.045,1.019A1.034,1.034,0,0,1,414.759,102.279Z" transform="translate(-413.714 -102.279)" fill="#fff"/>
          <path id="Trazado_99258" data-name="Trazado 99258" d="M423.834,103.34a.588.588,0,1,1-.587-.561A.574.574,0,0,1,423.834,103.34Z" transform="translate(-416.919 -102.321)" fill="#fff"/>
          <path id="Trazado_99258_-_Contorno" data-name="Trazado 99258 - Contorno" d="M423.205,102.279a1.02,1.02,0,1,1-1.045,1.019A1.033,1.033,0,0,1,423.205,102.279Z" transform="translate(-416.877 -102.279)" fill="#fff"/>
          <path id="Trazado_99259" data-name="Trazado 99259" d="M432.28,103.34a.588.588,0,1,1-.587-.561A.575.575,0,0,1,432.28,103.34Z" transform="translate(-420.082 -102.321)" fill="#fff"/>
          <path id="Trazado_99259_-_Contorno" data-name="Trazado 99259 - Contorno" d="M431.651,102.279a1.02,1.02,0,1,1-1.045,1.019A1.033,1.033,0,0,1,431.651,102.279Z" transform="translate(-420.039 -102.279)" fill="#fff"/>
          <path id="Trazado_99260" data-name="Trazado 99260" d="M440.727,103.34a.588.588,0,1,1-.587-.561A.575.575,0,0,1,440.727,103.34Z" transform="translate(-423.245 -102.321)" fill="#fff"/>
          <path id="Trazado_99260_-_Contorno" data-name="Trazado 99260 - Contorno" d="M440.1,102.279a1.02,1.02,0,1,1-1.045,1.019A1.034,1.034,0,0,1,440.1,102.279Z" transform="translate(-423.203 -102.279)" fill="#fff"/>
          <path id="Trazado_99261" data-name="Trazado 99261" d="M449.173,103.34a.588.588,0,1,1-.587-.561A.575.575,0,0,1,449.173,103.34Z" transform="translate(-426.407 -102.321)" fill="#fff"/>
          <path id="Trazado_99261_-_Contorno" data-name="Trazado 99261 - Contorno" d="M448.544,102.279A1.02,1.02,0,1,1,447.5,103.3,1.033,1.033,0,0,1,448.544,102.279Z" transform="translate(-426.365 -102.279)" fill="#fff"/>
          <path id="Trazado_99262" data-name="Trazado 99262" d="M457.619,103.34a.588.588,0,1,1-.587-.561A.574.574,0,0,1,457.619,103.34Z" transform="translate(-429.57 -102.321)" fill="#fff"/>
          <path id="Trazado_99262_-_Contorno" data-name="Trazado 99262 - Contorno" d="M456.99,102.279a1.02,1.02,0,1,1-1.045,1.019A1.033,1.033,0,0,1,456.99,102.279Z" transform="translate(-429.528 -102.279)" fill="#fff"/>
          <path id="Trazado_99263" data-name="Trazado 99263" d="M466.066,103.34a.588.588,0,1,1-.587-.561A.575.575,0,0,1,466.066,103.34Z" transform="translate(-432.733 -102.321)" fill="#fff"/>
          <path id="Trazado_99263_-_Contorno" data-name="Trazado 99263 - Contorno" d="M465.437,102.279a1.02,1.02,0,1,1-1.045,1.019A1.033,1.033,0,0,1,465.437,102.279Z" transform="translate(-432.691 -102.279)" fill="#fff"/>
          <path id="Trazado_99264" data-name="Trazado 99264" d="M474.512,103.34a.588.588,0,1,1-.587-.561A.575.575,0,0,1,474.512,103.34Z" transform="translate(-435.896 -102.321)" fill="#fff"/>
          <path id="Trazado_99264_-_Contorno" data-name="Trazado 99264 - Contorno" d="M473.883,102.279a1.02,1.02,0,1,1-1.045,1.019A1.033,1.033,0,0,1,473.883,102.279Z" transform="translate(-435.854 -102.279)" fill="#fff"/>
          <path id="Trazado_99265" data-name="Trazado 99265" d="M482.958,103.34a.588.588,0,1,1-.587-.561A.575.575,0,0,1,482.958,103.34Z" transform="translate(-439.058 -102.321)" fill="#fff"/>
          <path id="Trazado_99265_-_Contorno" data-name="Trazado 99265 - Contorno" d="M482.329,102.279a1.02,1.02,0,1,1-1.045,1.019A1.033,1.033,0,0,1,482.329,102.279Z" transform="translate(-439.016 -102.279)" fill="#fff"/>
          <path id="Trazado_99266" data-name="Trazado 99266" d="M491.405,103.34a.588.588,0,1,1-.587-.561A.575.575,0,0,1,491.405,103.34Z" transform="translate(-442.222 -102.321)" fill="#fff"/>
          <path id="Trazado_99266_-_Contorno" data-name="Trazado 99266 - Contorno" d="M490.776,102.279a1.02,1.02,0,1,1-1.045,1.019A1.034,1.034,0,0,1,490.776,102.279Z" transform="translate(-442.179 -102.279)" fill="#fff"/>
          <path id="Trazado_99267" data-name="Trazado 99267" d="M499.851,103.34a.588.588,0,1,1-.587-.561A.575.575,0,0,1,499.851,103.34Z" transform="translate(-445.384 -102.321)" fill="#fff"/>
          <path id="Trazado_99267_-_Contorno" data-name="Trazado 99267 - Contorno" d="M499.222,102.279a1.02,1.02,0,1,1-1.045,1.019A1.034,1.034,0,0,1,499.222,102.279Z" transform="translate(-445.342 -102.279)" fill="#fff"/>
        </g>
        <g id="Grupo_53314" data-name="Grupo 53314" transform="translate(0 35.931)">
          <ellipse id="Elipse_3975" data-name="Elipse 3975" cx="0.587" cy="0.561" rx="0.587" ry="0.561" transform="translate(0.458 0.458)" fill="#fff"/>
          <path id="Elipse_3975_-_Contorno" data-name="Elipse 3975 - Contorno" d="M.545-.5A1.033,1.033,0,0,1,1.59.519,1.033,1.033,0,0,1,.545,1.539,1.033,1.033,0,0,1-.5.519,1.033,1.033,0,0,1,.545-.5Z" transform="translate(0.5 0.5)" fill="#fff"/>
          <path id="Trazado_99268" data-name="Trazado 99268" d="M423.834,110.848a.588.588,0,1,1-.587-.561A.575.575,0,0,1,423.834,110.848Z" transform="translate(-416.919 -109.829)" fill="#fff"/>
          <path id="Trazado_99268_-_Contorno" data-name="Trazado 99268 - Contorno" d="M423.205,109.787a1.02,1.02,0,1,1-1.045,1.019A1.033,1.033,0,0,1,423.205,109.787Z" transform="translate(-416.877 -109.787)" fill="#fff"/>
          <ellipse id="Elipse_3976" data-name="Elipse 3976" cx="0.587" cy="0.561" rx="0.587" ry="0.561" transform="translate(11.025 0.458)" fill="#fff"/>
          <path id="Elipse_3976_-_Contorno" data-name="Elipse 3976 - Contorno" d="M.545-.5A1.033,1.033,0,0,1,1.59.519,1.033,1.033,0,0,1,.545,1.539,1.033,1.033,0,0,1-.5.519,1.033,1.033,0,0,1,.545-.5Z" transform="translate(11.067 0.5)" fill="#fff"/>
          <path id="Trazado_99269" data-name="Trazado 99269" d="M440.727,110.848a.588.588,0,1,1-.587-.561A.575.575,0,0,1,440.727,110.848Z" transform="translate(-423.245 -109.829)" fill="#fff"/>
          <path id="Trazado_99269_-_Contorno" data-name="Trazado 99269 - Contorno" d="M440.1,109.787a1.02,1.02,0,1,1-1.045,1.019A1.034,1.034,0,0,1,440.1,109.787Z" transform="translate(-423.202 -109.787)" fill="#fff"/>
          <path id="Trazado_99270" data-name="Trazado 99270" d="M449.173,110.848a.588.588,0,1,1-.587-.561A.575.575,0,0,1,449.173,110.848Z" transform="translate(-426.407 -109.829)" fill="#fff"/>
          <path id="Trazado_99270_-_Contorno" data-name="Trazado 99270 - Contorno" d="M448.544,109.787a1.02,1.02,0,1,1-1.045,1.019A1.033,1.033,0,0,1,448.544,109.787Z" transform="translate(-426.365 -109.787)" fill="#fff"/>
          <ellipse id="Elipse_3977" data-name="Elipse 3977" cx="0.587" cy="0.561" rx="0.587" ry="0.561" transform="translate(26.875 0.458)" fill="#fff"/>
          <path id="Elipse_3977_-_Contorno" data-name="Elipse 3977 - Contorno" d="M.545-.5A1.033,1.033,0,0,1,1.59.519,1.033,1.033,0,0,1,.545,1.539,1.033,1.033,0,0,1-.5.519,1.033,1.033,0,0,1,.545-.5Z" transform="translate(26.918 0.5)" fill="#fff"/>
          <path id="Trazado_99271" data-name="Trazado 99271" d="M466.066,110.848a.588.588,0,1,1-.587-.561A.575.575,0,0,1,466.066,110.848Z" transform="translate(-432.733 -109.829)" fill="#fff"/>
          <path id="Trazado_99271_-_Contorno" data-name="Trazado 99271 - Contorno" d="M465.437,109.787a1.02,1.02,0,1,1-1.045,1.019A1.033,1.033,0,0,1,465.437,109.787Z" transform="translate(-432.691 -109.787)" fill="#fff"/>
          <ellipse id="Elipse_3978" data-name="Elipse 3978" cx="0.587" cy="0.561" rx="0.587" ry="0.561" transform="translate(37.442 0.458)" fill="#fff"/>
          <path id="Elipse_3978_-_Contorno" data-name="Elipse 3978 - Contorno" d="M.545-.5A1.033,1.033,0,0,1,1.59.519,1.033,1.033,0,0,1,.545,1.539,1.033,1.033,0,0,1-.5.519,1.033,1.033,0,0,1,.545-.5Z" transform="translate(37.485 0.5)" fill="#fff"/>
          <ellipse id="Elipse_3979" data-name="Elipse 3979" cx="0.587" cy="0.561" rx="0.587" ry="0.561" transform="translate(42.726 0.458)" fill="#fff"/>
          <path id="Elipse_3979_-_Contorno" data-name="Elipse 3979 - Contorno" d="M.545-.5A1.033,1.033,0,0,1,1.59.519,1.033,1.033,0,0,1,.545,1.539,1.033,1.033,0,0,1-.5.519,1.033,1.033,0,0,1,.545-.5Z" transform="translate(42.768 0.5)" fill="#fff"/>
          <path id="Trazado_99272" data-name="Trazado 99272" d="M491.405,110.848a.588.588,0,1,1-.587-.561A.575.575,0,0,1,491.405,110.848Z" transform="translate(-442.222 -109.829)" fill="#fff"/>
          <path id="Trazado_99272_-_Contorno" data-name="Trazado 99272 - Contorno" d="M490.776,109.787a1.02,1.02,0,1,1-1.045,1.019A1.034,1.034,0,0,1,490.776,109.787Z" transform="translate(-442.179 -109.787)" fill="#fff"/>
          <path id="Trazado_99273" data-name="Trazado 99273" d="M499.851,110.848a.588.588,0,1,1-.587-.561A.575.575,0,0,1,499.851,110.848Z" transform="translate(-445.384 -109.829)" fill="#fff"/>
          <path id="Trazado_99273_-_Contorno" data-name="Trazado 99273 - Contorno" d="M499.222,109.787a1.02,1.02,0,1,1-1.045,1.019A1.034,1.034,0,0,1,499.222,109.787Z" transform="translate(-445.342 -109.787)" fill="#fff"/>
        </g>
        <g id="Grupo_53315" data-name="Grupo 53315" transform="translate(0 40.421)">
          <path id="Trazado_99274" data-name="Trazado 99274" d="M415.388,118.356a.588.588,0,1,1-.587-.562A.575.575,0,0,1,415.388,118.356Z" transform="translate(-413.756 -117.336)" fill="#fff"/>
          <path id="Trazado_99274_-_Contorno" data-name="Trazado 99274 - Contorno" d="M414.759,119.333a1.02,1.02,0,1,1,1.045-1.02A1.033,1.033,0,0,1,414.759,119.333Z" transform="translate(-413.714 -117.294)" fill="#fff"/>
          <path id="Trazado_99275" data-name="Trazado 99275" d="M423.834,118.356a.588.588,0,1,1-.587-.562A.575.575,0,0,1,423.834,118.356Z" transform="translate(-416.919 -117.336)" fill="#fff"/>
          <path id="Trazado_99275_-_Contorno" data-name="Trazado 99275 - Contorno" d="M423.205,119.333a1.02,1.02,0,1,1,1.045-1.02A1.034,1.034,0,0,1,423.205,119.333Z" transform="translate(-416.877 -117.294)" fill="#fff"/>
          <path id="Trazado_99276" data-name="Trazado 99276" d="M432.28,118.356a.588.588,0,1,1-.587-.562A.575.575,0,0,1,432.28,118.356Z" transform="translate(-420.082 -117.336)" fill="#fff"/>
          <path id="Trazado_99276_-_Contorno" data-name="Trazado 99276 - Contorno" d="M431.651,119.333a1.02,1.02,0,1,1,1.045-1.02A1.034,1.034,0,0,1,431.651,119.333Z" transform="translate(-420.039 -117.294)" fill="#fff"/>
          <path id="Trazado_99277" data-name="Trazado 99277" d="M440.727,118.356a.588.588,0,1,1-.587-.562A.575.575,0,0,1,440.727,118.356Z" transform="translate(-423.245 -117.336)" fill="#fff"/>
          <path id="Trazado_99277_-_Contorno" data-name="Trazado 99277 - Contorno" d="M440.1,119.333a1.02,1.02,0,1,1,1.045-1.02A1.033,1.033,0,0,1,440.1,119.333Z" transform="translate(-423.203 -117.294)" fill="#fff"/>
          <path id="Trazado_99278" data-name="Trazado 99278" d="M449.173,118.356a.588.588,0,1,1-.587-.562A.575.575,0,0,1,449.173,118.356Z" transform="translate(-426.407 -117.336)" fill="#fff"/>
          <path id="Trazado_99278_-_Contorno" data-name="Trazado 99278 - Contorno" d="M448.544,119.333a1.02,1.02,0,1,1,1.045-1.02A1.034,1.034,0,0,1,448.544,119.333Z" transform="translate(-426.365 -117.294)" fill="#fff"/>
          <path id="Trazado_99279" data-name="Trazado 99279" d="M457.619,118.356a.588.588,0,1,1-.587-.562A.575.575,0,0,1,457.619,118.356Z" transform="translate(-429.57 -117.336)" fill="#fff"/>
          <path id="Trazado_99279_-_Contorno" data-name="Trazado 99279 - Contorno" d="M456.99,119.333a1.02,1.02,0,1,1,1.045-1.02A1.034,1.034,0,0,1,456.99,119.333Z" transform="translate(-429.528 -117.294)" fill="#fff"/>
          <path id="Trazado_99280" data-name="Trazado 99280" d="M466.066,118.356a.588.588,0,1,1-.587-.562A.575.575,0,0,1,466.066,118.356Z" transform="translate(-432.733 -117.336)" fill="#fff"/>
          <path id="Trazado_99280_-_Contorno" data-name="Trazado 99280 - Contorno" d="M465.437,119.333a1.02,1.02,0,1,1,1.045-1.02A1.034,1.034,0,0,1,465.437,119.333Z" transform="translate(-432.691 -117.294)" fill="#fff"/>
          <path id="Trazado_99281" data-name="Trazado 99281" d="M474.512,118.356a.588.588,0,1,1-.587-.562A.575.575,0,0,1,474.512,118.356Z" transform="translate(-435.896 -117.336)" fill="#fff"/>
          <path id="Trazado_99281_-_Contorno" data-name="Trazado 99281 - Contorno" d="M473.883,119.333a1.02,1.02,0,1,1,1.045-1.02A1.034,1.034,0,0,1,473.883,119.333Z" transform="translate(-435.854 -117.294)" fill="#fff"/>
          <path id="Trazado_99282" data-name="Trazado 99282" d="M482.958,118.356a.588.588,0,1,1-.587-.562A.575.575,0,0,1,482.958,118.356Z" transform="translate(-439.058 -117.336)" fill="#fff"/>
          <path id="Trazado_99282_-_Contorno" data-name="Trazado 99282 - Contorno" d="M482.329,119.333a1.02,1.02,0,1,1,1.045-1.02A1.034,1.034,0,0,1,482.329,119.333Z" transform="translate(-439.016 -117.294)" fill="#fff"/>
          <path id="Trazado_99283" data-name="Trazado 99283" d="M491.405,118.356a.588.588,0,1,1-.587-.562A.575.575,0,0,1,491.405,118.356Z" transform="translate(-442.222 -117.336)" fill="#fff"/>
          <path id="Trazado_99283_-_Contorno" data-name="Trazado 99283 - Contorno" d="M490.776,119.333a1.02,1.02,0,1,1,1.045-1.02A1.033,1.033,0,0,1,490.776,119.333Z" transform="translate(-442.179 -117.294)" fill="#fff"/>
          <path id="Trazado_99284" data-name="Trazado 99284" d="M499.851,118.356a.588.588,0,1,1-.587-.562A.575.575,0,0,1,499.851,118.356Z" transform="translate(-445.384 -117.336)" fill="#fff"/>
          <path id="Trazado_99284_-_Contorno" data-name="Trazado 99284 - Contorno" d="M499.222,119.333a1.02,1.02,0,1,1,1.045-1.02A1.033,1.033,0,0,1,499.222,119.333Z" transform="translate(-445.342 -117.294)" fill="#fff"/>
        </g>
        <g id="Grupo_53316" data-name="Grupo 53316" transform="translate(0 44.913)">
          <ellipse id="Elipse_3980" data-name="Elipse 3980" cx="0.587" cy="0.561" rx="0.587" ry="0.561" transform="translate(0.458 0.458)" fill="#fff"/>
          <path id="Elipse_3980_-_Contorno" data-name="Elipse 3980 - Contorno" d="M.545-.5A1.033,1.033,0,0,1,1.59.519,1.033,1.033,0,0,1,.545,1.539,1.033,1.033,0,0,1-.5.519,1.033,1.033,0,0,1,.545-.5Z" transform="translate(0.5 0.5)" fill="#fff"/>
          <path id="Trazado_99285" data-name="Trazado 99285" d="M423.834,125.864a.588.588,0,1,1-.587-.562A.574.574,0,0,1,423.834,125.864Z" transform="translate(-416.919 -124.844)" fill="#fff"/>
          <path id="Trazado_99285_-_Contorno" data-name="Trazado 99285 - Contorno" d="M423.205,126.841a1.02,1.02,0,1,1,1.045-1.019A1.034,1.034,0,0,1,423.205,126.841Z" transform="translate(-416.877 -124.802)" fill="#fff"/>
          <ellipse id="Elipse_3981" data-name="Elipse 3981" cx="0.587" cy="0.561" rx="0.587" ry="0.561" transform="translate(11.025 0.458)" fill="#fff"/>
          <path id="Elipse_3981_-_Contorno" data-name="Elipse 3981 - Contorno" d="M.545-.5A1.033,1.033,0,0,1,1.59.519,1.033,1.033,0,0,1,.545,1.539,1.033,1.033,0,0,1-.5.519,1.033,1.033,0,0,1,.545-.5Z" transform="translate(11.067 0.5)" fill="#fff"/>
          <path id="Trazado_99286" data-name="Trazado 99286" d="M440.727,125.864a.588.588,0,1,1-.587-.562A.575.575,0,0,1,440.727,125.864Z" transform="translate(-423.245 -124.844)" fill="#fff"/>
          <path id="Trazado_99286_-_Contorno" data-name="Trazado 99286 - Contorno" d="M440.1,126.841a1.02,1.02,0,1,1,1.045-1.019A1.033,1.033,0,0,1,440.1,126.841Z" transform="translate(-423.202 -124.802)" fill="#fff"/>
          <path id="Trazado_99287" data-name="Trazado 99287" d="M449.173,125.864a.588.588,0,1,1-.587-.562A.574.574,0,0,1,449.173,125.864Z" transform="translate(-426.407 -124.844)" fill="#fff"/>
          <path id="Trazado_99287_-_Contorno" data-name="Trazado 99287 - Contorno" d="M448.544,126.841a1.02,1.02,0,1,1,1.045-1.019A1.034,1.034,0,0,1,448.544,126.841Z" transform="translate(-426.365 -124.802)" fill="#fff"/>
          <ellipse id="Elipse_3982" data-name="Elipse 3982" cx="0.587" cy="0.561" rx="0.587" ry="0.561" transform="translate(26.875 0.458)" fill="#fff"/>
          <path id="Elipse_3982_-_Contorno" data-name="Elipse 3982 - Contorno" d="M.545-.5A1.033,1.033,0,0,1,1.59.519,1.033,1.033,0,0,1,.545,1.539,1.033,1.033,0,0,1-.5.519,1.033,1.033,0,0,1,.545-.5Z" transform="translate(26.918 0.5)" fill="#fff"/>
          <path id="Trazado_99288" data-name="Trazado 99288" d="M466.066,125.864a.588.588,0,1,1-.587-.562A.575.575,0,0,1,466.066,125.864Z" transform="translate(-432.733 -124.844)" fill="#fff"/>
          <path id="Trazado_99288_-_Contorno" data-name="Trazado 99288 - Contorno" d="M465.437,126.841a1.02,1.02,0,1,1,1.045-1.019A1.033,1.033,0,0,1,465.437,126.841Z" transform="translate(-432.691 -124.802)" fill="#fff"/>
          <ellipse id="Elipse_3983" data-name="Elipse 3983" cx="0.587" cy="0.561" rx="0.587" ry="0.561" transform="translate(37.442 0.458)" fill="#fff"/>
          <path id="Elipse_3983_-_Contorno" data-name="Elipse 3983 - Contorno" d="M.545-.5A1.033,1.033,0,0,1,1.59.519,1.033,1.033,0,0,1,.545,1.539,1.033,1.033,0,0,1-.5.519,1.033,1.033,0,0,1,.545-.5Z" transform="translate(37.485 0.5)" fill="#fff"/>
          <ellipse id="Elipse_3984" data-name="Elipse 3984" cx="0.587" cy="0.561" rx="0.587" ry="0.561" transform="translate(42.726 0.458)" fill="#fff"/>
          <path id="Elipse_3984_-_Contorno" data-name="Elipse 3984 - Contorno" d="M.545-.5A1.033,1.033,0,0,1,1.59.519,1.033,1.033,0,0,1,.545,1.539,1.033,1.033,0,0,1-.5.519,1.033,1.033,0,0,1,.545-.5Z" transform="translate(42.768 0.5)" fill="#fff"/>
          <path id="Trazado_99289" data-name="Trazado 99289" d="M491.405,125.864a.588.588,0,1,1-.587-.562A.575.575,0,0,1,491.405,125.864Z" transform="translate(-442.222 -124.844)" fill="#fff"/>
          <path id="Trazado_99289_-_Contorno" data-name="Trazado 99289 - Contorno" d="M490.776,126.841a1.02,1.02,0,1,1,1.045-1.019A1.033,1.033,0,0,1,490.776,126.841Z" transform="translate(-442.179 -124.802)" fill="#fff"/>
          <path id="Trazado_99290" data-name="Trazado 99290" d="M499.851,125.864a.588.588,0,1,1-.587-.562A.575.575,0,0,1,499.851,125.864Z" transform="translate(-445.384 -124.844)" fill="#fff"/>
          <path id="Trazado_99290_-_Contorno" data-name="Trazado 99290 - Contorno" d="M499.222,126.841a1.02,1.02,0,1,1,1.045-1.019A1.033,1.033,0,0,1,499.222,126.841Z" transform="translate(-445.342 -124.802)" fill="#fff"/>
        </g>
        <g id="Grupo_53317" data-name="Grupo 53317" transform="translate(0 49.405)">
          <ellipse id="Elipse_3985" data-name="Elipse 3985" cx="0.587" cy="0.561" rx="0.587" ry="0.561" transform="translate(0.458 0.458)" fill="#fff"/>
          <path id="Elipse_3985_-_Contorno" data-name="Elipse 3985 - Contorno" d="M.545-.5A1.033,1.033,0,0,1,1.59.519,1.033,1.033,0,0,1,.545,1.539,1.033,1.033,0,0,1-.5.519,1.033,1.033,0,0,1,.545-.5Z" transform="translate(0.5 0.5)" fill="#fff"/>
          <path id="Trazado_99291" data-name="Trazado 99291" d="M423.834,133.372a.588.588,0,1,1-.587-.562A.574.574,0,0,1,423.834,133.372Z" transform="translate(-416.919 -132.352)" fill="#fff"/>
          <path id="Trazado_99291_-_Contorno" data-name="Trazado 99291 - Contorno" d="M423.205,134.349a1.02,1.02,0,1,1,1.045-1.019A1.034,1.034,0,0,1,423.205,134.349Z" transform="translate(-416.877 -132.31)" fill="#fff"/>
          <ellipse id="Elipse_3986" data-name="Elipse 3986" cx="0.587" cy="0.561" rx="0.587" ry="0.561" transform="translate(11.025 0.458)" fill="#fff"/>
          <path id="Elipse_3986_-_Contorno" data-name="Elipse 3986 - Contorno" d="M.545-.5A1.033,1.033,0,0,1,1.59.519,1.033,1.033,0,0,1,.545,1.539,1.033,1.033,0,0,1-.5.519,1.033,1.033,0,0,1,.545-.5Z" transform="translate(11.067 0.5)" fill="#fff"/>
          <path id="Trazado_99292" data-name="Trazado 99292" d="M440.727,133.372a.588.588,0,1,1-.587-.562A.575.575,0,0,1,440.727,133.372Z" transform="translate(-423.245 -132.352)" fill="#fff"/>
          <path id="Trazado_99292_-_Contorno" data-name="Trazado 99292 - Contorno" d="M440.1,134.349a1.02,1.02,0,1,1,1.045-1.019A1.033,1.033,0,0,1,440.1,134.349Z" transform="translate(-423.202 -132.31)" fill="#fff"/>
          <path id="Trazado_99293" data-name="Trazado 99293" d="M449.173,133.372a.588.588,0,1,1-.587-.562A.574.574,0,0,1,449.173,133.372Z" transform="translate(-426.407 -132.352)" fill="#fff"/>
          <path id="Trazado_99293_-_Contorno" data-name="Trazado 99293 - Contorno" d="M448.544,134.349a1.02,1.02,0,1,1,1.045-1.019A1.034,1.034,0,0,1,448.544,134.349Z" transform="translate(-426.365 -132.31)" fill="#fff"/>
          <ellipse id="Elipse_3987" data-name="Elipse 3987" cx="0.587" cy="0.561" rx="0.587" ry="0.561" transform="translate(26.875 0.458)" fill="#fff"/>
          <path id="Elipse_3987_-_Contorno" data-name="Elipse 3987 - Contorno" d="M.545-.5A1.033,1.033,0,0,1,1.59.519,1.033,1.033,0,0,1,.545,1.539,1.033,1.033,0,0,1-.5.519,1.033,1.033,0,0,1,.545-.5Z" transform="translate(26.918 0.5)" fill="#fff"/>
          <path id="Trazado_99294" data-name="Trazado 99294" d="M466.066,133.372a.588.588,0,1,1-.587-.562A.575.575,0,0,1,466.066,133.372Z" transform="translate(-432.733 -132.352)" fill="#fff"/>
          <path id="Trazado_99294_-_Contorno" data-name="Trazado 99294 - Contorno" d="M465.437,134.349a1.02,1.02,0,1,1,1.045-1.019A1.033,1.033,0,0,1,465.437,134.349Z" transform="translate(-432.691 -132.31)" fill="#fff"/>
          <ellipse id="Elipse_3988" data-name="Elipse 3988" cx="0.587" cy="0.561" rx="0.587" ry="0.561" transform="translate(37.442 0.458)" fill="#fff"/>
          <path id="Elipse_3988_-_Contorno" data-name="Elipse 3988 - Contorno" d="M.545-.5A1.033,1.033,0,0,1,1.59.519,1.033,1.033,0,0,1,.545,1.539,1.033,1.033,0,0,1-.5.519,1.033,1.033,0,0,1,.545-.5Z" transform="translate(37.485 0.5)" fill="#fff"/>
          <ellipse id="Elipse_3989" data-name="Elipse 3989" cx="0.587" cy="0.561" rx="0.587" ry="0.561" transform="translate(42.726 0.458)" fill="#fff"/>
          <path id="Elipse_3989_-_Contorno" data-name="Elipse 3989 - Contorno" d="M.545-.5A1.033,1.033,0,0,1,1.59.519,1.033,1.033,0,0,1,.545,1.539,1.033,1.033,0,0,1-.5.519,1.033,1.033,0,0,1,.545-.5Z" transform="translate(42.768 0.5)" fill="#fff"/>
          <path id="Trazado_99295" data-name="Trazado 99295" d="M491.405,133.372a.588.588,0,1,1-.587-.562A.575.575,0,0,1,491.405,133.372Z" transform="translate(-442.222 -132.352)" fill="#fff"/>
          <path id="Trazado_99295_-_Contorno" data-name="Trazado 99295 - Contorno" d="M490.776,134.349a1.02,1.02,0,1,1,1.045-1.019A1.033,1.033,0,0,1,490.776,134.349Z" transform="translate(-442.179 -132.31)" fill="#fff"/>
          <path id="Trazado_99296" data-name="Trazado 99296" d="M499.851,133.372a.588.588,0,1,1-.587-.562A.575.575,0,0,1,499.851,133.372Z" transform="translate(-445.384 -132.352)" fill="#fff"/>
          <path id="Trazado_99296_-_Contorno" data-name="Trazado 99296 - Contorno" d="M499.222,134.349a1.02,1.02,0,1,1,1.045-1.019A1.033,1.033,0,0,1,499.222,134.349Z" transform="translate(-445.342 -132.31)" fill="#fff"/>
        </g>
      </g>
      <path id="Lnea_138" data-name="Lnea 138" d="M-.456,92.878l0-4.972H.457l0,4.972Zm-.006-12.3,0-7.325H.45l0,7.325ZM-.469,65.929l0-7.325H.443l0,7.325ZM-.476,51.278l0-7.325H.436l0,7.325ZM-.483,36.627l0-7.325H.43l0,7.325ZM-.49,21.976l0-7.325H.423l0,7.325ZM-.5,7.326-.5,0H.416l0,7.325Z" transform="translate(890.657 946.53)" fill="#3c6d9d" style="mix-blend-mode: multiply;isolation: isolate"/>
    </g>
    <g id="_000000ff" data-name="#000000ff" transform="translate(-4154 -9674.958)">
      <path id="Trazado_188977" data-name="Trazado 188977" d="M2.451,0H50.9a2.9,2.9,0,0,1,2.225,1.427c.57.961.326,2.119.379,3.178,1.282.011,2.8-.22,3.77.836.985.9.847,2.319.832,3.528.718.015,1.44-.036,2.156.033A2.829,2.829,0,0,1,62.7,11.715c.023,2.07,0,4.14.01,6.21a8.679,8.679,0,0,1,5.735,3.393,8.785,8.785,0,0,1,1.627,3.893c1.779,0,3.557.007,5.336,0a2.166,2.166,0,0,1,1.238.249,1.952,1.952,0,0,1,.71,1.112c2,5.564,4.065,11.1,6.038,16.675v.34a7.456,7.456,0,0,1-1.735,4.544,7.349,7.349,0,0,1-12.971-4.647,5.441,5.441,0,0,1,.453-1.56q2.592-7.131,5.186-14.263c-3.072,0-6.144,0-9.215.021q0,13.43,0,26.859c1.425.01,2.852-.015,4.277.01a6.678,6.678,0,0,1,6.429,6.694A1.211,1.211,0,0,1,74.6,62.437c-1.14,0-2.285.055-3.419-.034a1.244,1.244,0,0,1-.173-2.313A11.882,11.882,0,0,1,73.214,60a4.38,4.38,0,0,0-2.476-2.7,6.392,6.392,0,0,0-2.661-.314q-6.516,0-13.031,0a6.543,6.543,0,0,0-2.647.3A4.383,4.383,0,0,0,49.894,60c4.976.011,9.951,0,14.929,0a1.282,1.282,0,0,1,1.13.438,1.249,1.249,0,0,1-.648,1.967c-.862.091-1.731.015-2.6.039-.01,2.8.007,5.611-.007,8.417.049.705-.573,1.138-1.007,1.59q-4.942,4.911-9.877,9.828a3.849,3.849,0,0,1-1.412,1.111H11.81a2.912,2.912,0,0,1-2.28-1.521A6.137,6.137,0,0,1,9.2,79.027c-1.3-.011-2.845.218-3.806-.875-1.018-.974-.774-2.466-.793-3.73-1.033-.054-2.153.184-3.1-.336a2.946,2.946,0,0,1-1.5-2.2V2.5A3,3,0,0,1,2.451,0m.2,2.49c-.225.106-.2.381-.21.588q0,33.966,0,67.934c.036.3-.106.739.218.922a16.131,16.131,0,0,0,1.945.044q.01-22.884.008-45.767a1.183,1.183,0,0,1,1.425-1.153A1.181,1.181,0,0,1,7.047,26.38q0,24.766,0,49.531c0,.236-.016.586.287.651.621.05,1.246,0,1.868.02q.007-31.855,0-63.709a5.492,5.492,0,0,1,.22-2.161,2.844,2.844,0,0,1,2.621-1.741q21.809-.007,43.62,0c-.01-.546.029-1.093-.021-1.638-.064-.261-.365-.3-.588-.283q-23.705,0-47.41,0c-.275-.046-.632.1-.59.432-.023,4.235.013,8.471-.016,12.706a1.213,1.213,0,0,1-1.713,1.021,1.151,1.151,0,0,1-.718-1.173c0-4.238-.011-8.478.007-12.715A2.843,2.843,0,0,1,7.481,4.606q21.79-.007,43.578,0A11.522,11.522,0,0,0,51,2.617l-.192-.15c-.752-.06-1.51-.007-2.266-.024H3.9a6.539,6.539,0,0,0-1.251.047m9,9.4q-.02,34.039-.008,68.079c.016.336-.107.969.4.972q18.467.032,36.933.008,0-4.231,0-8.461a2.85,2.85,0,0,1,1.774-2.669,4.58,4.58,0,0,1,1.85-.205q3.831,0,7.662,0c0-2.391,0-4.78,0-7.17-3.911,0-7.823.01-11.733,0a1.215,1.215,0,0,1-1.231-1.2,6.682,6.682,0,0,1,6.624-6.7c1.36-.007,2.722,0,4.083,0q0-13.43,0-26.859c-3.072-.023-6.144-.021-9.215-.023Q51.55,35.28,54.326,42.9a3.224,3.224,0,0,1,.042,1.412,7.35,7.35,0,0,1-13.94,2.228,6.4,6.4,0,0,1-.638-3.525C41.811,37.4,43.862,31.8,45.9,26.2a1.469,1.469,0,0,1,1.494-.985c1.884,0,3.767,0,5.65,0a8.683,8.683,0,0,1,7.219-7.264c0-2.025.01-4.047,0-6.07a.41.41,0,0,0-.476-.461q-23.791-.012-47.582,0a.437.437,0,0,0-.551.474M58.044,21.4a6.22,6.22,0,0,0-2.525,3.811q6.037,0,12.07,0a6.236,6.236,0,0,0-3.57-4.4,6.151,6.151,0,0,0-5.976.586m2.4,6.29q0,13.42,0,26.84h2.217q0-13.42,0-26.84-1.112,0-2.22,0M42.684,42.182q4.39,0,8.785,0c-1.467-4.02-2.92-8.044-4.393-12.061-1.479,4.015-2.927,8.041-4.393,12.059M76.021,30.135c-1.453,4.02-2.922,8.031-4.376,12.048q4.39,0,8.782,0c-1.474-4.013-2.893-8.049-4.406-12.048m-33.71,14.5a4.926,4.926,0,0,0,9.531,0q-4.766-.007-9.531,0m28.957,0a4.926,4.926,0,0,0,9.533,0q-4.766-.007-9.533,0M51.427,72.478c-.02,2.241,0,4.484-.007,6.727q3.564-3.567,7.118-7.148-3.3,0-6.591,0C51.692,72.016,51.38,72.182,51.427,72.478Z" fill="#fff"/>
      <path id="Trazado_188978" data-name="Trazado 188978" d="M114.9,134.709a1.864,1.864,0,0,1,.792-.119c6.837.01,13.676-.011,20.515.01a1.191,1.191,0,0,1,1.1,1.518,1.165,1.165,0,0,1-1.248.915q-10.188.007-20.379,0a1.482,1.482,0,0,1-.974-.246A1.283,1.283,0,0,1,114.9,134.709Z" transform="translate(-95.65 -112.669)" fill="#fff"/>
      <path id="Trazado_188979" data-name="Trazado 188979" d="M114.927,192.837a1.953,1.953,0,0,1,.751-.106c5.591.011,11.184-.029,16.776,0a1.229,1.229,0,1,1-.306,2.437c-5.49-.01-10.982.011-16.475.011a1.443,1.443,0,0,1-1-.269A1.281,1.281,0,0,1,114.927,192.837Z" transform="translate(-95.648 -161.331)" fill="#fff"/>
      <path id="Trazado_188980" data-name="Trazado 188980" d="M114.98,251.029a3.172,3.172,0,0,1,1.067-.1c4.562.016,9.126-.031,13.686,0a1.251,1.251,0,0,1,.774,2.08c-.353.417-.943.349-1.432.357-4.569-.024-9.139.034-13.707,0A1.238,1.238,0,0,1,114.98,251.029Z" transform="translate(-95.684 -210.05)" fill="#fff"/>
      <path id="Trazado_188981" data-name="Trazado 188981" d="M115.143,309.179a3.673,3.673,0,0,1,.757-.054c4.616.013,9.232-.016,13.849-.01a1.516,1.516,0,0,1,.808.161,1.316,1.316,0,0,1,.1,2.057,1.976,1.976,0,0,1-1.231.23c-4.671-.023-9.342.033-14.014,0C114.12,311.581,113.92,309.473,115.143,309.179Z" transform="translate(-95.706 -258.768)" fill="#fff"/>
      <path id="Trazado_188982" data-name="Trazado 188982" d="M115.355,367.389a3.462,3.462,0,0,1,.735-.052c6.624.016,13.248-.016,19.872-.007a1.284,1.284,0,0,1,.847.241,1.3,1.3,0,0,1-.031,1.979,1.837,1.837,0,0,1-1.137.225c-6.679-.02-13.36.034-20.04,0C114.345,369.759,114.166,367.681,115.355,367.389Z" transform="translate(-95.896 -307.501)" fill="#fff"/>
      <path id="Trazado_188983" data-name="Trazado 188983" d="M115.139,425.661a2.247,2.247,0,0,1,.937-.122c6.565.02,13.131-.021,19.7,0a1.22,1.22,0,0,1,1.07,1.774,1.194,1.194,0,0,1-1.225.666c-6.683-.013-13.367.034-20.05,0A1.252,1.252,0,0,1,115.139,425.661Z" transform="translate(-95.873 -356.224)" fill="#fff"/>
    </g>
  </g>
</svg>
